<svg width="428" height="122" viewBox="0 0 428 122" fill="none" xmlns="http://www.w3.org/2000/svg">
<g clip-path="url(#clip0_602_1608)">
<rect width="428" height="122" rx="20" fill="white"/>
<rect x="27.6838" y="22.0703" width="23" height="17" rx="4" transform="rotate(26.2266 27.6838 22.0703)" fill="#CE856C"/>
<rect x="17.4932" y="38.2324" width="28" height="30" transform="rotate(26.2266 17.4932 38.2324)" fill="#DEDCF9"/>
<circle cx="11.4912" cy="82.0948" r="28" transform="rotate(26.2266 11.4912 82.0948)" fill="#DEDCF9"/>
<rect x="18.3242" y="27.4941" width="35" height="10" rx="3" transform="rotate(26.2266 18.3242 27.4941)" fill="#DEDCF9"/>
<path d="M33.0212 92.7001C27.1636 104.59 12.7761 109.481 0.885797 103.623C-11.0045 97.7656 -15.8949 83.3781 -10.0373 71.4878C-4.17971 59.5975 1.68221 87.8529 13.5725 93.7106C25.4628 99.5682 38.8788 80.8098 33.0212 92.7001Z" fill="#E99BF4"/>
<circle cx="28.8585" cy="69.469" r="2" transform="rotate(26.2266 28.8585 69.469)" fill="#985DF6"/>
<circle cx="30.4513" cy="74.1569" r="1.5" transform="rotate(26.2266 30.4513 74.1569)" fill="#985DF6"/>
<circle cx="25.6695" cy="97.4401" r="1.5" transform="rotate(26.2266 25.6695 97.4401)" fill="#985DF6"/>
<circle cx="26.1937" cy="72.6163" r="1" transform="rotate(26.2266 26.1937 72.6163)" fill="#985DF6"/>
<circle cx="23.219" cy="99.0206" r="1" transform="rotate(26.2266 23.219 99.0206)" fill="#985DF6"/>
<g clip-path="url(#clip1_602_1608)">
<path d="M389.257 55.0879L402.415 33.8589" stroke="black" stroke-width="3" stroke-linecap="round" stroke-linejoin="round"/>
<path d="M390.78 26.689L377.623 47.918" stroke="black" stroke-width="3" stroke-linecap="round" stroke-linejoin="round"/>
<path d="M393.614 57.7891L373.285 45.1895" stroke="black" stroke-width="3" stroke-linecap="round" stroke-linejoin="round"/>
<path d="M390.78 26.6888C387.359 22.6532 385.491 17.5289 385.512 12.2384C385.534 6.94792 387.443 1.8388 390.896 -2.16909C394.35 -6.17699 399.121 -8.82037 404.35 -9.62332C409.579 -10.4263 414.923 -9.33606 419.42 -6.54894C423.917 -3.76182 427.271 0.53909 428.879 5.57946C430.486 10.6198 430.242 16.0685 428.189 20.9446C426.136 25.8207 422.41 29.8038 417.682 32.1768C412.953 34.5498 407.533 35.1568 402.397 33.8885" stroke="black" stroke-width="3" stroke-linecap="round" stroke-linejoin="round"/>
<path d="M427.467 22.4961L389.83 -0.831152" stroke="black" stroke-width="5" stroke-linecap="round" stroke-linejoin="round"/>
<rect x="426.674" y="21.6113" width="42" height="7" transform="rotate(-148.21 426.674 21.6113)" fill="#BDFF7A"/>
<rect x="428.661" y="14.6074" width="38" height="3" transform="rotate(-148.21 428.661 14.6074)" fill="#BDFF7A"/>
<rect x="428.542" y="11.0039" width="34" height="3" transform="rotate(-148.21 428.542 11.0039)" fill="#BDFF7A"/>
<rect x="427.572" y="6.87305" width="28" height="3" transform="rotate(-148.21 427.572 6.87305)" fill="#FFDA44"/>
<rect x="424.903" y="1.68945" width="19" height="3" transform="rotate(-148.21 424.903 1.68945)" fill="#FFDA44"/>
</g>
<g clip-path="url(#clip2_602_1608)">
<path d="M106.3 -3.469L115.678 3.56308L112.794 14.9251L103.597 18.1725L94.2186 11.1404L97.1025 -0.221586L106.3 -3.469Z" stroke="black" stroke-width="2" stroke-linecap="round" stroke-linejoin="round"/>
<path d="M124.875 0.316501L127.759 -11.0455L118.381 -18.0776L109.184 -14.8301L106.3 -3.46817L115.678 3.56392M124.875 0.316501L115.678 3.56392M124.875 0.316501L134.254 7.34859M115.678 3.56392L112.795 14.9259L122.173 21.958M131.37 18.7106L140.749 25.7426M131.37 18.7106L134.254 7.34859M131.37 18.7106L122.173 21.958M84.6582 -6.17036L97.1027 -0.22075M103.597 18.1733L99.6311 26.4696M122.173 21.958L118.207 30.2543M94.2187 11.1412L88.0874 13.3062M134.254 7.34859L143.451 4.10117" stroke="black" stroke-width="2" stroke-linecap="round" stroke-linejoin="round"/>
<path d="M116.835 37.6336C117.341 39.0664 116.589 40.6379 115.156 41.1438C113.724 41.6497 112.152 40.8983 111.646 39.4656C111.14 38.0329 111.892 36.4613 113.324 35.9554C114.757 35.4495 116.329 36.2009 116.835 37.6336Z" fill="white" stroke="black"/>
<path d="M98.259 33.8504C98.7648 35.2831 98.0135 36.8547 96.5807 37.3606C95.148 37.8665 93.5764 37.1151 93.0705 35.6824C92.5647 34.2497 93.316 32.6781 94.7488 32.1722C96.1815 31.6663 97.7531 32.4177 98.259 33.8504Z" fill="white" stroke="black"/>
</g>
<rect x="333.624" y="78.9316" width="23" height="17" rx="4" transform="rotate(6.93147 333.624 78.9316)" fill="#CE856C"/>
<rect x="329.345" y="97.5508" width="28" height="30" transform="rotate(6.93147 329.345 97.5508)" fill="#968FF0"/>
<circle cx="338.174" cy="140.932" r="28" transform="rotate(6.93147 338.174 140.932)" fill="#968FF0"/>
<rect x="326.582" y="87.1406" width="35" height="10" rx="3" transform="rotate(6.93147 326.582 87.1406)" fill="#968FF0"/>
<circle cx="350.394" cy="123.278" r="2" transform="rotate(6.93147 350.394 123.278)" fill="#985DF6"/>
<rect x="251.502" y="1.15353" width="56.3395" height="56.3395" rx="7" transform="rotate(-17.1906 251.502 1.15353)" stroke="#6ADBC6" stroke-width="4"/>
<path d="M276.741 33.4846L275.906 30.572L280.376 29.2903C281.914 28.8493 282.972 28.2233 283.551 27.4123C284.144 26.5766 284.239 25.457 283.836 24.0536C283.478 22.8039 282.852 21.9639 281.959 21.5334C281.066 21.1029 279.879 21.1 278.399 21.5244L273.698 22.8723L272.871 19.9885L277.658 18.6158C278.889 18.263 280.035 18.0902 281.099 18.0975C282.162 18.1047 283.119 18.2878 283.971 18.6469C284.823 19.006 285.556 19.5657 286.169 20.3261C286.777 21.0673 287.241 21.9954 287.561 23.1105C287.98 24.5716 287.996 25.8985 287.61 27.0911C287.243 28.2783 286.48 29.3188 285.322 30.2128C284.177 31.082 282.643 31.7922 280.721 32.3435L276.741 33.4846ZM275.935 39.7078L270.478 20.6749L274.111 19.6329L279.569 38.6659L275.935 39.7078ZM302.854 32.3948C301.893 32.6704 301.013 32.7248 300.217 32.558C299.414 32.3719 298.693 31.9963 298.052 31.431C297.431 30.8601 296.886 30.1216 296.418 29.2155L295.899 29.3644L297.152 33.6241L294.095 34.5006L291.97 27.0893L288.224 14.0257L291.857 12.9838L293.255 17.8574C293.387 18.3188 293.502 18.827 293.598 19.3818C293.695 19.9366 293.778 20.5162 293.847 21.1206C293.911 21.7056 293.968 22.3031 294.018 22.9129L294.624 22.7393C294.609 21.7448 294.704 20.8436 294.909 20.0358C295.128 19.2031 295.516 18.4885 296.074 17.8918C296.631 17.2952 297.4 16.8562 298.38 16.5751C299.63 16.2168 300.803 16.2445 301.899 16.6583C303.01 17.0473 303.985 17.7662 304.827 18.8148C305.663 19.8442 306.313 21.1664 306.776 22.7813C307.228 24.3578 307.372 25.804 307.209 27.1201C307.064 28.4306 306.624 29.5451 305.889 30.4633C305.173 31.3761 304.161 32.0199 302.854 32.3948ZM300.84 29.7264C301.552 29.5224 302.119 29.1414 302.541 28.5833C302.964 28.0252 303.205 27.3423 303.264 26.5346C303.343 25.7213 303.239 24.8148 302.953 23.8151C302.677 22.8539 302.3 22.0465 301.821 21.3932C301.343 20.7398 300.783 20.276 300.143 20.0019C299.502 19.7278 298.807 19.6983 298.058 19.9133C297.558 20.0566 297.127 20.2946 296.764 20.6274C296.397 20.9409 296.108 21.3148 295.9 21.7491C295.686 22.1641 295.531 22.6038 295.436 23.0682C295.34 23.5326 295.298 24.0024 295.309 24.4776C295.334 24.9281 295.399 25.336 295.504 25.7013L295.645 26.1916C295.783 26.6722 296.008 27.1692 296.322 27.6827C296.63 28.1769 297.014 28.6078 297.473 28.9755C297.932 29.3432 298.446 29.6119 299.015 29.7817C299.578 29.9323 300.187 29.9138 300.84 29.7264Z" fill="#6ADBC6"/>
<path d="M269.646 13.4837C269.121 13.6344 268.641 13.7026 268.207 13.6884C267.773 13.6741 267.41 13.5701 267.119 13.3762C266.825 13.176 266.623 12.8804 266.511 12.4895C266.424 12.1883 266.414 11.9103 266.48 11.6557C266.545 11.4011 266.669 11.1784 266.85 10.9878C267.036 10.7889 267.267 10.6289 267.544 10.5077L267.522 10.4308L268.621 9.90781L269.839 9.76654L269.861 9.84345C270.15 9.78823 270.423 9.79667 270.68 9.86876C270.941 9.93262 271.168 10.0583 271.36 10.2459C271.557 10.4252 271.7 10.6686 271.788 10.9762C271.9 11.3671 271.882 11.7261 271.733 12.0532C271.588 12.372 271.336 12.6524 270.975 12.8945C270.621 13.1348 270.178 13.3312 269.646 13.4837ZM269.361 12.4524C269.508 12.4101 269.658 12.3532 269.811 12.2816C269.969 12.2018 270.109 12.1097 270.231 12.0051C270.352 11.8942 270.441 11.7682 270.497 11.6272C270.554 11.4861 270.558 11.329 270.508 11.156C270.447 10.9445 270.33 10.7876 270.154 10.6852C269.986 10.581 269.783 10.5248 269.544 10.5168C269.313 10.507 269.072 10.5379 268.822 10.6095C268.572 10.6812 268.352 10.7826 268.16 10.9137C267.967 11.0385 267.827 11.1897 267.739 11.3674C267.649 11.5388 267.636 11.7334 267.698 11.9512C267.746 12.1179 267.828 12.2469 267.945 12.3384C268.067 12.428 268.21 12.491 268.373 12.5275C268.535 12.5576 268.7 12.5657 268.869 12.5518C269.043 12.5296 269.207 12.4965 269.361 12.4524ZM268.555 9.67711C268.753 9.62015 268.93 9.53481 269.085 9.42111C269.246 9.30558 269.361 9.1649 269.432 8.99909C269.509 8.83143 269.517 8.64187 269.456 8.43039C269.408 8.26377 269.329 8.13381 269.219 8.04051C269.116 7.94537 268.993 7.88002 268.851 7.84444C268.715 7.80702 268.573 7.79571 268.425 7.8105C268.281 7.81705 268.145 7.8387 268.017 7.87545C267.838 7.9269 267.667 8.00719 267.504 8.11632C267.345 8.2172 267.227 8.34827 267.148 8.50951C267.07 8.67076 267.062 8.86032 267.124 9.07821C267.185 9.28969 267.287 9.45122 267.43 9.5628C267.579 9.67255 267.753 9.73374 267.95 9.74637C268.148 9.759 268.35 9.73591 268.555 9.67711ZM268.772 10.4365L267.55 10.527L267.511 10.3924C267.228 10.4183 266.972 10.3979 266.745 10.3313C266.524 10.2628 266.334 10.144 266.174 9.9747C266.021 9.80361 265.906 9.58348 265.829 9.31433C265.715 8.91701 265.723 8.55757 265.853 8.23603C265.989 7.91264 266.218 7.63541 266.54 7.40434C266.867 7.16502 267.267 6.97737 267.742 6.84139C268.235 6.69989 268.681 6.64819 269.081 6.68627C269.478 6.71794 269.811 6.83759 270.078 7.0452C270.352 7.25098 270.545 7.54933 270.657 7.94024C270.766 8.31834 270.753 8.66175 270.62 8.97048C270.491 9.27097 270.227 9.5235 269.828 9.72809L269.864 9.85306L268.772 10.4365ZM273.212 12.3051L272.843 11.017L274.762 8.67733C274.858 8.55269 274.956 8.42074 275.054 8.28145C275.151 8.13575 275.235 7.98 275.305 7.81418C275.376 7.64837 275.424 7.47845 275.451 7.30444C275.475 7.12401 275.462 6.94408 275.41 6.76465C275.355 6.5724 275.263 6.42185 275.135 6.31299C275.013 6.20231 274.858 6.1324 274.669 6.10328C274.487 6.07232 274.277 6.09083 274.04 6.15882C273.829 6.21946 273.655 6.30387 273.52 6.41206C273.391 6.51841 273.293 6.65037 273.228 6.80794C273.166 6.95726 273.14 7.13128 273.148 7.32998C273.157 7.52869 273.196 7.7498 273.266 7.99332L272.036 8.09614C271.89 7.632 271.857 7.20438 271.939 6.81329C272.026 6.41394 272.222 6.0699 272.527 5.78115C272.831 5.48599 273.243 5.26399 273.762 5.11515C274.217 4.98468 274.635 4.94444 275.017 4.99444C275.405 5.04261 275.735 5.17691 276.006 5.39734C276.278 5.61778 276.471 5.92986 276.587 6.33359C276.677 6.6476 276.704 6.94839 276.669 7.23597C276.638 7.5153 276.569 7.78139 276.461 8.03423C276.353 8.28708 276.223 8.52209 276.07 8.73927C275.915 8.95003 275.763 9.14294 275.612 9.31799L274.308 10.8673L274.33 10.9442L277.739 9.91486L278.028 10.9242L273.212 12.3051Z" fill="#6ADBC6"/>
<path d="M90 126V113.971C90 110.105 93.134 106.971 97 106.971H135.746C138.508 106.971 140.746 104.733 140.746 101.971V95C140.746 91.6863 143.433 89 146.746 89H185C187.761 89 190 91.2386 190 94V109.5M190 123.886V112" stroke="black"/>
<path d="M92.5 123V113.5C92.5 111.291 94.2909 109.5 96.5 109.5H136.5C140.366 109.5 143.5 106.366 143.5 102.5V95.5C143.5 93.2909 145.291 91.5 147.5 91.5H183.5C185.709 91.5 187.5 93.2909 187.5 95.5V123" stroke="black"/>
<path d="M204 109.5C204.276 109.5 204.5 109.276 204.5 109C204.5 108.724 204.276 108.5 204 108.5V109.5ZM190 109.5H204V108.5H190V109.5Z" fill="black"/>
<path d="M204 112.5C204.276 112.5 204.5 112.276 204.5 112C204.5 111.724 204.276 111.5 204 111.5V112.5ZM189.5 112.5H204V111.5H189.5V112.5Z" fill="black"/>
<path d="M204 118.002V103H209V118.004C209 119.109 208.105 120 207 120H206C204.895 120 204 119.106 204 118.002Z" fill="#66FF7F" stroke="black"/>
<rect x="202.5" y="100.5" width="8" height="2" rx="1" stroke="black"/>
</g>
<defs>
<clipPath id="clip0_602_1608">
<rect width="428" height="122" rx="20" fill="white"/>
</clipPath>
<clipPath id="clip1_602_1608">
<rect width="82" height="82" fill="white" transform="translate(414.698 78.8965) rotate(-148.21)"/>
</clipPath>
<clipPath id="clip2_602_1608">
<rect width="78.0281" height="78.0281" fill="white" transform="translate(65 -13.0215) rotate(-19.4478)"/>
</clipPath>
</defs>
</svg>
