<svg width="428" height="122" viewBox="0 0 428 122" fill="none" xmlns="http://www.w3.org/2000/svg">
<g clip-path="url(#clip0_290_123)">
<rect width="428" height="122" rx="20" fill="white"/>
<g clip-path="url(#clip1_290_123)">
<rect x="276" y="-24" width="170" height="170" rx="85" fill="white"/>
<path d="M276 -24.004H446V145.998H276V-24.004Z" fill="#D80027"/>
<path d="M276 -24.004H446V32.6613H276V-24.004Z" fill="black"/>
<path d="M276 89.3301H446V145.995H276V89.3301Z" fill="#FFDA44"/>
</g>
<path d="M-8 60.54H18.6M41.4 60.54H68M68 77.26H46.872C42.578 77.26 40.4348 77.26 39.2948 75.7286C38.1548 74.201 38.5766 71.8868 39.4164 67.2622L39.5836 66.3578C40.4196 61.7332 40.8452 59.419 39.7014 57.8914C38.5614 56.36 36.4182 56.36 32.128 56.36H27.872C23.578 56.36 21.4386 56.36 20.2948 57.8914C19.1548 59.419 19.5766 61.7332 20.4164 66.3578L20.5836 67.2622C21.4196 71.8868 21.8452 74.201 20.7052 75.7286C19.5652 77.2562 17.4182 77.26 13.128 77.26H-8M35.7 56.36C35.7 54.27 36.46 49.672 39.5 48M24.3 56.36C24.3 54.27 23.54 49.672 20.5 48M-4.2 60.54V124M64.2 60.54V124M52.8 77.26V124M41.4 124V77.26H18.6V124M7.2 77.26V124M-8 124H68" stroke="black" stroke-width="3" stroke-linecap="round" stroke-linejoin="round"/>
<g clip-path="url(#clip2_290_123)">
<path d="M111 -8C104.36 -8 99 -2.64 99 4C99 10.64 104.36 16 111 16C117.64 16 123 10.64 123 4C123 -2.64 117.64 -8 111 -8ZM111 -6.59C112.2 -6.59 113.36 -6.37 114.43 -6L111.13 1.13C111.09 1.17 111.09 1.26 111 1.26C110.91 1.26 110.91 1.17 110.87 1.13L107.57 -6C108.64 -6.37 109.8 -6.58 111 -6.58M105.9 -5.26L109.72 2.97C109.8 3.14 109.89 3.19 110 3.19H112C112.12 3.19 112.2 3.14 112.29 2.97L116.06 -5.26C117.64 -4.36 119 -3.07 119.96 -1.53L114.6 8.84C114.56 8.93 114.5 8.97 114.47 8.97C114.39 8.97 114.39 8.89 114.34 8.84L112.29 4.3C112.2 4.13 112.12 4.09 112 4.09H110C109.89 4.09 109.8 4.13 109.71 4.3L107.66 8.84C107.61 8.89 107.62 8.97 107.53 8.97C107.44 8.97 107.44 8.89 107.4 8.84L102 -1.53C102.94 -3.07 104.32 -4.36 105.9 -5.26ZM101.06 0.53L107.23 12.53C107.31 12.7 107.4 12.83 107.62 12.83C107.83 12.83 107.91 12.7 108 12.53L110.87 6.14C110.91 6.06 110.96 6 111 6C111.09 6 111.09 6.1 111.13 6.14L114.04 12.53C114.13 12.7 114.21 12.83 114.43 12.83C114.64 12.83 114.73 12.7 114.81 12.53L121 0.53C121.37 1.6 121.59 2.76 121.59 4C121.54 9.79 116.79 14.59 111 14.59C105.21 14.59 100.46 9.79 100.46 4C100.46 2.8 100.67 1.65 101.06 0.53Z" fill="black"/>
</g>
<g clip-path="url(#clip3_290_123)">
<path d="M123 14C128.519 14 133 18.4808 133 24C133 29.5192 128.519 34 123 34C117.481 34 113 29.5192 113 24C113 18.4808 117.481 14 123 14ZM115.704 28.6158C116.483 29.8465 117.56 30.8601 118.836 31.5626C120.111 32.265 121.544 32.6333 123 32.6333C126.068 32.6333 128.764 31.03 130.296 28.6158L123 25.8358L115.704 28.6158ZM124.59 23.0817L130.646 28.0108C131.297 26.7742 131.636 25.3974 131.633 24C131.633 19.3525 127.952 15.5575 123.35 15.3733L124.59 23.0817ZM122.65 15.3733C118.048 15.5575 114.367 19.3525 114.367 24C114.367 25.4475 114.723 26.8117 115.354 28.0108L121.41 23.0817L122.65 15.3733Z" fill="#FFDA44"/>
</g>
<g clip-path="url(#clip4_290_123)">
<path d="M133.5 -2C128.806 -2 125 1.80588 125 6.5C125 11.1941 128.806 15 133.5 15C138.194 15 142 11.1941 142 6.5C142 1.80588 138.194 -2 133.5 -2ZM133.5 -1.4475C137.889 -1.4475 141.447 2.11046 141.447 6.5C141.447 10.8888 137.89 14.4468 133.5 14.4468C129.11 14.4468 125.553 10.8888 125.553 6.5C125.553 2.11117 129.111 -1.4475 133.5 -1.4475ZM133.02 -1.00125C132.786 -0.990861 132.552 -0.972444 132.317 -0.946L132.241 1.13933C132.408 1.11114 132.576 1.08893 132.744 1.07275L132.794 -0.335417L132.785 -0.432458L132.815 -0.340375L133.285 0.714333H133.715L134.185 -0.339667L134.213 -0.432458L134.206 -0.335417L134.256 1.07275C134.42 1.08833 134.591 1.111 134.759 1.13933L134.681 -0.946C134.448 -0.972183 134.214 -0.990609 133.979 -1.00125L133.516 0.149792L133.5 0.234792L133.484 0.149792L133.02 -1.00125ZM137.763 0.29075L136.67 2.01058C136.808 2.11683 136.99 2.27338 137.107 2.38033L138.136 1.84625L138.201 1.79737L138.152 1.86396L137.62 2.89317C137.735 3.01712 137.902 3.21758 137.995 3.33942L139.716 2.24575C139.611 2.10918 139.502 1.97503 139.39 1.84342L138.3 2.56167L138.226 2.62683L138.281 2.54537L138.763 1.58487L138.423 1.24487L137.462 1.72654L137.381 1.78179L137.445 1.70671L138.166 0.616583C138.039 0.508917 137.918 0.410458 137.763 0.29075ZM128.896 0.681042C128.641 0.70725 128.444 0.8815 127.909 1.47792C127.724 1.68809 127.545 1.904 127.373 2.12533L128.842 3.51862C129.329 2.98029 129.526 2.78054 129.91 2.37608C130.181 2.08921 130.335 1.75983 130.063 1.44321C129.916 1.27179 129.668 1.23425 129.461 1.31925L129.441 1.32633L129.448 1.30792C129.474 1.21393 129.471 1.1145 129.441 1.02204C129.41 0.929576 129.353 0.848177 129.276 0.788C129.223 0.745891 129.162 0.714805 129.097 0.696561C129.031 0.678318 128.963 0.672574 128.896 0.681042ZM128.9 1.11667C128.996 1.09046 129.096 1.15917 129.118 1.25833C129.141 1.3575 129.079 1.451 129.009 1.52892C128.853 1.706 128.279 2.30667 128.279 2.30667L127.994 2.03538C128.289 1.67412 128.604 1.34546 128.746 1.21512C128.789 1.1706 128.842 1.13685 128.9 1.11667ZM133.5 1.45879C132.252 1.45824 131.049 1.92067 130.122 2.75656C129.196 3.59245 128.612 4.74234 128.485 5.98362V5.98504C128.405 6.77256 128.511 7.56787 128.796 8.30665C129.08 9.04544 129.534 9.70696 130.121 10.2377C130.708 10.7685 131.412 11.1537 132.176 11.362C132.94 11.5704 133.742 11.5961 134.517 11.4371C135.654 11.2037 136.675 10.5849 137.408 9.68526C138.141 8.78566 138.541 7.66048 138.54 6.5C138.54 5.16353 138.008 3.88208 137.063 2.93711C136.118 1.99215 134.836 1.46096 133.5 1.46021V1.45879ZM129.578 1.63021C129.612 1.62974 129.645 1.63989 129.677 1.66067C129.739 1.70246 129.768 1.774 129.752 1.84483C129.734 1.92912 129.664 2.00846 129.607 2.07008L128.867 2.86342L128.569 2.58008C128.569 2.58008 129.127 1.99075 129.309 1.80163C129.382 1.72654 129.428 1.68121 129.478 1.65642C129.509 1.63971 129.543 1.63072 129.578 1.63021ZM133.5 2.12108C134.075 2.12043 134.645 2.23325 135.177 2.45308C135.708 2.67291 136.191 2.99543 136.598 3.40218C137.005 3.80893 137.327 4.29192 137.547 4.82349C137.767 5.35506 137.88 5.92477 137.879 6.5H133.5V10.8789C132.925 10.8796 132.355 10.7667 131.823 10.5469C131.292 10.3271 130.809 10.0046 130.402 9.59782C129.995 9.19107 129.673 8.70808 129.453 8.17651C129.233 7.64494 129.12 7.07523 129.121 6.5H133.5V2.12108Z" fill="#D80027"/>
</g>
<path d="M217.474 88.0792C214.262 87.097 211.968 87.8067 209.927 89.5064C208.711 88.9354 207.537 88.4202 206.53 88.1124C203.279 87.1183 200.007 87.9041 197.42 89.4144C194.921 90.8717 192.946 92.9784 191.139 95.1394C191.126 95.1441 191.069 95.1068 191.058 95.1148C186.8 99.3678 181.885 105.164 170.699 106.752C162.366 107.962 157.294 111.898 154.893 116.588C152.436 117.247 150.583 118.769 149.523 122.236C147.87 127.641 150.816 131.961 155.27 134.836C157.128 138.646 160.24 141.688 164.834 143.093C172.819 145.534 183.806 143.147 198.616 134.933L198.696 134.957C214.927 126.321 222.153 117.253 224.393 109.925C225.85 105.16 225.566 101.364 223.578 98.9249C226.116 93.2187 221.352 89.2649 217.474 88.0792ZM204.94 93.3147C205.275 93.4173 205.705 93.6027 206.136 93.7657C202.22 99.0478 197.565 106.635 187.076 112.206C176.98 117.718 168.302 116.632 161.661 116.257C163.542 114.357 166.5 112.858 171.453 112.14C184.312 110.306 190.829 103.02 194.841 99.0244C194.925 98.9621 194.999 98.8965 195.077 98.8292C196.705 96.8525 198.483 95.0639 200.173 94.0786C201.864 93.094 203.305 92.8119 204.941 93.3121L204.94 93.3147ZM215.449 101.681C216.778 102.022 218.19 102.707 219.752 103.887C219.845 104.883 219.806 106.324 219.191 108.335C217.545 113.719 211.612 121.963 196.157 130.182L196.052 130.238C185.908 135.869 178.038 138.176 172.299 138.443C166.352 136.201 161.054 129.471 189.839 119.45C201.487 115.4 206.103 99.3248 215.449 101.681Z" fill="#AD1519"/>
<path d="M220.472 14.5591C220.677 11.6736 223.053 8.93976 226.283 8.19396C227.854 7.83134 229.444 7.99348 230.801 8.44033C231.768 8.75293 232.669 9.24359 233.456 9.88703L234.966 9.53836C236.442 9.19767 237.992 9.45715 239.277 10.2597C240.561 11.0623 241.474 12.3422 241.815 13.8179L241.82 13.8402C241.907 14.217 242.137 15.2122 242.179 16.2455L243.955 15.8356C244.745 15.6531 245.677 15.649 246.504 16.1848C247.321 16.7129 247.7 17.5497 247.875 18.3081L250.805 30.9991C250.98 31.7558 251.007 32.6789 250.489 33.5118C249.972 34.3478 249.129 34.7351 248.36 34.9127L245.18 35.6467L245.547 37.2365C245.722 37.9932 245.749 38.9163 245.231 39.7492C244.714 40.5852 243.871 40.9724 243.102 41.1501L228.794 44.4533C228.024 44.6309 227.098 44.6522 226.264 44.1281C225.435 43.6077 225.055 42.7646 224.88 42.0078L222.983 33.7888C221.976 33.6746 221.03 33.2512 220.275 32.5769C219.519 31.9026 218.992 31.0106 218.764 30.0238L216.562 20.4852C216.27 19.2203 216.493 17.8912 217.181 16.7903C217.868 15.6894 218.966 14.9069 220.23 14.6149L220.472 14.5591ZM226.162 33.0547L228.06 41.2738L242.368 37.9706L238.33 20.4832L227.202 23.0524L228.303 27.8216C228.531 28.8082 228.448 29.8413 228.065 30.7786C227.681 31.7158 227.016 32.5111 226.162 33.0547ZM241.51 19.7491L244.446 32.4672L247.625 31.7332L244.689 19.0151L241.51 19.7491ZM238.892 17.0045C238.912 16.8983 238.922 16.7396 238.923 16.5286C238.917 15.7915 238.73 14.9606 238.635 14.552C238.489 13.9195 238.098 13.371 237.548 13.027C236.997 12.6831 236.333 12.5719 235.7 12.7179L232.333 13.4952L231.691 12.7174C231.35 12.304 230.679 11.8359 229.778 11.5398C228.897 11.2476 227.919 11.1654 227.017 11.3735C224.59 11.9339 223.467 14.1256 223.777 15.4706L224.144 17.0603L220.965 17.7944C220.543 17.8917 220.177 18.1526 219.948 18.5195C219.719 18.8865 219.644 19.3295 219.742 19.7512L221.944 29.2897C222.041 29.7114 222.302 30.0771 222.669 30.3064C223.036 30.5357 223.479 30.6098 223.901 30.5125C224.322 30.4151 224.688 30.1543 224.917 29.7873C225.147 29.4204 225.221 28.9773 225.123 28.5557L223.288 20.6069L238.892 17.0045Z" fill="#FFDA44"/>
</g>
<defs>
<clipPath id="clip0_290_123">
<rect width="428" height="122" rx="20" fill="white"/>
</clipPath>
<clipPath id="clip1_290_123">
<rect x="276" y="-24" width="170" height="170" rx="85" fill="white"/>
</clipPath>
<clipPath id="clip2_290_123">
<rect width="24" height="24" fill="white" transform="translate(99 -8)"/>
</clipPath>
<clipPath id="clip3_290_123">
<rect width="20" height="20" fill="white" transform="translate(113 14)"/>
</clipPath>
<clipPath id="clip4_290_123">
<rect width="17" height="17" fill="white" transform="translate(125 -2)"/>
</clipPath>
</defs>
</svg>
