<svg width="428" height="122" viewBox="0 0 428 122" fill="none" xmlns="http://www.w3.org/2000/svg">
<g clip-path="url(#clip0_295_8)">
<rect width="428" height="122" rx="20" fill="white"/>
<g clip-path="url(#clip1_295_8)">
<path fill-rule="evenodd" clip-rule="evenodd" d="M276 -28H446V142H276V-28Z" fill="white"/>
<path fill-rule="evenodd" clip-rule="evenodd" d="M276 -28H332.658V142H276V-28Z" fill="#009246"/>
<path fill-rule="evenodd" clip-rule="evenodd" d="M389.342 -28H446V142H389.342V-28Z" fill="#CE2B37"/>
</g>
<path d="M53.469 1.82669L54.886 -3.85647C54.9799 -4.23329 55.2197 -4.55735 55.5526 -4.75736C55.8855 -4.95738 56.2842 -5.01697 56.661 -4.92302C57.0378 -4.82906 57.3619 -4.58927 57.5619 -4.25639C57.7619 -3.92351 57.8215 -3.5248 57.7275 -3.14798L56.3106 2.53517C56.2166 2.91199 55.9768 3.23605 55.6439 3.43607C55.3111 3.63609 54.9124 3.69567 54.5355 3.60172C54.1587 3.50777 53.8347 3.26798 53.6346 2.93509C53.4346 2.60221 53.375 2.20351 53.469 1.82669ZM60.2187 5.01869C60.5955 5.11264 60.9942 5.05306 61.3271 4.85304C61.66 4.65302 61.8998 4.32896 61.9937 3.95215L63.4107 -1.73101C63.5047 -2.10783 63.4451 -2.50653 63.2451 -2.83942C63.045 -3.1723 62.721 -3.41209 62.3442 -3.50604C61.9673 -3.6 61.5686 -3.54041 61.2358 -3.34039C60.9029 -3.14038 60.6631 -2.81631 60.5691 -2.4395L59.1522 3.24366C59.0582 3.62048 59.1178 4.01918 59.3178 4.35207C59.5178 4.68495 59.8419 4.92474 60.2187 5.01869ZM65.9019 6.43566C66.2787 6.52962 66.6774 6.47003 67.0103 6.27001C67.3432 6.07 67.5829 5.74593 67.6769 5.36912L69.0939 -0.314042C69.1878 -0.690859 69.1282 -1.08956 68.9282 -1.42245C68.7282 -1.75533 68.4041 -1.99512 68.0273 -2.08907C67.6505 -2.18302 67.2518 -2.12344 66.9189 -1.92342C66.586 -1.72341 66.3462 -1.39934 66.2523 -1.02253L64.8353 4.66063C64.7414 5.03745 64.801 5.43615 65.001 5.76904C65.201 6.10192 65.525 6.34171 65.9019 6.43566ZM80.4716 20.6321L80.1174 22.0529C79.6663 23.8599 78.5434 25.4271 76.9775 26.4353C75.4115 27.4436 73.5201 27.8171 71.6884 27.4799C70.0357 29.9796 67.7748 32.0182 65.1181 33.4043L69.471 34.4896C69.8478 34.5835 70.1719 34.8233 70.3719 35.1562C70.5719 35.4891 70.6315 35.8878 70.5376 36.2646C70.4436 36.6414 70.2038 36.9655 69.8709 37.1655C69.5381 37.3655 69.1394 37.4251 68.7625 37.3312L37.5052 29.5378C37.1283 29.4439 36.8043 29.2041 36.6043 28.8712C36.4042 28.5383 36.3447 28.1396 36.4386 27.7628C36.5326 27.386 36.7724 27.0619 37.1052 26.8619C37.4381 26.6619 37.8368 26.6023 38.2136 26.6962L42.5719 27.7829C41.1585 25.7294 40.1967 23.3994 39.7501 20.9468C39.3035 18.4942 39.3822 15.9748 39.981 13.5549L42.1065 5.03015C42.2004 4.65333 42.4402 4.32927 42.7731 4.12925C43.106 3.92924 43.5047 3.86965 43.8815 3.9636L75.1389 11.7569C77.023 12.2267 78.6433 13.4257 79.6434 15.0901C80.6435 16.7545 80.9414 18.748 80.4716 20.6321ZM73.0096 14.2443L44.5938 7.15942L42.8226 14.2634C42.163 16.9324 42.2655 19.733 43.1184 22.3467C43.9714 24.9604 45.5406 27.2823 47.6477 29.0484L60.037 32.1374C62.7266 31.5672 65.2022 30.2538 67.1824 28.3465C69.1625 26.4392 70.5678 24.0145 71.2384 21.3482L73.0096 14.2443ZM77.6301 19.9236C77.8495 19.0423 77.7904 18.1147 77.4609 17.2684C77.1314 16.4221 76.5477 15.6987 75.7901 15.1978L74.08 22.0567C73.8563 22.9486 73.563 23.8216 73.2027 24.6676C74.1492 24.6269 75.0571 24.2814 75.7912 23.6825C76.5252 23.0836 77.046 22.2635 77.2758 21.3444L77.6301 19.9236Z" fill="#009246"/>
<path d="M147 106.005C147.566 106.005 148.11 105.78 148.51 105.379C148.911 104.979 149.136 104.435 149.136 103.869C149.136 103.303 148.911 102.759 148.51 102.359C148.11 101.958 147.566 101.733 147 101.733C146.433 101.733 145.89 101.958 145.49 102.359C145.089 102.759 144.864 103.303 144.864 103.869C144.864 104.435 145.089 104.979 145.49 105.379C145.89 105.78 146.433 106.005 147 106.005ZM157.637 109.585C157.637 110.151 157.412 110.694 157.011 111.095C156.611 111.495 156.068 111.72 155.501 111.72C154.935 111.72 154.392 111.495 153.991 111.095C153.591 110.694 153.366 110.151 153.366 109.585C153.366 109.018 153.591 108.475 153.991 108.075C154.392 107.674 154.935 107.449 155.501 107.449C156.068 107.449 156.611 107.674 157.011 108.075C157.412 108.475 157.637 109.018 157.637 109.585ZM147.011 118.879C147.293 118.879 147.572 118.823 147.832 118.716C148.093 118.608 148.329 118.45 148.529 118.25C148.728 118.051 148.886 117.815 148.994 117.554C149.102 117.294 149.157 117.015 149.157 116.733C149.157 116.451 149.102 116.172 148.994 115.912C148.886 115.652 148.728 115.415 148.529 115.216C148.329 115.017 148.093 114.859 147.832 114.751C147.572 114.643 147.293 114.588 147.011 114.588C146.442 114.588 145.896 114.814 145.494 115.216C145.092 115.618 144.866 116.164 144.866 116.733C144.866 117.302 145.092 117.848 145.494 118.25C145.896 118.653 146.442 118.879 147.011 118.879ZM137 91.5877C137 88.4592 139.557 85.8106 142.8 86.0106C155.506 86.7935 166.648 91.0677 175.377 99.4019C177.854 101.765 177.365 105.625 174.797 107.596C170.8 110.682 166.776 113.732 162.725 116.747V121.719C162.725 123.767 161.14 126.005 158.44 126.005C157.956 126.004 157.476 125.927 157.017 125.776V126.013C157.017 128.05 155.428 130.273 152.723 130.273C150.568 130.273 149.148 128.856 148.648 127.273C147.083 128.445 145.371 129.719 143.843 130.856C141.014 132.962 137 130.942 137 127.427V91.5877ZM157.017 121.719C157.017 122.459 157.571 123.147 158.44 123.147C159.311 123.147 159.868 122.453 159.868 121.719V116.022C159.869 115.797 159.922 115.575 160.024 115.374C160.127 115.173 160.275 115 160.457 114.868C162.685 113.25 166.48 110.368 169.84 107.799C162.145 100.476 151.36 96.1305 139.857 96.0391V127.425C139.858 127.689 139.932 127.948 140.071 128.173C140.21 128.397 140.409 128.579 140.646 128.697C140.882 128.816 141.146 128.866 141.41 128.843C141.673 128.82 141.925 128.725 142.137 128.567C144.383 126.893 147.031 124.922 149.02 123.43C149.232 123.271 149.485 123.174 149.749 123.15C150.013 123.127 150.279 123.177 150.516 123.295C150.753 123.414 150.953 123.596 151.092 123.822C151.232 124.048 151.306 124.308 151.306 124.573V126.013C151.306 126.719 151.848 127.419 152.723 127.419C152.91 127.423 153.096 127.39 153.27 127.322C153.445 127.253 153.603 127.15 153.737 127.019C153.871 126.888 153.977 126.731 154.049 126.559C154.121 126.386 154.158 126.2 154.157 126.013V121.719C154.157 121.34 154.307 120.977 154.575 120.709C154.843 120.441 155.207 120.29 155.586 120.29C155.964 120.29 156.328 120.441 156.596 120.709C156.864 120.977 157.017 121.34 157.017 121.719ZM173.051 105.333C174.38 104.313 174.48 102.496 173.4 101.465C165.237 93.6734 154.771 89.6077 142.623 88.8592C141.143 88.7678 139.857 89.9849 139.857 91.5877V93.182C152.22 93.2763 163.865 98.002 172.134 106.039L173.051 105.333Z" fill="#CE2B37"/>
<path d="M24.1847 121.701L24.5623 116.279M12.4524 121.875L12.83 116.279M6.96242 105.942V100.033M18.6947 85.9766L13.0926 72.4418C12.3846 70.5597 9.39914 67.0639 4.5611 70.3591L-1.97617 74.8107C-2.71388 75.3103 -3.32617 75.9736 -3.76523 76.7489C-4.20429 77.5241 -4.45825 78.3904 -4.50729 79.28C-5.0973 90.6081 -5.18285 109.857 -4.62529 116.214C-4.61349 118.35 -3.74323 122.265 2.92383 122.073C2.92383 122.073 44.8939 121.908 46.7908 122.073C48.6876 122.238 53.7823 121.704 53.7823 116.211C54.0331 111.949 54.0773 105.644 53.862 101.514C53.7735 99.8446 53.1068 98.2634 51.8323 97.1955C49.431 95.1777 45.18 92.3781 39.2062 89.7202L39.0263 95.7146L28.6776 95.458M-4.98815 98.0658C-0.622104 92.7085 13.774 85.4574 22.7805 85.6373C23.8189 85.658 24.695 86.3571 25.0933 87.3188L32.4005 104.96M32.4005 104.96L39.1561 122.002M32.4005 104.96C15.2136 103.219 1.18921 107.409 -4.89669 110.485M32.4005 104.96C39.0735 105.639 45.4455 106.727 53.9829 110.273M18.6947 104.461V98.5584" stroke="#727272" stroke-width="1.5" stroke-linecap="round" stroke-linejoin="round"/>
<path d="M183.462 -6.83032L204.491 61.9549L254.219 46.7516L233.19 -22.0337L183.462 -6.83032ZM189.294 -3.72932L230.089 -16.2015L248.387 43.6506L207.592 56.1228L189.294 -3.72932ZM192.793 -1.86871L197.072 12.1265L204.486 9.85971C204.144 8.20622 203.827 6.47952 203.594 4.5973C203.591 1.17938 205.316 -2.97534 208.122 -4.5529C208.66 -4.87186 209.44 -4.71491 210.062 -4.918C210.464 -5.0409 211.935 -5.92697 212.213 -6.03132C216.835 -7.3127 221.98 -3.53106 223.786 0.247222C224.081 0.889897 224.662 2.04703 225.36 3.47795L232.507 1.29304L228.228 -12.7022L192.793 -1.86871ZM211.027 -2.34768C209.553 -1.89704 208.413 -0.620514 207.778 1.34829C207.157 3.31253 207.117 5.89707 207.918 8.51746C208.719 11.1379 210.198 13.2581 211.811 14.5396C213.438 15.8165 215.097 16.2372 216.571 15.7866C218.045 15.336 219.185 14.0594 219.821 12.0906C220.441 10.1264 220.481 7.54186 219.68 4.92147C218.879 2.30108 217.4 0.180829 215.788 -1.10063C214.16 -2.37754 212.501 -2.79832 211.027 -2.34768ZM197.891 14.8065L203.936 34.5785C204.321 31.7908 206.932 28.4039 207.113 26.1184C207.471 21.6458 206.27 17.5034 205.112 12.5988L197.891 14.8065ZM226.626 6.02134C228.19 9.2715 229.937 12.6445 231.255 15.8885C233.871 16.6189 236.273 17.8708 238.096 19.5762L233.326 3.97298L226.626 6.02134ZM221.042 15.8198C220.12 17.0624 218.894 18.0068 217.391 18.4666C216.855 18.6304 216.311 18.7153 215.768 18.751C215.463 19.9351 215.24 21.1755 215.151 22.5375C214.994 24.6857 213.46 26.1641 212.224 27.7141C211.415 29.1663 209.093 30.9993 210.732 32.6311C212.763 34.1102 217.006 33.0246 218.937 32.418C221.706 31.197 225.509 30.1645 227.08 27.6331L221.042 15.8198ZM217.738 37.0173L217.7 39.927L227.98 42.0264L228.175 37.392C225.739 36.1343 221.926 36.3884 217.738 37.0173ZM217.419 44.2784C216.778 44.6859 216.121 45.1472 215.575 45.5422C215.53 46.9398 216.32 48.2449 217.184 49.9016C220.641 49.3332 222.449 46.9407 224.471 44.6619L217.419 44.2784Z" fill="#696868"/>
</g>
<defs>
<clipPath id="clip0_295_8">
<rect width="428" height="122" rx="20" fill="white"/>
</clipPath>
<clipPath id="clip1_295_8">
<rect x="276" y="-28" width="170" height="170" rx="85" fill="white"/>
</clipPath>
</defs>
</svg>
