<svg width="372" height="233" viewBox="0 0 372 233" fill="none" xmlns="http://www.w3.org/2000/svg">
<rect y="71.2716" width="73.1048" height="73.1048" rx="17" transform="rotate(-43.4456 0 71.2716)" fill="#0089EC"/>
<circle cx="52" cy="73" r="21" fill="white"/>
<circle cx="59.5" cy="78.5" r="9.5" fill="black"/>
<rect x="103" y="50.2716" width="73.1048" height="73.1048" rx="17" transform="rotate(-43.4456 103 50.2716)" fill="#0089EC"/>
<circle cx="155" cy="52" r="21" fill="white"/>
<circle cx="162.5" cy="57.5" r="9.5" fill="black"/>
<rect x="69" y="144.272" width="73.1048" height="73.1048" rx="17" transform="rotate(-43.4456 69 144.272)" fill="#0089EC"/>
<circle cx="121" cy="146" r="21" fill="white"/>
<circle cx="128.5" cy="151.5" r="9.5" fill="black"/>
<path d="M250.857 168.132C253.627 166.409 257.185 168.55 256.96 171.805L253.258 225.276C253.113 227.373 251.369 229 249.267 229H167.004C162.981 229 161.475 223.728 164.891 221.603L250.857 168.132Z" fill="#272525"/>
<path d="M249.511 101.612C249.8 98.0059 252.472 95.0422 256.029 94.3835L361.491 74.8535C366.588 73.9097 371.223 77.988 370.935 83.1635L365.299 184.615C365.118 187.87 362.981 190.689 359.895 191.742L250.53 229.065C245.082 230.924 239.512 226.594 239.972 220.856L249.511 101.612Z" fill="#3C3B3B"/>
</svg>
