<svg width="643" height="530" viewBox="0 0 643 530" fill="none" xmlns="http://www.w3.org/2000/svg">
<rect x="188" y="248.746" width="143.596" height="143.596" rx="43" transform="rotate(-43.4456 188 248.746)" fill="#0089EC"/>
<circle cx="290.141" cy="252.141" r="41.2491" fill="white"/>
<circle cx="304.872" cy="262.944" r="18.6603" fill="black"/>
<path d="M177.665 351.715C178.137 351.513 178.513 351.137 178.715 350.665L186.162 333.289C186.854 331.673 189.146 331.673 189.838 333.289L197.285 350.665C197.487 351.137 197.863 351.513 198.335 351.715L215.711 359.162C217.327 359.854 217.327 362.146 215.711 362.838L198.335 370.285C197.863 370.487 197.487 370.863 197.285 371.335L189.838 388.711C189.146 390.327 186.854 390.327 186.162 388.711L178.715 371.335C178.513 370.863 178.137 370.487 177.665 370.285L160.289 362.838C158.673 362.146 158.673 359.854 160.289 359.162L177.665 351.715Z" fill="#628BF7"/>
<path d="M603.665 304.715C604.137 304.513 604.513 304.137 604.715 303.665L612.162 286.289C612.854 284.673 615.146 284.673 615.838 286.289L623.285 303.665C623.487 304.137 623.863 304.513 624.335 304.715L641.711 312.162C643.327 312.854 643.327 315.146 641.711 315.838L624.335 323.285C623.863 323.487 623.487 323.863 623.285 324.335L615.838 341.711C615.146 343.327 612.854 343.327 612.162 341.711L604.715 324.335C604.513 323.863 604.137 323.487 603.665 323.285L586.289 315.838C584.673 315.146 584.673 312.854 586.289 312.162L603.665 304.715Z" fill="#628BF7"/>
<path d="M464.315 164.365C464.787 164.163 465.163 163.787 465.365 163.315L469.662 153.289C470.354 151.673 472.646 151.673 473.338 153.289L477.635 163.315C477.837 163.787 478.213 164.163 478.685 164.365L488.711 168.662C490.327 169.354 490.327 171.646 488.711 172.338L478.685 176.635C478.213 176.837 477.837 177.213 477.635 177.685L473.338 187.711C472.646 189.327 470.354 189.327 469.662 187.711L465.365 177.685C465.163 177.213 464.787 176.837 464.315 176.635L454.289 172.338C452.673 171.646 452.673 169.354 454.289 168.662L464.315 164.365Z" fill="#6ADBC6"/>
<path d="M9.56468 257.615C10.0367 257.413 10.4128 257.037 10.6151 256.565L14.1617 248.289C14.8544 246.673 17.1456 246.673 17.8383 248.289L21.3849 256.565C21.5872 257.037 21.9633 257.413 22.4353 257.615L30.7107 261.162C32.3269 261.854 32.3269 264.146 30.7107 264.838L22.4353 268.385C21.9633 268.587 21.5872 268.963 21.3849 269.435L17.8383 277.711C17.1456 279.327 14.8544 279.327 14.1617 277.711L10.6151 269.435C10.4128 268.963 10.0367 268.587 9.56468 268.385L1.28934 264.838C-0.326872 264.146 -0.326872 261.854 1.28934 261.162L9.56468 257.615Z" fill="#6ADBC6"/>
<path d="M381.581 21.8939C382.171 21.641 382.641 21.1709 382.894 20.5809L390.702 2.36168C391.568 0.341409 394.432 0.34141 395.298 2.36168L403.106 20.5809C403.359 21.1709 403.829 21.641 404.419 21.8939L422.638 29.7021C424.659 30.568 424.659 33.432 422.638 34.2979L404.419 42.1061C403.829 42.359 403.359 42.8291 403.106 43.4191L395.298 61.6383C394.432 63.6586 391.568 63.6586 390.702 61.6383L382.894 43.4191C382.641 42.8291 382.171 42.359 381.581 42.1061L363.362 34.2979C361.341 33.432 361.341 30.568 363.362 29.7021L381.581 21.8939Z" fill="#FF7ABC"/>
<path d="M243.581 487.894C244.171 487.641 244.641 487.171 244.894 486.581L252.702 468.362C253.568 466.341 256.432 466.341 257.298 468.362L265.106 486.581C265.359 487.171 265.829 487.641 266.419 487.894L284.638 495.702C286.659 496.568 286.659 499.432 284.638 500.298L266.419 508.106C265.829 508.359 265.359 508.829 265.106 509.419L257.298 527.638C256.432 529.659 253.568 529.659 252.702 527.638L244.894 509.419C244.641 508.829 244.171 508.359 243.581 508.106L225.362 500.298C223.341 499.432 223.341 496.568 225.362 495.702L243.581 487.894Z" fill="#FF7ABC"/>
<path d="M96.7647 106.815C97.2367 106.613 97.6128 106.237 97.8151 105.765L103.162 93.2893C103.854 91.6731 106.146 91.6731 106.838 93.2893L112.185 105.765C112.387 106.237 112.763 106.613 113.235 106.815L125.711 112.162C127.327 112.854 127.327 115.146 125.711 115.838L113.235 121.185C112.763 121.387 112.387 121.763 112.185 122.235L106.838 134.711C106.146 136.327 103.854 136.327 103.162 134.711L97.8151 122.235C97.6128 121.763 97.2367 121.387 96.7647 121.185L84.2893 115.838C82.6731 115.146 82.6731 112.854 84.2893 112.162L96.7647 106.815Z" fill="#C6C4FB"/>
<path d="M389.165 376.215C389.637 376.013 390.013 375.637 390.215 375.165L393.162 368.289C393.854 366.673 396.146 366.673 396.838 368.289L399.785 375.165C399.987 375.637 400.363 376.013 400.835 376.215L407.711 379.162C409.327 379.854 409.327 382.146 407.711 382.838L400.835 385.785C400.363 385.987 399.987 386.363 399.785 386.835L396.838 393.711C396.146 395.327 393.854 395.327 393.162 393.711L390.215 386.835C390.013 386.363 389.637 385.987 389.165 385.785L382.289 382.838C380.673 382.146 380.673 379.854 382.289 379.162L389.165 376.215Z" fill="#C6C4FB"/>
</svg>
