<svg width="428" height="122" viewBox="0 0 428 122" fill="none" xmlns="http://www.w3.org/2000/svg">
<g clip-path="url(#clip0_601_2348)">
<rect width="428" height="122" rx="20" fill="white"/>
<path d="M63.5 115H60C62.5858 111.211 64.1581 106.823 64.5672 102.254C64.9763 97.6846 64.2085 93.0869 62.3369 88.8987C60.4654 84.7105 57.5524 81.0714 53.8757 78.3281C50.199 75.5849 45.8811 73.8289 41.3333 73.2275V64.8333C41.3333 63.2862 40.7188 61.8025 39.6248 60.7085C38.5308 59.6146 37.0471 59 35.5 59H21.5C19.9529 59 18.4692 59.6146 17.3752 60.7085C16.2812 61.8025 15.6667 63.2862 15.6667 64.8333V92.8333C15.6667 94.3804 16.2812 95.8642 17.3752 96.9581C18.4692 98.0521 19.9529 98.6667 21.5 98.6667H35.5C37.0471 98.6667 38.5308 98.0521 39.6248 96.9581C40.7188 95.8642 41.3333 94.3804 41.3333 92.8333V80.315C45.9102 81.1414 50.052 83.5477 53.0368 87.1145C56.0216 90.6813 57.6601 95.1824 57.6667 99.8333C57.6789 102.724 57.0532 105.583 55.8342 108.204C54.6152 110.826 52.8328 113.146 50.6142 115H7.5C6.57174 115 5.6815 115.369 5.02513 116.025C4.36875 116.682 4 117.572 4 118.5C4 119.428 4.36875 120.318 5.02513 120.975C5.6815 121.631 6.57174 122 7.5 122H63.5C64.4283 122 65.3185 121.631 65.9749 120.975C66.6312 120.318 67 119.428 67 118.5C67 117.572 66.6312 116.682 65.9749 116.025C65.3185 115.369 64.4283 115 63.5 115ZM34.3333 91.6667H22.6667V66H34.3333V91.6667ZM19.1667 110.333C18.2384 110.333 17.3482 109.965 16.6918 109.308C16.0354 108.652 15.6667 107.762 15.6667 106.833C15.6667 105.905 16.0354 105.015 16.6918 104.358C17.3482 103.702 18.2384 103.333 19.1667 103.333H37.8333C38.7616 103.333 39.6518 103.702 40.3082 104.358C40.9646 105.015 41.3333 105.905 41.3333 106.833C41.3333 107.762 40.9646 108.652 40.3082 109.308C39.6518 109.965 38.7616 110.333 37.8333 110.333H19.1667Z" fill="#968FF0"/>
<path d="M225.073 11.1484L218.65 8.40138L218.186 0.604914L224.237 -2.88524L230.66 -0.138226M225.073 11.1484L231.125 7.65824M225.073 11.1484L225.538 18.9449L231.961 21.6919L238.012 18.2017L237.548 10.4053M231.125 7.65824L230.66 -0.138226M231.125 7.65824L237.548 10.4053M230.66 -0.138226L236.712 -3.62838L243.134 -0.881367L243.599 6.9151L237.548 10.4053" stroke="#6ADBC6" stroke-width="3.5" stroke-linecap="round" stroke-linejoin="round"/>
<path d="M270.368 37.7432L263.959 34.9632L263.535 27.1644L269.604 23.7055L276.013 26.4855M270.368 37.7432L276.437 34.2842M270.368 37.7432L270.792 45.542L277.201 48.322L283.27 44.863L282.846 37.0643M276.437 34.2842L276.013 26.4855M276.437 34.2842L282.846 37.0643M276.013 26.4855L282.082 23.0265L288.491 25.8065L288.915 33.6053L282.846 37.0643" stroke="#6ADBC6" stroke-width="3.5" stroke-linecap="round" stroke-linejoin="round"/>
<path d="M248.506 9.14636L248.079 2.17368L254.839 -1.73944L260.673 2.10275L261.1 9.07544M248.506 9.14636L254.34 12.9886M248.506 9.14636L241.747 13.0595L242.173 20.0322L248.008 23.8744L254.767 19.9612M254.34 12.9886L261.1 9.07544M254.34 12.9886L254.767 19.9612M261.1 9.07544L266.934 12.9176L267.36 19.8903L260.601 23.8034L254.767 19.9612" stroke="#E99BF4" stroke-width="3.5" stroke-linecap="round" stroke-linejoin="round"/>
<path d="M324.681 83.1726C325.279 83.1191 325.775 83.0154 326.246 82.8902L327.344 84.6542L329.4 83.4025L328.431 81.8642C329.365 81.1282 329.839 80.2317 330.037 79.4785L332.449 80.0455L333.014 77.7411L330.209 77.0908C330.224 75.5118 330.75 74.5275 331.358 73.9156L332.582 75.8818L334.639 74.6301L333.532 72.8907C334.388 72.7313 335.191 72.366 335.87 71.8273L338.806 73.403L339.958 71.3308L337.276 69.8984C337.5 69.3089 337.654 68.6071 337.688 67.7738L340.15 67.5533L339.939 65.1998L337.429 65.4245C337.175 64.6051 336.77 63.9771 336.284 63.5342L339.14 60.1707L337.294 58.6634L334.091 62.4495C333.181 62.2463 332.452 62.3115 332.452 62.3115L332.241 59.958L329.851 60.172L330.066 62.5726C329.319 62.7107 328.458 62.9182 327.534 63.2263L326.172 60.1218L323.967 61.0665L325.326 64.1357C324.742 64.4727 324.148 64.8343 323.584 65.2644L321.433 62.6338L319.566 64.1176L321.839 66.9033C321.229 67.6222 320.701 68.4524 320.268 69.4045L317.884 68.4792L316.997 70.6819L319.492 71.6447L319.583 71.4468C319.301 72.599 319.152 73.8934 319.199 75.3601L316.772 75.5773L316.983 77.9308L319.457 77.7093C319.645 78.5941 319.994 79.8083 320.633 80.8898L318.977 82.8411L320.823 84.3484L322.284 82.6399C322.934 83.0325 323.725 83.2583 324.681 83.1726ZM329.34 67.928C329.298 67.4599 329.447 66.994 329.754 66.6329C330.06 66.2717 330.5 66.0449 330.975 66.0024C331.451 65.9598 331.923 66.1049 332.289 66.4059C332.655 66.7068 332.884 67.1389 332.926 67.607C332.968 68.0751 332.819 68.541 332.513 68.9022C332.206 69.2633 331.767 69.4901 331.291 69.5327C330.816 69.5752 330.343 69.4301 329.977 69.1292C329.611 68.8282 329.382 68.3962 329.34 67.928ZM326.018 71.191C325.99 70.8789 326.089 70.5683 326.294 70.3275C326.498 70.0868 326.791 69.9356 327.108 69.9072C327.425 69.8788 327.74 69.9756 327.984 70.1762C328.228 70.3768 328.38 70.6648 328.408 70.9769C328.436 71.289 328.337 71.5996 328.133 71.8404C327.928 72.0811 327.636 72.2323 327.319 72.2607C327.002 72.2891 326.686 72.1923 326.443 71.9917C326.199 71.7911 326.046 71.5031 326.018 71.191ZM322.906 76.8074C322.865 76.3393 323.013 75.8734 323.32 75.5123C323.626 75.1511 324.066 74.9243 324.541 74.8818C325.017 74.8392 325.489 74.9843 325.855 75.2853C326.221 75.5862 326.45 76.0183 326.492 76.4864C326.534 76.9546 326.385 77.4204 326.079 77.7816C325.772 78.1427 325.333 78.3695 324.857 78.4121C324.382 78.4546 323.909 78.3095 323.543 78.0086C323.177 77.7076 322.948 77.2756 322.906 76.8074Z" fill="#628BF7"/>
<path d="M336.471 81.1254C336.379 81.4475 336.335 81.727 336.306 81.9973L335.168 82.2181L335.411 83.539L336.406 83.3403C336.603 83.9736 336.976 84.3991 337.329 84.6521L336.554 85.7962L337.642 86.5494L338.539 85.217C339.359 85.5393 339.767 86.0096 339.965 86.4482L338.697 86.6947L338.94 88.0156L340.067 87.7848C339.979 88.2627 340.01 88.7541 340.155 89.2152L338.749 90.4316L339.6 91.4444L340.881 90.3317C341.143 90.566 341.478 90.786 341.906 90.9696L341.53 92.2965L342.799 92.6553L343.181 91.3026C343.659 91.3333 344.067 91.247 344.394 91.0822L345.579 93.2399L346.732 92.5782L345.396 90.1551C345.684 89.7215 345.795 89.3285 345.795 89.3285L347.063 89.6873L347.428 88.399L346.134 88.033C346.21 87.6164 346.274 87.1264 346.297 86.5835L348.186 86.4917L348.133 85.1547L346.263 85.2519C346.204 84.8803 346.133 84.4987 346.022 84.1192L347.821 83.522L347.419 82.2535L345.515 82.8836C345.262 82.4225 344.934 81.982 344.524 81.5668L345.481 80.5087L344.51 79.6078L343.511 80.7168L343.596 80.8034C343.052 80.4269 342.407 80.0914 341.634 79.8239L342.003 78.5162L340.735 78.1574L340.358 79.4908C339.859 79.4125 339.157 79.3529 338.466 79.4706L337.779 78.2188L336.626 78.8805L337.225 79.9823C336.892 80.2427 336.616 80.6101 336.471 81.1254ZM343.487 86.5887C343.74 86.6601 343.953 86.8303 344.08 87.062C344.207 87.2937 344.238 87.5678 344.165 87.8241C344.093 88.0803 343.923 88.2978 343.693 88.4285C343.464 88.5592 343.193 88.5926 342.941 88.5212C342.688 88.4499 342.475 88.2796 342.348 88.0479C342.221 87.8163 342.19 87.5422 342.263 87.2859C342.335 87.0296 342.505 86.8122 342.735 86.6815C342.964 86.5507 343.235 86.5174 343.487 86.5887ZM342.448 84.2077C342.617 84.2553 342.759 84.3688 342.843 84.5233C342.928 84.6777 342.949 84.8605 342.9 85.0313C342.852 85.2021 342.739 85.3471 342.586 85.4343C342.433 85.5214 342.252 85.5437 342.084 85.4961C341.916 85.4485 341.774 85.335 341.689 85.1805C341.604 85.0261 341.584 84.8434 341.632 84.6725C341.68 84.5017 341.793 84.3567 341.947 84.2696C342.1 84.1824 342.28 84.1602 342.448 84.2077ZM340.141 81.468C340.393 81.5393 340.607 81.7096 340.734 81.9412C340.861 82.1729 340.892 82.447 340.819 82.7033C340.747 82.9596 340.577 83.177 340.347 83.3077C340.117 83.4385 339.847 83.4718 339.594 83.4005C339.342 83.3291 339.129 83.1588 339.002 82.9272C338.875 82.6955 338.844 82.4214 338.916 82.1651C338.989 81.9088 339.159 81.6914 339.388 81.5607C339.618 81.4299 339.889 81.3966 340.141 81.468Z" fill="#6ADBC6"/>
<path d="M71.4961 -11.1367C70.3366 -11.7976 69.2966 -12.2368 68.2765 -12.6033L68.5412 -17.2721L63.1784 -17.5659L62.9692 -13.4794C60.3181 -13.302 58.3004 -12.2417 56.9715 -11.0959L53.2979 -15.2158L49.3045 -11.6592L53.5881 -6.88463C51.5301 -3.9747 49.3041 -2.81827 47.408 -2.45618L47.7016 -7.66103L42.3388 -7.95475L42.1238 -3.31906C40.3564 -4.11232 38.4205 -4.45639 36.4886 -4.32064L33.1555 -10.9786L28.3892 -8.5993L31.4433 -2.5301C30.276 -1.72189 29.0926 -0.615874 27.9594 0.887148L23.1823 -1.83562L20.541 2.7986L25.4109 5.57424C24.821 7.41764 24.754 9.09853 25.0705 10.5376L15.5346 13.1455L16.9655 18.2895L27.6792 15.3399C29.0783 16.8741 30.4929 17.6803 30.4929 17.6803L27.8516 22.3145L32.4896 24.958L35.1837 20.2311C36.7239 20.9248 38.5621 21.6347 40.645 22.2387L39.1399 29.7308L44.378 30.7823L45.8435 23.3597C47.3431 23.4777 48.8924 23.5625 50.4745 23.4819L51.0185 31.0982L56.3339 30.7203L55.7661 22.6606C57.8043 22.1032 59.8354 21.2348 61.8495 20.019L65.0109 24.7679L69.462 21.8098L66.1447 16.8493L65.7247 17.1011C67.7214 15.3228 69.6579 13.1111 71.4578 10.3304L76.1654 13.0135L78.8067 8.37925L74.0064 5.64327C74.8014 3.76331 75.7243 1.066 75.9486 -1.75321L81.4808 -3.26618L80.05 -8.41016L75.1861 -7.09953C74.5053 -8.65412 73.3513 -10.0793 71.4961 -11.1367ZM43.3929 11.2185C42.8675 12.1403 41.9971 12.8155 40.9733 13.0955C39.9494 13.3755 38.8559 13.2374 37.9334 12.7116C37.0108 12.1858 36.3348 11.3153 36.054 10.2917C35.7731 9.26806 35.9105 8.17513 36.4359 7.25333C36.9613 6.33152 37.8316 5.65635 38.8555 5.37635C39.8793 5.09635 40.9728 5.23444 41.8954 5.76026C42.8179 6.28608 43.494 7.15655 43.7748 8.18017C44.0557 9.20379 43.9183 10.2967 43.3929 11.2185ZM53.6515 9.39095C53.3012 10.0055 52.721 10.4556 52.0384 10.6423C51.3559 10.8289 50.6269 10.7369 50.0118 10.3863C49.3968 10.0358 48.9461 9.45547 48.7589 8.77305C48.5717 8.09064 48.6632 7.36202 49.0135 6.74748C49.3638 6.13295 49.944 5.68283 50.6266 5.49616C51.3091 5.3095 52.0381 5.40156 52.6532 5.7521C53.2682 6.10265 53.7189 6.68296 53.9061 7.36538C54.0933 8.04779 54.0017 8.77641 53.6515 9.39095ZM66.5514 2.92915C66.026 3.85095 65.1557 4.52612 64.1318 4.80612C63.108 5.08613 62.0145 4.94803 61.092 4.42221C60.1694 3.8964 59.4933 3.02593 59.2125 2.00231C58.9317 0.978685 59.0691 -0.114245 59.5945 -1.03605C60.1199 -1.95785 60.9902 -2.63302 62.0141 -2.91302C63.0379 -3.19303 64.1314 -3.05493 65.0539 -2.52911C65.9765 -2.0033 66.6525 -1.13283 66.9334 -0.109207C67.2142 0.914416 67.0768 2.00734 66.5514 2.92915Z" fill="#E99BF4"/>
<path d="M237.843 133.164C237.815 134.091 238.084 135.004 238.611 135.77C239.139 136.536 239.897 137.115 240.775 137.422C241.653 137.729 242.605 137.748 243.492 137.476C244.379 137.204 245.155 136.656 245.707 135.912C246.261 135.17 246.563 134.269 246.568 133.341C246.574 132.413 246.282 131.507 245.735 130.754C245.189 130.001 244.417 129.441 243.532 129.156C242.646 128.871 241.694 128.876 240.814 129.17L239.169 127.946C241.502 124.811 242.623 121.209 242.586 117.49L247.265 116.814C248.239 117.849 249.62 118.38 251.092 118.203C253.461 117.824 255.11 115.608 254.806 113.21C254.417 110.843 252.191 109.187 249.791 109.48C248.33 109.727 247.163 110.626 246.531 111.894L241.853 112.57C241.033 109.82 239.55 107.29 237.416 105.175L239.496 102.379C240.424 102.411 241.338 102.146 242.102 101.622C242.867 101.099 243.443 100.344 243.747 99.4683C244.051 98.5927 244.066 97.6418 243.79 96.7546C243.514 95.8674 242.962 95.0902 242.214 94.5365C241.469 93.9794 240.566 93.6741 239.637 93.665C238.708 93.656 237.801 93.9437 237.05 94.4861C236.298 95.0286 235.741 95.7974 235.46 96.6805C235.178 97.5635 235.187 98.5145 235.484 99.3947L233.404 102.19C231.406 101.107 229.291 100.433 227.113 100.178L227.248 95.3462C228.402 94.5912 229.193 93.3185 229.224 91.8526C229.24 91.2792 229.143 90.7078 228.937 90.1712C228.732 89.6346 228.423 89.1432 228.027 88.7253C227.632 88.3073 227.159 87.971 226.634 87.7356C226.109 87.5001 225.543 87.3702 224.969 87.3532C222.568 87.2727 220.547 89.151 220.497 91.5642C220.451 93.05 221.147 94.375 222.251 95.1956L222.121 100.311C220.62 100.528 219.225 100.979 217.856 101.605C217.407 100.889 216.761 100.316 215.996 99.9559C215.23 99.5956 214.378 99.463 213.541 99.5738C211.157 99.9719 209.523 102.169 209.827 104.566C210.007 105.538 210.472 106.38 211.09 107.057C210.288 108.135 209.655 109.278 209.133 110.441L205.986 109.185C205.663 107.859 204.723 106.694 203.337 106.128C202.257 105.703 201.053 105.723 199.992 106.184C198.93 106.645 198.097 107.509 197.676 108.587C197.255 109.664 197.28 110.866 197.746 111.928C198.212 112.99 199.081 113.826 200.161 114.251C201.542 114.782 203.028 114.585 204.162 113.815L207.799 115.249C207.528 117.498 207.692 119.791 208.234 121.994L203.057 124.347C201.835 123.686 200.371 123.559 199.002 124.184C198.483 124.426 198.017 124.767 197.631 125.188C197.245 125.61 196.946 126.104 196.751 126.642C196.556 127.18 196.47 127.751 196.496 128.323C196.523 128.895 196.662 129.457 196.905 129.977C197.149 130.496 197.493 130.963 197.916 131.35C198.34 131.738 198.836 132.039 199.375 132.235C199.915 132.432 200.487 132.521 201.06 132.497C201.633 132.473 202.195 132.336 202.714 132.095C204.048 131.474 204.919 130.261 205.146 128.91L210.218 126.572C211.367 128.42 212.865 130.093 214.73 131.48L215.091 131.749C214.444 132.074 213.898 132.598 213.423 133.237C212.142 135.294 212.758 137.985 214.787 139.278C216.816 140.57 219.543 139.962 220.829 137.941C221.492 136.883 221.644 135.631 221.353 134.515C222.607 134.796 223.911 134.929 225.214 134.936L226.431 143.101C225.398 144.07 224.873 145.447 225.056 146.917C225.465 149.3 227.671 150.941 230.07 150.648C232.47 150.354 234.088 148.053 233.784 145.655C233.531 144.195 232.625 143.025 231.354 142.389L230.137 134.225C232.085 133.658 233.947 132.747 235.617 131.507L237.843 133.164ZM222.121 115.263C220.456 114.025 220.108 111.687 221.341 110.03C222.574 108.372 224.913 108.034 226.578 109.272C228.243 110.511 228.591 112.849 227.358 114.506C226.125 116.164 223.786 116.502 222.121 115.263ZM224.684 126.477C223.581 125.656 223.347 124.086 224.164 122.988C224.981 121.889 226.552 121.662 227.655 122.483C228.759 123.303 228.993 124.873 228.175 125.972C227.358 127.07 225.787 127.297 224.684 126.477Z" fill="#00EC6D"/>
<path d="M412.303 -12.0297C411.461 -11.9127 410.534 -11.3771 409.611 -10.2179C404.31 0.300037 408.637 6.87165 414.295 18.3602C420.439 30.8335 418.33 40.417 402.975 38.5351L406.079 44.8053C424.284 44.629 425.773 31.1562 421.593 20.3884C415.879 5.66792 410.622 2.69064 415.541 -8.13494C416.045 -9.8926 414.455 -12.3284 412.303 -12.0295M419.3 -6.2911C418.229 -5.40064 417.969 -4.37317 418.269 -2.23711C423.689 1.0046 428.658 6.01746 432.492 9.49413C431.423 10.3885 430.048 11.2767 428.393 11.338C426.54 9.45645 421.746 5.33081 418.299 2.92827C418.962 5.50468 419.987 7.33517 420.567 9.56588C426.091 14.0754 426.769 16.7156 426.769 16.7156C432.857 16.0538 437.527 12.5999 440.434 8.99059C442.014 7.12135 438.765 3.26234 435.964 6.71815C430.663 1.93281 425.24 -2.63626 419.3 -6.2911ZM401.601 10.1362C392.118 11.5462 386.518 19.8608 388.492 29.1853C390.552 37.2951 395.127 42.089 396.788 48.6404L391.987 44.6969C390.37 44.7774 388.942 44.783 387.379 46.0061L397.405 53.7113C397.397 55.1433 397.243 56.6775 396.907 58.3489C393.036 55.6604 388.312 51.454 383.231 47.4618C380.818 48.4191 379.668 50.0582 379.649 50.1049L395.678 62.6569C392.765 67.1499 399.297 68.8344 401.566 65.2354C409.325 52.5728 399.857 40.5721 394.699 28.4045L402.871 34.8633C405.54 35.8164 408.816 35.2507 409.914 34.3106L394.327 22.5481C394.77 20.8952 395.436 20.394 396.967 19.3046L412.175 30.8075C412.751 29.124 413.741 27.4464 411.655 24.3815L401.668 16.3459C403.038 15.6279 406.409 16.1231 409.049 16.5065L405.891 9.97193C404.389 9.87431 402.955 9.93486 401.601 10.1363M384.511 37.5354C377.849 38.5328 374.636 41.8572 371.944 45.1207C369.536 48.0592 373.806 52.0331 376.608 49.1919C380.02 44.9972 383.075 42.582 389.513 42.0168L387.585 37.2575C386.484 37.298 385.462 37.3931 384.511 37.5356" fill="#968FF0"/>
</g>
<defs>
<clipPath id="clip0_601_2348">
<rect width="428" height="122" rx="20" fill="white"/>
</clipPath>
</defs>
</svg>
