<svg width="428" height="122" viewBox="0 0 428 122" fill="none" xmlns="http://www.w3.org/2000/svg">
<g clip-path="url(#clip0_290_146)">
<rect width="428" height="122" rx="20" fill="white"/>
<path d="M378 69.2C378 67.5557 378.653 65.9787 379.816 64.8159C380.979 63.6532 382.556 63 384.2 63H433.8C435.444 63 437.021 63.6532 438.184 64.8159C439.347 65.9787 440 67.5557 440 69.2V103.3C440 104.944 439.347 106.521 438.184 107.684C437.021 108.847 435.444 109.5 433.8 109.5H412.1V115.7H421.4C422.222 115.7 423.011 116.027 423.592 116.608C424.173 117.189 424.5 117.978 424.5 118.8C424.5 119.622 424.173 120.411 423.592 120.992C423.011 121.573 422.222 121.9 421.4 121.9H396.6C395.778 121.9 394.989 121.573 394.408 120.992C393.827 120.411 393.5 119.622 393.5 118.8C393.5 117.978 393.827 117.189 394.408 116.608C394.989 116.027 395.778 115.7 396.6 115.7H405.9V109.5H384.2C382.556 109.5 380.979 108.847 379.816 107.684C378.653 106.521 378 104.944 378 103.3V69.2ZM433.8 103.3V69.2H384.2V103.3H433.8Z" fill="#968FF0"/>
<path d="M49.3285 19.5812L37.8528 23.0897C36.2683 23.5741 35.3766 25.2513 35.861 26.8357L39.3695 38.3114C39.8539 39.8958 41.531 40.7876 43.1155 40.3032L54.5912 36.7947C56.1756 36.3103 57.0674 34.6331 56.583 33.0487L53.0745 21.573C52.5901 19.9886 50.9129 19.0968 49.3285 19.5812Z" stroke="#00EC6D" stroke-width="2" stroke-linecap="round" stroke-linejoin="round"/>
<path d="M9.16391 31.8609L-2.31175 35.3693C-3.89621 35.8538 -4.78797 37.5309 -4.30355 39.1154L-0.795087 50.591C-0.310669 52.1755 1.36649 53.0673 2.95094 52.5828L14.4266 49.0744C16.0111 48.59 16.9028 46.9128 16.4184 45.3283L12.9099 33.8527C12.4255 32.2682 10.7484 31.3765 9.16391 31.8609Z" stroke="#00EC6D" stroke-width="2" stroke-linecap="round" stroke-linejoin="round"/>
<path d="M16.9674 -14.4437L5.49172 -10.9352C3.90726 -10.4508 3.0155 -8.77365 3.49992 -7.18919L7.00838 4.28647C7.4928 5.87093 9.16995 6.76269 10.7544 6.27827L22.2301 2.76981C23.8145 2.28539 24.7063 0.608238 24.2219 -0.976221L20.7134 -12.4519C20.229 -14.0363 18.5518 -14.9281 16.9674 -14.4437Z" stroke="#00EC6D" stroke-width="2" stroke-linecap="round" stroke-linejoin="round"/>
<path d="M3.42561 33.6159L0.794267 25.0091C0.561641 24.2482 0.640804 23.4261 1.01434 22.7236C1.38787 22.0211 2.02518 21.4957 2.78607 21.2631L37.213 10.7377C37.9739 10.5051 38.7961 10.5842 39.4986 10.9578C40.2011 11.3313 40.7264 11.9686 40.9591 12.7295L43.5904 21.3363M19.9996 16.0004L16.4911 4.52475" stroke="#00EC6D" stroke-width="2" stroke-linecap="round" stroke-linejoin="round"/>
<path d="M156.97 10.8667L158.968 10.9714L158.863 12.9686L156.866 12.864L156.97 10.8667Z" fill="#6ADBC6"/>
<path d="M160.979 10.5525L174.959 11.2852L174.855 13.2825L160.874 12.5497L160.979 10.5525Z" fill="#6ADBC6"/>
<path d="M156.97 18.8667L158.968 18.9714L158.863 20.9686L156.866 20.864L156.97 18.8667Z" fill="#6ADBC6"/>
<path d="M160.979 18.5525L174.959 19.2852L174.855 21.2825L160.874 20.5497L160.979 18.5525Z" fill="#6ADBC6"/>
<path d="M183.578 7.66835L155.616 6.20294C155.086 6.17518 154.567 6.35898 154.173 6.71391C153.779 7.06884 153.542 7.56582 153.514 8.09553L152.363 30.0654C152.335 30.5951 152.519 31.1141 152.874 31.5083C153.228 31.9025 153.725 32.1395 154.255 32.1673L182.217 33.6327C182.747 33.6605 183.266 33.4767 183.66 33.1217C184.054 32.7668 184.291 32.2698 184.319 31.7401L185.47 9.77028C185.498 9.24057 185.314 8.72153 184.959 8.32734C184.604 7.93315 184.107 7.69611 183.578 7.66835ZM155.511 8.2002L183.473 9.6656L183.159 15.6574L155.197 14.192L155.511 8.2002ZM155.093 16.1892L183.054 17.6546L182.74 23.6464L154.779 22.181L155.093 16.1892ZM154.36 30.17L154.674 24.1783L182.635 25.6437L182.321 31.6355L154.36 30.17Z" fill="#628BF7"/>
<path d="M156.97 26.8667L158.968 26.9714L158.863 28.9686L156.866 28.864L156.97 26.8667Z" fill="#6ADBC6"/>
<path d="M160.979 26.5525L174.959 27.2852L174.855 29.2825L160.874 28.5497L160.979 26.5525Z" fill="#6ADBC6"/>
<path d="M115 94.2515C115 92.3284 114.236 90.4841 112.876 89.1242C111.516 87.7644 109.672 87.0005 107.749 87.0005C105.826 87.0005 103.982 87.7644 102.622 89.1242C101.262 90.4841 100.498 92.3284 100.498 94.2515C98.9551 94.251 97.4397 94.6609 96.1073 95.4391C94.7749 96.2173 93.6734 97.3358 92.9157 98.68C92.158 100.024 91.7714 101.546 91.7955 103.088C91.8196 104.631 92.2535 106.14 93.0528 107.46C91.0676 107.843 89.2778 108.906 87.9909 110.466C86.7039 112.025 86 113.984 86 116.006C86 118.028 86.7039 119.987 87.9909 121.546C89.2778 123.105 91.0676 124.168 93.0528 124.552C92.2542 125.872 91.8209 127.38 91.7972 128.922C91.7735 130.465 92.1602 131.986 92.9178 133.329C93.6754 134.673 94.7766 135.791 96.1086 136.569C97.4406 137.347 98.9555 137.757 100.498 137.757C100.498 139.68 101.263 141.524 102.623 142.884C103.983 144.244 105.827 145.007 107.75 145.007C109.674 145.006 111.518 144.242 112.877 142.882C114.237 141.522 115 139.677 115 137.754" stroke="#E99BF4" stroke-width="1.5" stroke-linecap="round" stroke-linejoin="round"/>
<path d="M115 137.758C115 139.681 115.764 141.526 117.124 142.885C118.484 144.245 120.328 145.009 122.251 145.009C124.174 145.009 126.018 144.245 127.378 142.885C128.738 141.526 129.502 139.681 129.502 137.758C131.045 137.758 132.559 137.348 133.891 136.57C135.223 135.792 136.325 134.674 137.082 133.33C137.84 131.987 138.227 130.466 138.203 128.923C138.179 127.381 137.746 125.873 136.947 124.553C138.932 124.169 140.722 123.106 142.009 121.547C143.296 119.988 144 118.029 144 116.007C144 113.985 143.296 112.026 142.009 110.467C140.722 108.907 138.932 107.844 136.947 107.461C137.747 106.141 138.18 104.632 138.205 103.089C138.229 101.547 137.842 100.025 137.084 98.6809C136.327 97.3368 135.225 96.2183 133.893 95.4401C132.56 94.6619 131.045 94.252 129.502 94.2524C129.502 93.3002 129.315 92.3573 128.951 91.4775C128.586 90.5977 128.052 89.7982 127.379 89.1248C126.706 88.4513 125.907 87.9171 125.027 87.5525C124.147 87.1879 123.205 87.0002 122.252 87C120.329 86.9996 118.485 87.7632 117.125 89.1227C115.765 90.4823 115 92.3264 115 94.2495" stroke="#E99BF4" stroke-width="1.5" stroke-linecap="round" stroke-linejoin="round"/>
<path d="M110.613 101.506V107.246M100.5 111.657H106.451M123.769 111.657H129.721M123.769 120.283H129.721M100.5 120.283H106.451M110.613 124.764V130.507M119.387 124.764V130.507M119.361 101.503V107.246M109.354 124.616H120.872C121.641 124.616 122.379 124.31 122.923 123.766C123.467 123.223 123.772 122.485 123.772 121.716V110.146C123.772 109.377 123.467 108.639 122.923 108.095C122.379 107.551 121.641 107.246 120.872 107.246H109.354C108.585 107.246 107.847 107.551 107.304 108.095C106.76 108.639 106.454 109.377 106.454 110.146V121.716C106.454 122.485 106.76 123.223 107.304 123.766C107.847 124.31 108.585 124.616 109.354 124.616Z" stroke="#E99BF4" stroke-width="1.5" stroke-linecap="round" stroke-linejoin="round"/>
<path d="M322.64 -5.02897C322.923 -6.08215 323.612 -6.9801 324.556 -7.52526C325.5 -8.07043 326.622 -8.21817 327.675 -7.93597L347.495 -2.62537C348.548 -2.34297 349.446 -1.65385 349.991 -0.709589L355.831 9.40585C356.376 10.3499 356.524 11.472 356.242 12.5251L348.803 40.2866C348.521 41.3398 347.832 42.2377 346.888 42.7829C345.944 43.3281 344.821 43.4758 343.768 43.1936L315.971 35.7453C314.918 35.4631 314.02 34.7741 313.475 33.8299C312.93 32.8856 312.782 31.7635 313.064 30.7103L322.64 -5.02897ZM326.877 -4.95769C326.614 -5.02824 326.334 -4.99131 326.097 -4.85502C325.861 -4.71873 325.689 -4.49424 325.619 -4.23095L316.042 31.5083C315.972 31.7716 316.009 32.0521 316.145 32.2882C316.281 32.5243 316.506 32.6965 316.769 32.7671L344.566 40.2153C344.83 40.2859 345.11 40.2489 345.346 40.1126C345.582 39.9763 345.754 39.7519 345.825 39.4886L352.475 14.6696L344.533 12.5416C343.48 12.2594 342.582 11.5704 342.037 10.6261C341.492 9.68184 341.344 8.55969 341.626 7.50651L343.754 -0.43555L326.877 -4.95769ZM346.732 0.362476L344.604 8.30453C344.534 8.56783 344.571 8.84837 344.707 9.08443C344.843 9.32049 345.068 9.49275 345.331 9.5633L353.273 11.6914C353.332 11.438 353.292 11.1718 353.162 10.9466L347.322 0.831118C347.192 0.605955 346.981 0.438489 346.732 0.362476Z" fill="#E99BF4"/>
<path d="M244.541 85.3662C240.478 86.2297 236.763 88.2786 233.865 91.2537C230.967 94.2287 229.016 97.9964 228.259 102.08C227.502 106.164 227.973 110.381 229.613 114.197C231.252 118.013 233.986 121.257 237.47 123.519C240.953 125.781 245.029 126.96 249.182 126.905C253.335 126.851 257.379 125.566 260.802 123.214C264.225 120.861 266.873 117.547 268.412 113.689C269.951 109.831 270.312 105.604 269.448 101.541C268.284 96.0966 265.008 91.336 260.339 88.3037C255.67 85.2714 249.988 84.215 244.541 85.3662ZM263.707 94.7631L255.576 96.4915C253.812 92.9617 251.304 89.8562 248.225 87.3888C251.208 87.2846 254.173 87.9004 256.867 89.1839C259.562 90.4675 261.908 92.3811 263.707 94.7631ZM267.032 102.055C267.41 103.828 267.525 105.648 267.373 107.455L258.843 109.268C258.694 105.677 257.942 102.137 256.617 98.796L265.148 96.9827C266.021 98.5717 266.656 100.281 267.032 102.055ZM252.667 123.595C251.251 122.655 249.946 121.559 248.775 120.328C247.196 118.669 245.847 116.805 244.764 114.786L256.303 112.333C256.135 114.618 255.661 116.869 254.893 119.028C254.325 120.629 253.578 122.161 252.667 123.595ZM243.667 112.494C242.273 109.174 241.518 105.621 241.441 102.022L254.148 99.3208C255.541 102.641 256.296 106.193 256.374 109.793L243.667 112.494ZM230.783 109.76C230.404 107.986 230.289 106.167 230.441 104.36L238.972 102.547C239.12 106.137 239.873 109.678 241.198 113.019L232.667 114.832C231.793 113.243 231.158 111.534 230.783 109.76ZM245.148 88.2198C246.563 89.1592 247.869 90.255 249.039 91.4864C250.618 93.1457 251.968 95.0097 253.05 97.0283L241.511 99.4811C241.679 97.1966 242.153 94.945 242.921 92.7869C243.49 91.1858 244.237 89.6538 245.148 88.2198ZM241.998 88.7124C240.189 92.2189 239.161 96.0759 238.986 100.018L230.854 101.746C231.528 98.8386 232.893 96.1361 234.833 93.8674C236.773 91.5987 239.231 89.8305 241.998 88.7124ZM234.107 117.051L242.239 115.323C244.002 118.853 246.51 121.958 249.589 124.426C246.606 124.53 243.642 123.914 240.947 122.631C238.252 121.347 235.906 119.433 234.107 117.051ZM255.81 123.103C257.622 119.597 258.652 115.739 258.829 111.797L266.961 110.068C266.286 112.976 264.921 115.678 262.981 117.947C261.041 120.216 258.584 121.984 255.816 123.102L255.81 123.103Z" fill="#6ADBC6"/>
</g>
<defs>
<clipPath id="clip0_290_146">
<rect width="428" height="122" rx="20" fill="white"/>
</clipPath>
</defs>
</svg>
