<svg width="428" height="122" viewBox="0 0 428 122" fill="none" xmlns="http://www.w3.org/2000/svg">
<g clip-path="url(#clip0_290_146)">
<rect width="428" height="122" rx="20" fill="white"/>
<path d="M67.9929 56.652H63.2116C63.0753 55.8679 62.8239 55.1733 62.4574 54.5682C62.0909 53.9545 61.6349 53.4347 61.0895 53.0085C60.544 52.5824 59.9219 52.2628 59.223 52.0497C58.5327 51.8281 57.7869 51.7173 56.9858 51.7173C55.5625 51.7173 54.3011 52.0753 53.2017 52.7912C52.1023 53.4986 51.2415 54.5384 50.6193 55.9105C49.9972 57.2741 49.6861 58.9403 49.6861 60.9091C49.6861 62.9119 49.9972 64.5994 50.6193 65.9716C51.25 67.3352 52.1108 68.3665 53.2017 69.0653C54.3011 69.7557 55.5582 70.1009 56.973 70.1009C57.7571 70.1009 58.4901 69.9986 59.1719 69.794C59.8622 69.581 60.4801 69.2699 61.0256 68.8608C61.5795 68.4517 62.044 67.9489 62.419 67.3523C62.8026 66.7557 63.0668 66.0739 63.2116 65.3068L67.9929 65.3324C67.8139 66.5767 67.4261 67.7443 66.8295 68.8352C66.2415 69.9261 65.4702 70.8892 64.5156 71.7244C63.5611 72.5511 62.4446 73.1989 61.1662 73.6676C59.8878 74.1278 58.4688 74.358 56.9091 74.358C54.608 74.358 52.554 73.8253 50.7472 72.7599C48.9403 71.6946 47.517 70.1562 46.4773 68.1449C45.4375 66.1335 44.9176 63.7216 44.9176 60.9091C44.9176 58.0881 45.4418 55.6761 46.4901 53.6733C47.5384 51.6619 48.9659 50.1236 50.7727 49.0582C52.5795 47.9929 54.625 47.4602 56.9091 47.4602C58.3665 47.4602 59.7216 47.6648 60.9744 48.0739C62.2273 48.483 63.3438 49.0838 64.3239 49.8764C65.304 50.6605 66.1094 51.6236 66.7401 52.7656C67.3793 53.8991 67.7969 55.1946 67.9929 56.652ZM80.6971 74.3835C78.7795 74.3835 77.1175 73.9616 75.7113 73.1179C74.305 72.2741 73.2141 71.0937 72.4386 69.5767C71.6715 68.0597 71.288 66.2869 71.288 64.2585C71.288 62.2301 71.6715 60.4531 72.4386 58.9276C73.2141 57.402 74.305 56.2173 75.7113 55.3736C77.1175 54.5298 78.7795 54.108 80.6971 54.108C82.6147 54.108 84.2766 54.5298 85.6829 55.3736C87.0891 56.2173 88.1758 57.402 88.9428 58.9276C89.7184 60.4531 90.1062 62.2301 90.1062 64.2585C90.1062 66.2869 89.7184 68.0597 88.9428 69.5767C88.1758 71.0937 87.0891 72.2741 85.6829 73.1179C84.2766 73.9616 82.6147 74.3835 80.6971 74.3835ZM80.7227 70.6761C81.7624 70.6761 82.6317 70.3906 83.3306 69.8196C84.0295 69.2401 84.5494 68.4645 84.8903 67.4929C85.2397 66.5213 85.4144 65.4389 85.4144 64.2457C85.4144 63.044 85.2397 61.9574 84.8903 60.9858C84.5494 60.0057 84.0295 59.2259 83.3306 58.6463C82.6317 58.0668 81.7624 57.777 80.7227 57.777C79.6573 57.777 78.771 58.0668 78.0636 58.6463C77.3647 59.2259 76.8406 60.0057 76.4911 60.9858C76.1502 61.9574 75.9798 63.044 75.9798 64.2457C75.9798 65.4389 76.1502 66.5213 76.4911 67.4929C76.8406 68.4645 77.3647 69.2401 78.0636 69.8196C78.771 70.3906 79.6573 70.6761 80.7227 70.6761ZM94.0341 74V54.3636H98.4574V57.7003H98.6875C99.0966 56.5753 99.7741 55.6974 100.72 55.0668C101.666 54.4276 102.795 54.108 104.108 54.108C105.438 54.108 106.558 54.4318 107.47 55.0795C108.391 55.7187 109.038 56.5923 109.413 57.7003H109.618C110.053 56.6094 110.786 55.7401 111.817 55.0923C112.857 54.4361 114.088 54.108 115.511 54.108C117.318 54.108 118.793 54.679 119.935 55.821C121.077 56.9631 121.648 58.6293 121.648 60.8196V74H117.007V61.5355C117.007 60.3168 116.683 59.4261 116.036 58.8636C115.388 58.2926 114.595 58.0071 113.658 58.0071C112.541 58.0071 111.668 58.3565 111.037 59.0554C110.415 59.7457 110.104 60.6449 110.104 61.7528V74H105.565V61.3438C105.565 60.3295 105.259 59.5199 104.645 58.9148C104.04 58.3097 103.247 58.0071 102.267 58.0071C101.602 58.0071 100.997 58.1776 100.452 58.5185C99.9063 58.8509 99.4716 59.3239 99.1477 59.9375C98.8239 60.5426 98.6619 61.25 98.6619 62.0597V74H94.0341ZM126.343 81.3636V54.3636H130.894V57.6108H131.162C131.401 57.1335 131.738 56.6264 132.172 56.0895C132.607 55.544 133.195 55.0795 133.936 54.696C134.678 54.304 135.624 54.108 136.775 54.108C138.292 54.108 139.659 54.4957 140.878 55.2713C142.105 56.0384 143.077 57.1761 143.793 58.6847C144.517 60.1847 144.88 62.0256 144.88 64.2074C144.88 66.3636 144.526 68.196 143.819 69.7045C143.111 71.2131 142.148 72.3636 140.929 73.1562C139.711 73.9489 138.33 74.3452 136.787 74.3452C135.662 74.3452 134.729 74.1577 133.988 73.7827C133.246 73.4077 132.65 72.956 132.198 72.4276C131.755 71.8906 131.409 71.3835 131.162 70.9062H130.971V81.3636H126.343ZM130.881 64.1818C130.881 65.4517 131.06 66.5639 131.418 67.5185C131.784 68.473 132.309 69.2187 132.99 69.7557C133.681 70.2841 134.516 70.5483 135.496 70.5483C136.519 70.5483 137.375 70.2756 138.066 69.7301C138.756 69.1761 139.276 68.4219 139.625 67.4673C139.983 66.5043 140.162 65.4091 140.162 64.1818C140.162 62.9631 139.988 61.8807 139.638 60.9347C139.289 59.9886 138.769 59.2472 138.078 58.7102C137.388 58.1733 136.527 57.9048 135.496 57.9048C134.507 57.9048 133.668 58.1648 132.978 58.6847C132.287 59.2045 131.763 59.9332 131.405 60.8707C131.056 61.8082 130.881 62.9119 130.881 64.1818ZM161.358 65.7415V54.3636H165.986V74H161.499V70.5099H161.294C160.851 71.6094 160.123 72.5085 159.108 73.2074C158.103 73.9062 156.863 74.2557 155.388 74.2557C154.101 74.2557 152.963 73.9702 151.975 73.3991C150.995 72.8196 150.228 71.9801 149.674 70.8807C149.12 69.7727 148.843 68.4347 148.843 66.8665V54.3636H153.471V66.1506C153.471 67.3949 153.811 68.3835 154.493 69.1165C155.175 69.8494 156.07 70.2159 157.178 70.2159C157.86 70.2159 158.52 70.0497 159.159 69.7173C159.799 69.3849 160.323 68.8906 160.732 68.2344C161.15 67.5696 161.358 66.7386 161.358 65.7415ZM180.55 54.3636V57.9432H169.262V54.3636H180.55ZM172.049 49.6591H176.677V68.0938C176.677 68.7159 176.771 69.1932 176.958 69.5256C177.154 69.8494 177.41 70.071 177.725 70.1903C178.04 70.3097 178.39 70.3693 178.773 70.3693C179.063 70.3693 179.327 70.348 179.566 70.3054C179.813 70.2628 180.001 70.2244 180.129 70.1903L180.908 73.8082C180.661 73.8935 180.308 73.9872 179.847 74.0895C179.396 74.1918 178.842 74.2514 178.185 74.2685C177.026 74.3026 175.982 74.1278 175.053 73.7443C174.124 73.3523 173.387 72.7472 172.842 71.929C172.305 71.1108 172.04 70.0881 172.049 68.8608V49.6591ZM192.903 74.3835C190.934 74.3835 189.234 73.9744 187.802 73.1562C186.379 72.3295 185.284 71.1619 184.517 69.6534C183.75 68.1364 183.366 66.3509 183.366 64.2969C183.366 62.277 183.75 60.5043 184.517 58.9787C185.292 57.4446 186.375 56.2514 187.764 55.3991C189.153 54.5384 190.785 54.108 192.66 54.108C193.87 54.108 195.012 54.304 196.086 54.696C197.169 55.0795 198.123 55.6761 198.95 56.4858C199.785 57.2955 200.441 58.3267 200.919 59.5795C201.396 60.8239 201.635 62.3068 201.635 64.0284V65.4474H185.539V62.3281H197.199C197.19 61.4418 196.998 60.6534 196.623 59.9631C196.248 59.2642 195.724 58.7145 195.051 58.3139C194.386 57.9134 193.61 57.7131 192.724 57.7131C191.778 57.7131 190.947 57.9432 190.231 58.4034C189.515 58.8551 188.957 59.4517 188.556 60.1932C188.164 60.9261 187.964 61.7315 187.956 62.6094V65.3324C187.956 66.4744 188.164 67.4545 188.582 68.2727C189 69.0824 189.583 69.7045 190.333 70.1392C191.083 70.5653 191.961 70.7784 192.967 70.7784C193.64 70.7784 194.25 70.6847 194.795 70.4972C195.341 70.3011 195.814 70.0156 196.214 69.6406C196.615 69.2656 196.917 68.8011 197.122 68.2472L201.443 68.733C201.17 69.875 200.65 70.8722 199.883 71.7244C199.125 72.5682 198.153 73.2244 196.968 73.6932C195.784 74.1534 194.429 74.3835 192.903 74.3835ZM205.55 74V54.3636H210.037V57.6364H210.241C210.599 56.5028 211.213 55.6293 212.082 55.0156C212.96 54.3935 213.962 54.0824 215.087 54.0824C215.342 54.0824 215.628 54.0952 215.943 54.1207C216.267 54.1378 216.536 54.1676 216.749 54.2102V58.4673C216.553 58.3991 216.241 58.3395 215.815 58.2884C215.398 58.2287 214.993 58.1989 214.601 58.1989C213.757 58.1989 212.999 58.3821 212.325 58.7486C211.661 59.1065 211.136 59.6051 210.753 60.2443C210.369 60.8835 210.178 61.6207 210.178 62.456V74H205.55ZM243.186 55.0156C243.067 53.8991 242.564 53.0298 241.678 52.4077C240.8 51.7855 239.658 51.4744 238.251 51.4744C237.263 51.4744 236.415 51.6236 235.707 51.9219C235 52.2202 234.459 52.625 234.084 53.1364C233.709 53.6477 233.517 54.2315 233.509 54.8878C233.509 55.4332 233.632 55.9062 233.879 56.3068C234.135 56.7074 234.48 57.0483 234.915 57.3295C235.349 57.6023 235.831 57.8324 236.359 58.0199C236.888 58.2074 237.42 58.3651 237.957 58.4929L240.412 59.1065C241.401 59.3366 242.351 59.6477 243.263 60.0398C244.183 60.4318 245.006 60.9261 245.73 61.5227C246.463 62.1193 247.043 62.8395 247.469 63.6832C247.895 64.527 248.108 65.5156 248.108 66.6491C248.108 68.1832 247.716 69.5341 246.932 70.7017C246.148 71.8608 245.014 72.7685 243.531 73.4247C242.057 74.0724 240.271 74.3963 238.175 74.3963C236.138 74.3963 234.369 74.081 232.869 73.4503C231.378 72.8196 230.21 71.8991 229.366 70.6889C228.531 69.4787 228.08 68.0043 228.011 66.2656H232.678C232.746 67.1776 233.027 67.9361 233.521 68.5412C234.016 69.1463 234.659 69.598 235.452 69.8963C236.253 70.1946 237.148 70.3438 238.136 70.3438C239.168 70.3438 240.071 70.1903 240.847 69.8835C241.631 69.5682 242.244 69.1335 242.688 68.5795C243.131 68.017 243.357 67.3608 243.365 66.6108C243.357 65.929 243.156 65.3665 242.764 64.9233C242.372 64.4716 241.822 64.0966 241.115 63.7983C240.416 63.4915 239.598 63.2187 238.661 62.9801L235.682 62.2131C233.526 61.6591 231.821 60.8196 230.568 59.6946C229.324 58.5611 228.702 57.0568 228.702 55.1818C228.702 53.6392 229.119 52.2884 229.955 51.1293C230.798 49.9702 231.945 49.071 233.393 48.4318C234.842 47.7841 236.483 47.4602 238.315 47.4602C240.173 47.4602 241.801 47.7841 243.199 48.4318C244.605 49.071 245.709 49.9616 246.51 51.1037C247.311 52.2372 247.724 53.5412 247.75 55.0156H243.186ZM260.697 74.3835C258.737 74.3835 257.054 73.9531 255.647 73.0923C254.25 72.2315 253.172 71.0426 252.413 69.5256C251.663 68 251.288 66.2443 251.288 64.2585C251.288 62.2642 251.672 60.5043 252.439 58.9787C253.206 57.4446 254.288 56.2514 255.686 55.3991C257.092 54.5384 258.754 54.108 260.672 54.108C262.265 54.108 263.676 54.402 264.903 54.9901C266.139 55.5696 267.123 56.392 267.856 57.4574C268.589 58.5142 269.007 59.75 269.109 61.1648H264.686C264.507 60.2187 264.081 59.4304 263.407 58.7997C262.743 58.1605 261.852 57.8409 260.735 57.8409C259.789 57.8409 258.958 58.0966 258.243 58.608C257.527 59.1108 256.968 59.8352 256.568 60.7812C256.176 61.7273 255.98 62.8608 255.98 64.1818C255.98 65.5199 256.176 66.6705 256.568 67.6335C256.96 68.5881 257.51 69.3253 258.217 69.8452C258.933 70.3565 259.772 70.6122 260.735 70.6122C261.417 70.6122 262.027 70.4844 262.564 70.2287C263.109 69.9645 263.565 69.5852 263.931 69.0909C264.298 68.5966 264.549 67.9957 264.686 67.2884H269.109C268.998 68.6776 268.589 69.9091 267.882 70.983C267.174 72.0483 266.211 72.8835 264.993 73.4886C263.774 74.0852 262.342 74.3835 260.697 74.3835ZM272.909 74V54.3636H277.537V74H272.909ZM275.236 51.5767C274.503 51.5767 273.872 51.3338 273.344 50.848C272.815 50.3537 272.551 49.7614 272.551 49.071C272.551 48.3722 272.815 47.7798 273.344 47.294C273.872 46.7997 274.503 46.5526 275.236 46.5526C275.977 46.5526 276.608 46.7997 277.128 47.294C277.656 47.7798 277.92 48.3722 277.92 49.071C277.92 49.7614 277.656 50.3537 277.128 50.848C276.608 51.3338 275.977 51.5767 275.236 51.5767ZM290.989 74.3835C289.02 74.3835 287.32 73.9744 285.888 73.1562C284.465 72.3295 283.37 71.1619 282.603 69.6534C281.836 68.1364 281.452 66.3509 281.452 64.2969C281.452 62.277 281.836 60.5043 282.603 58.9787C283.378 57.4446 284.461 56.2514 285.85 55.3991C287.239 54.5384 288.871 54.108 290.746 54.108C291.956 54.108 293.098 54.304 294.172 54.696C295.255 55.0795 296.209 55.6761 297.036 56.4858C297.871 57.2955 298.527 58.3267 299.005 59.5795C299.482 60.8239 299.721 62.3068 299.721 64.0284V65.4474H283.625V62.3281H295.284C295.276 61.4418 295.084 60.6534 294.709 59.9631C294.334 59.2642 293.81 58.7145 293.137 58.3139C292.472 57.9134 291.696 57.7131 290.81 57.7131C289.864 57.7131 289.033 57.9432 288.317 58.4034C287.601 58.8551 287.043 59.4517 286.642 60.1932C286.25 60.9261 286.05 61.7315 286.042 62.6094V65.3324C286.042 66.4744 286.25 67.4545 286.668 68.2727C287.086 69.0824 287.669 69.7045 288.419 70.1392C289.169 70.5653 290.047 70.7784 291.053 70.7784C291.726 70.7784 292.336 70.6847 292.881 70.4972C293.426 70.3011 293.9 70.0156 294.3 69.6406C294.701 69.2656 295.003 68.8011 295.208 68.2472L299.529 68.733C299.256 69.875 298.736 70.8722 297.969 71.7244C297.211 72.5682 296.239 73.2244 295.054 73.6932C293.87 74.1534 292.515 74.3835 290.989 74.3835ZM308.263 62.4943V74H303.636V54.3636H308.059V57.7003H308.289C308.741 56.6009 309.461 55.7273 310.45 55.0795C311.447 54.4318 312.678 54.108 314.144 54.108C315.499 54.108 316.68 54.3977 317.685 54.9773C318.7 55.5568 319.484 56.3963 320.038 57.4957C320.6 58.5952 320.877 59.929 320.869 61.4972V74H316.241V62.2131C316.241 60.9006 315.9 59.8736 315.218 59.1321C314.545 58.3906 313.612 58.0199 312.418 58.0199C311.609 58.0199 310.888 58.1989 310.258 58.5568C309.636 58.9062 309.146 59.4134 308.788 60.0781C308.438 60.7429 308.263 61.5483 308.263 62.4943ZM334.138 74.3835C332.178 74.3835 330.495 73.9531 329.089 73.0923C327.691 72.2315 326.613 71.0426 325.854 69.5256C325.104 68 324.729 66.2443 324.729 64.2585C324.729 62.2642 325.113 60.5043 325.88 58.9787C326.647 57.4446 327.729 56.2514 329.127 55.3991C330.533 54.5384 332.195 54.108 334.113 54.108C335.707 54.108 337.117 54.402 338.344 54.9901C339.58 55.5696 340.565 56.392 341.298 57.4574C342.031 58.5142 342.448 59.75 342.55 61.1648H338.127C337.948 60.2187 337.522 59.4304 336.849 58.7997C336.184 58.1605 335.293 57.8409 334.177 57.8409C333.231 57.8409 332.4 58.0966 331.684 58.608C330.968 59.1108 330.41 59.8352 330.009 60.7812C329.617 61.7273 329.421 62.8608 329.421 64.1818C329.421 65.5199 329.617 66.6705 330.009 67.6335C330.401 68.5881 330.951 69.3253 331.658 69.8452C332.374 70.3565 333.214 70.6122 334.177 70.6122C334.859 70.6122 335.468 70.4844 336.005 70.2287C336.55 69.9645 337.006 69.5852 337.373 69.0909C337.739 68.5966 337.991 67.9957 338.127 67.2884H342.55C342.44 68.6776 342.031 69.9091 341.323 70.983C340.616 72.0483 339.653 72.8835 338.434 73.4886C337.215 74.0852 335.783 74.3835 334.138 74.3835ZM355.044 74.3835C353.075 74.3835 351.375 73.9744 349.943 73.1562C348.52 72.3295 347.424 71.1619 346.657 69.6534C345.89 68.1364 345.507 66.3509 345.507 64.2969C345.507 62.277 345.89 60.5043 346.657 58.9787C347.433 57.4446 348.515 56.2514 349.904 55.3991C351.294 54.5384 352.926 54.108 354.801 54.108C356.011 54.108 357.153 54.304 358.227 54.696C359.309 55.0795 360.264 55.6761 361.091 56.4858C361.926 57.2955 362.582 58.3267 363.059 59.5795C363.537 60.8239 363.775 62.3068 363.775 64.0284V65.4474H347.68V62.3281H359.339C359.331 61.4418 359.139 60.6534 358.764 59.9631C358.389 59.2642 357.865 58.7145 357.191 58.3139C356.527 57.9134 355.751 57.7131 354.865 57.7131C353.919 57.7131 353.088 57.9432 352.372 58.4034C351.656 58.8551 351.098 59.4517 350.697 60.1932C350.305 60.9261 350.105 61.7315 350.096 62.6094V65.3324C350.096 66.4744 350.305 67.4545 350.723 68.2727C351.14 69.0824 351.724 69.7045 352.474 70.1392C353.224 70.5653 354.102 70.7784 355.108 70.7784C355.781 70.7784 356.39 70.6847 356.936 70.4972C357.481 70.3011 357.954 70.0156 358.355 69.6406C358.755 69.2656 359.058 68.8011 359.262 68.2472L363.583 68.733C363.311 69.875 362.791 70.8722 362.024 71.7244C361.265 72.5682 360.294 73.2244 359.109 73.6932C357.924 74.1534 356.569 74.3835 355.044 74.3835Z" fill="black"/>
<path d="M378 69.2C378 67.5557 378.653 65.9787 379.816 64.8159C380.979 63.6532 382.556 63 384.2 63H433.8C435.444 63 437.021 63.6532 438.184 64.8159C439.347 65.9787 440 67.5557 440 69.2V103.3C440 104.944 439.347 106.521 438.184 107.684C437.021 108.847 435.444 109.5 433.8 109.5H412.1V115.7H421.4C422.222 115.7 423.011 116.027 423.592 116.608C424.173 117.189 424.5 117.978 424.5 118.8C424.5 119.622 424.173 120.411 423.592 120.992C423.011 121.573 422.222 121.9 421.4 121.9H396.6C395.778 121.9 394.989 121.573 394.408 120.992C393.827 120.411 393.5 119.622 393.5 118.8C393.5 117.978 393.827 117.189 394.408 116.608C394.989 116.027 395.778 115.7 396.6 115.7H405.9V109.5H384.2C382.556 109.5 380.979 108.847 379.816 107.684C378.653 106.521 378 104.944 378 103.3V69.2ZM433.8 103.3V69.2H384.2V103.3H433.8Z" fill="#968FF0"/>
<path d="M49.3285 19.5812L37.8528 23.0897C36.2683 23.5741 35.3766 25.2513 35.861 26.8357L39.3695 38.3114C39.8539 39.8958 41.531 40.7876 43.1155 40.3032L54.5912 36.7947C56.1756 36.3103 57.0674 34.6331 56.583 33.0487L53.0745 21.573C52.5901 19.9886 50.9129 19.0968 49.3285 19.5812Z" stroke="#00EC6D" stroke-width="2" stroke-linecap="round" stroke-linejoin="round"/>
<path d="M9.16391 31.8609L-2.31175 35.3693C-3.89621 35.8538 -4.78797 37.5309 -4.30355 39.1154L-0.795087 50.591C-0.310669 52.1755 1.36649 53.0673 2.95094 52.5828L14.4266 49.0744C16.0111 48.59 16.9028 46.9128 16.4184 45.3283L12.9099 33.8527C12.4255 32.2682 10.7484 31.3765 9.16391 31.8609Z" stroke="#00EC6D" stroke-width="2" stroke-linecap="round" stroke-linejoin="round"/>
<path d="M16.9674 -14.4437L5.49172 -10.9352C3.90726 -10.4508 3.0155 -8.77365 3.49992 -7.18919L7.00838 4.28647C7.4928 5.87093 9.16995 6.76269 10.7544 6.27827L22.2301 2.76981C23.8145 2.28539 24.7063 0.608238 24.2219 -0.976221L20.7134 -12.4519C20.229 -14.0363 18.5518 -14.9281 16.9674 -14.4437Z" stroke="#00EC6D" stroke-width="2" stroke-linecap="round" stroke-linejoin="round"/>
<path d="M3.42561 33.6159L0.794267 25.0091C0.561641 24.2482 0.640804 23.4261 1.01434 22.7236C1.38787 22.0211 2.02518 21.4957 2.78607 21.2631L37.213 10.7377C37.9739 10.5051 38.7961 10.5842 39.4986 10.9578C40.2011 11.3313 40.7264 11.9686 40.9591 12.7295L43.5904 21.3363M19.9996 16.0004L16.4911 4.52475" stroke="#00EC6D" stroke-width="2" stroke-linecap="round" stroke-linejoin="round"/>
<path d="M156.97 10.8667L158.968 10.9714L158.863 12.9686L156.866 12.864L156.97 10.8667Z" fill="#6ADBC6"/>
<path d="M160.979 10.5525L174.959 11.2852L174.855 13.2825L160.874 12.5497L160.979 10.5525Z" fill="#6ADBC6"/>
<path d="M156.97 18.8667L158.968 18.9714L158.863 20.9686L156.866 20.864L156.97 18.8667Z" fill="#6ADBC6"/>
<path d="M160.979 18.5525L174.959 19.2852L174.855 21.2825L160.874 20.5497L160.979 18.5525Z" fill="#6ADBC6"/>
<path d="M183.578 7.66835L155.616 6.20294C155.086 6.17518 154.567 6.35898 154.173 6.71391C153.779 7.06884 153.542 7.56582 153.514 8.09553L152.363 30.0654C152.335 30.5951 152.519 31.1141 152.874 31.5083C153.228 31.9025 153.725 32.1395 154.255 32.1673L182.217 33.6327C182.747 33.6605 183.266 33.4767 183.66 33.1217C184.054 32.7668 184.291 32.2698 184.319 31.7401L185.47 9.77028C185.498 9.24057 185.314 8.72153 184.959 8.32734C184.604 7.93315 184.107 7.69611 183.578 7.66835ZM155.511 8.2002L183.473 9.6656L183.159 15.6574L155.197 14.192L155.511 8.2002ZM155.093 16.1892L183.054 17.6546L182.74 23.6464L154.779 22.181L155.093 16.1892ZM154.36 30.17L154.674 24.1783L182.635 25.6437L182.321 31.6355L154.36 30.17Z" fill="#628BF7"/>
<path d="M156.97 26.8667L158.968 26.9714L158.863 28.9686L156.866 28.864L156.97 26.8667Z" fill="#6ADBC6"/>
<path d="M160.979 26.5525L174.959 27.2852L174.855 29.2825L160.874 28.5497L160.979 26.5525Z" fill="#6ADBC6"/>
<path d="M115 94.2515C115 92.3284 114.236 90.4841 112.876 89.1242C111.516 87.7644 109.672 87.0005 107.749 87.0005C105.826 87.0005 103.982 87.7644 102.622 89.1242C101.262 90.4841 100.498 92.3284 100.498 94.2515C98.9551 94.251 97.4397 94.6609 96.1073 95.4391C94.7749 96.2173 93.6734 97.3358 92.9157 98.68C92.158 100.024 91.7714 101.546 91.7955 103.088C91.8196 104.631 92.2535 106.14 93.0528 107.46C91.0676 107.843 89.2778 108.906 87.9909 110.466C86.7039 112.025 86 113.984 86 116.006C86 118.028 86.7039 119.987 87.9909 121.546C89.2778 123.105 91.0676 124.168 93.0528 124.552C92.2542 125.872 91.8209 127.38 91.7972 128.922C91.7735 130.465 92.1602 131.986 92.9178 133.329C93.6754 134.673 94.7766 135.791 96.1086 136.569C97.4406 137.347 98.9555 137.757 100.498 137.757C100.498 139.68 101.263 141.524 102.623 142.884C103.983 144.244 105.827 145.007 107.75 145.007C109.674 145.006 111.518 144.242 112.877 142.882C114.237 141.522 115 139.677 115 137.754" stroke="#E99BF4" stroke-width="1.5" stroke-linecap="round" stroke-linejoin="round"/>
<path d="M115 137.758C115 139.681 115.764 141.526 117.124 142.885C118.484 144.245 120.328 145.009 122.251 145.009C124.174 145.009 126.018 144.245 127.378 142.885C128.738 141.526 129.502 139.681 129.502 137.758C131.045 137.758 132.559 137.348 133.891 136.57C135.223 135.792 136.325 134.674 137.082 133.33C137.84 131.987 138.227 130.466 138.203 128.923C138.179 127.381 137.746 125.873 136.947 124.553C138.932 124.169 140.722 123.106 142.009 121.547C143.296 119.988 144 118.029 144 116.007C144 113.985 143.296 112.026 142.009 110.467C140.722 108.907 138.932 107.844 136.947 107.461C137.747 106.141 138.18 104.632 138.205 103.089C138.229 101.547 137.842 100.025 137.084 98.6809C136.327 97.3368 135.225 96.2183 133.893 95.4401C132.56 94.6619 131.045 94.252 129.502 94.2524C129.502 93.3002 129.315 92.3573 128.951 91.4775C128.586 90.5977 128.052 89.7982 127.379 89.1248C126.706 88.4513 125.907 87.9171 125.027 87.5525C124.147 87.1879 123.205 87.0002 122.252 87C120.329 86.9996 118.485 87.7632 117.125 89.1227C115.765 90.4823 115 92.3264 115 94.2495" stroke="#E99BF4" stroke-width="1.5" stroke-linecap="round" stroke-linejoin="round"/>
<path d="M110.613 101.506V107.246M100.5 111.657H106.451M123.769 111.657H129.721M123.769 120.283H129.721M100.5 120.283H106.451M110.613 124.764V130.507M119.387 124.764V130.507M119.361 101.503V107.246M109.354 124.616H120.872C121.641 124.616 122.379 124.31 122.923 123.766C123.467 123.223 123.772 122.485 123.772 121.716V110.146C123.772 109.377 123.467 108.639 122.923 108.095C122.379 107.551 121.641 107.246 120.872 107.246H109.354C108.585 107.246 107.847 107.551 107.304 108.095C106.76 108.639 106.454 109.377 106.454 110.146V121.716C106.454 122.485 106.76 123.223 107.304 123.766C107.847 124.31 108.585 124.616 109.354 124.616Z" stroke="#E99BF4" stroke-width="1.5" stroke-linecap="round" stroke-linejoin="round"/>
<path d="M322.64 -5.02897C322.923 -6.08215 323.612 -6.9801 324.556 -7.52526C325.5 -8.07043 326.622 -8.21817 327.675 -7.93597L347.495 -2.62537C348.548 -2.34297 349.446 -1.65385 349.991 -0.709589L355.831 9.40585C356.376 10.3499 356.524 11.472 356.242 12.5251L348.803 40.2866C348.521 41.3398 347.832 42.2377 346.888 42.7829C345.944 43.3281 344.821 43.4758 343.768 43.1936L315.971 35.7453C314.918 35.4631 314.02 34.7741 313.475 33.8299C312.93 32.8856 312.782 31.7635 313.064 30.7103L322.64 -5.02897ZM326.877 -4.95769C326.614 -5.02824 326.334 -4.99131 326.097 -4.85502C325.861 -4.71873 325.689 -4.49424 325.619 -4.23095L316.042 31.5083C315.972 31.7716 316.009 32.0521 316.145 32.2882C316.281 32.5243 316.506 32.6965 316.769 32.7671L344.566 40.2153C344.83 40.2859 345.11 40.2489 345.346 40.1126C345.582 39.9763 345.754 39.7519 345.825 39.4886L352.475 14.6696L344.533 12.5416C343.48 12.2594 342.582 11.5704 342.037 10.6261C341.492 9.68184 341.344 8.55969 341.626 7.50651L343.754 -0.43555L326.877 -4.95769ZM346.732 0.362476L344.604 8.30453C344.534 8.56783 344.571 8.84837 344.707 9.08443C344.843 9.32049 345.068 9.49275 345.331 9.5633L353.273 11.6914C353.332 11.438 353.292 11.1718 353.162 10.9466L347.322 0.831118C347.192 0.605955 346.981 0.438489 346.732 0.362476Z" fill="#E99BF4"/>
<path d="M244.541 85.3662C240.478 86.2297 236.763 88.2786 233.865 91.2537C230.967 94.2287 229.016 97.9964 228.259 102.08C227.502 106.164 227.973 110.381 229.613 114.197C231.252 118.013 233.986 121.257 237.47 123.519C240.953 125.781 245.029 126.96 249.182 126.905C253.335 126.851 257.379 125.566 260.802 123.214C264.225 120.861 266.873 117.547 268.412 113.689C269.951 109.831 270.312 105.604 269.448 101.541C268.284 96.0966 265.008 91.336 260.339 88.3037C255.67 85.2714 249.988 84.215 244.541 85.3662ZM263.707 94.7631L255.576 96.4915C253.812 92.9617 251.304 89.8562 248.225 87.3888C251.208 87.2846 254.173 87.9004 256.867 89.1839C259.562 90.4675 261.908 92.3811 263.707 94.7631ZM267.032 102.055C267.41 103.828 267.525 105.648 267.373 107.455L258.843 109.268C258.694 105.677 257.942 102.137 256.617 98.796L265.148 96.9827C266.021 98.5717 266.656 100.281 267.032 102.055ZM252.667 123.595C251.251 122.655 249.946 121.559 248.775 120.328C247.196 118.669 245.847 116.805 244.764 114.786L256.303 112.333C256.135 114.618 255.661 116.869 254.893 119.028C254.325 120.629 253.578 122.161 252.667 123.595ZM243.667 112.494C242.273 109.174 241.518 105.621 241.441 102.022L254.148 99.3208C255.541 102.641 256.296 106.193 256.374 109.793L243.667 112.494ZM230.783 109.76C230.404 107.986 230.289 106.167 230.441 104.36L238.972 102.547C239.12 106.137 239.873 109.678 241.198 113.019L232.667 114.832C231.793 113.243 231.158 111.534 230.783 109.76ZM245.148 88.2198C246.563 89.1592 247.869 90.255 249.039 91.4864C250.618 93.1457 251.968 95.0097 253.05 97.0283L241.511 99.4811C241.679 97.1966 242.153 94.945 242.921 92.7869C243.49 91.1858 244.237 89.6538 245.148 88.2198ZM241.998 88.7124C240.189 92.2189 239.161 96.0759 238.986 100.018L230.854 101.746C231.528 98.8386 232.893 96.1361 234.833 93.8674C236.773 91.5987 239.231 89.8305 241.998 88.7124ZM234.107 117.051L242.239 115.323C244.002 118.853 246.51 121.958 249.589 124.426C246.606 124.53 243.642 123.914 240.947 122.631C238.252 121.347 235.906 119.433 234.107 117.051ZM255.81 123.103C257.622 119.597 258.652 115.739 258.829 111.797L266.961 110.068C266.286 112.976 264.921 115.678 262.981 117.947C261.041 120.216 258.584 121.984 255.816 123.102L255.81 123.103Z" fill="#6ADBC6"/>
</g>
<defs>
<clipPath id="clip0_290_146">
<rect width="428" height="122" rx="20" fill="white"/>
</clipPath>
</defs>
</svg>
