<svg width="18" height="14" viewBox="0 0 18 14" fill="none" xmlns="http://www.w3.org/2000/svg">
<path d="M15.0584 1.44187C13.9501 0.925201 12.7501 0.550201 11.5001 0.333534C11.4891 0.333184 11.4782 0.335241 11.4681 0.33956C11.458 0.343879 11.449 0.350357 11.4417 0.358535C11.2917 0.633535 11.1167 0.991868 11.0001 1.26687C9.67422 1.06687 8.32589 1.06687 7.00006 1.26687C6.88339 0.983534 6.70839 0.633535 6.55006 0.358535C6.54172 0.341868 6.51672 0.333534 6.49172 0.333534C5.24172 0.550201 4.05006 0.925201 2.93339 1.44187C2.92506 1.44187 2.91672 1.4502 2.90839 1.45853C0.641724 4.8502 0.0167237 8.1502 0.325057 11.4169C0.325057 11.4335 0.33339 11.4502 0.350057 11.4585C1.85006 12.5585 3.29172 13.2252 4.71672 13.6669C4.74172 13.6752 4.76672 13.6669 4.77506 13.6502C5.10839 13.1919 5.40839 12.7085 5.66672 12.2002C5.68339 12.1669 5.66672 12.1335 5.63339 12.1252C5.15839 11.9419 4.70839 11.7252 4.26672 11.4752C4.23339 11.4585 4.23339 11.4085 4.25839 11.3835C4.35006 11.3169 4.44172 11.2419 4.53339 11.1752C4.55006 11.1585 4.57506 11.1585 4.59172 11.1669C7.45839 12.4752 10.5501 12.4752 13.3834 11.1669C13.4001 11.1585 13.4251 11.1585 13.4417 11.1752C13.5334 11.2502 13.6251 11.3169 13.7167 11.3919C13.7501 11.4169 13.7501 11.4669 13.7084 11.4835C13.2751 11.7419 12.8167 11.9502 12.3417 12.1335C12.3084 12.1419 12.3001 12.1835 12.3084 12.2085C12.5751 12.7169 12.8751 13.2002 13.2001 13.6585C13.2251 13.6669 13.2501 13.6752 13.2751 13.6669C14.7084 13.2252 16.1501 12.5585 17.6501 11.4585C17.6667 11.4502 17.6751 11.4335 17.6751 11.4169C18.0417 7.64187 17.0667 4.36687 15.0917 1.45853C15.0834 1.4502 15.0751 1.44187 15.0584 1.44187ZM6.10006 9.4252C5.24172 9.4252 4.52506 8.63353 4.52506 7.65853C4.52506 6.68353 5.22506 5.89187 6.10006 5.89187C6.98339 5.89187 7.68339 6.69187 7.67506 7.65853C7.67506 8.63353 6.97506 9.4252 6.10006 9.4252ZM11.9084 9.4252C11.0501 9.4252 10.3334 8.63353 10.3334 7.65853C10.3334 6.68353 11.0334 5.89187 11.9084 5.89187C12.7917 5.89187 13.4917 6.69187 13.4834 7.65853C13.4834 8.63353 12.7917 9.4252 11.9084 9.4252Z" fill="white"/>
</svg>
