<svg width="428" height="122" viewBox="0 0 428 122" fill="none" xmlns="http://www.w3.org/2000/svg">
<g clip-path="url(#clip0_290_149)">
<rect width="428" height="122" rx="20" fill="white"/>
<g clip-path="url(#clip1_290_149)">
<path d="M276 -24H446V146.002H276V-24Z" fill="white"/>
<path d="M371.625 -24.0061H350.375V45.0561H276V76.9311H350.375V145.993H371.625V76.9311H446V45.0561H371.625V-24.0061Z" fill="#D80027"/>
<path d="M406.749 90.5635L446 123.273V90.5635H406.749ZM379.478 90.5635L446 145.998V130.323L398.29 90.5635H379.478ZM428.281 145.998L379.478 105.326V145.998H428.281Z" fill="#0052B4"/>
<path d="M379.478 90.5635L446 145.998V130.323L398.29 90.5635H379.478Z" fill="white"/>
<path d="M379.478 90.5635L446 145.998V130.323L398.29 90.5635H379.478Z" fill="#D80027"/>
<path d="M305.996 90.5623L276 115.559V90.5623H305.996ZM342.522 97.6116V145.997H284.464L342.522 97.6116Z" fill="#0052B4"/>
<path d="M323.711 90.5635L276 130.323V145.998L342.522 90.5635H323.711Z" fill="#D80027"/>
<path d="M315.251 31.4286L276 -1.2812V31.4286H315.251ZM342.522 31.4286L276 -24.0061V-8.33056L323.711 31.4286H342.522ZM293.719 -24.0061L342.522 16.6664V-24.0061H293.719Z" fill="#0052B4"/>
<path d="M342.522 31.4286L276 -24.0061V-8.33056L323.711 31.4286H342.522Z" fill="white"/>
<path d="M342.522 31.4286L276 -24.0061V-8.33056L323.711 31.4286H342.522Z" fill="#D80027"/>
<path d="M416.004 31.4342L446 6.43718V31.4342H416.004ZM379.478 24.3848V-24.001H437.536L379.478 24.3848Z" fill="#0052B4"/>
<path d="M398.29 31.433L446 -8.32617V-24.0017L379.478 31.433H398.29Z" fill="#D80027"/>
</g>
<path d="M81.5824 74V47.8182H98.6108V51.794H86.3253V58.902H97.7287V62.8778H86.3253V70.0241H98.7131V74H81.5824ZM107.873 62.4943V74H103.245V54.3636H107.668V57.7003H107.898C108.35 56.6009 109.07 55.7273 110.059 55.0795C111.056 54.4318 112.288 54.108 113.754 54.108C115.109 54.108 116.289 54.3977 117.295 54.9773C118.309 55.5568 119.093 56.3963 119.647 57.4957C120.21 58.5952 120.487 59.929 120.478 61.4972V74H115.85V62.2131C115.85 60.9006 115.509 59.8736 114.827 59.1321C114.154 58.3906 113.221 58.0199 112.028 58.0199C111.218 58.0199 110.498 58.1989 109.867 58.5568C109.245 58.9062 108.755 59.4134 108.397 60.0781C108.048 60.7429 107.873 61.5483 107.873 62.4943ZM133.722 81.7727C132.06 81.7727 130.633 81.5469 129.44 81.0952C128.246 80.652 127.288 80.0554 126.563 79.3054C125.839 78.5554 125.336 77.7244 125.055 76.8125L129.222 75.8026C129.41 76.1861 129.683 76.5653 130.04 76.9403C130.398 77.3239 130.88 77.6392 131.485 77.8864C132.099 78.142 132.87 78.2699 133.799 78.2699C135.112 78.2699 136.198 77.9503 137.059 77.3111C137.92 76.6804 138.35 75.6406 138.35 74.1918V70.4716H138.12C137.881 70.9489 137.532 71.4389 137.072 71.9418C136.62 72.4446 136.019 72.8665 135.269 73.2074C134.528 73.5483 133.594 73.7188 132.469 73.7188C130.961 73.7188 129.593 73.3651 128.366 72.6577C127.147 71.9418 126.175 70.8764 125.451 69.4616C124.735 68.0384 124.377 66.2571 124.377 64.1179C124.377 61.9616 124.735 60.142 125.451 58.6591C126.175 57.1676 127.151 56.0384 128.379 55.2713C129.606 54.4957 130.974 54.108 132.482 54.108C133.633 54.108 134.579 54.304 135.32 54.696C136.07 55.0795 136.667 55.544 137.11 56.0895C137.553 56.6264 137.89 57.1335 138.12 57.6108H138.376V54.3636H142.94V74.3196C142.94 75.9986 142.539 77.3878 141.738 78.4872C140.937 79.5866 139.842 80.4091 138.452 80.9545C137.063 81.5 135.487 81.7727 133.722 81.7727ZM133.761 70.0881C134.741 70.0881 135.576 69.8494 136.266 69.3722C136.957 68.8949 137.481 68.2088 137.839 67.3139C138.197 66.419 138.376 65.3452 138.376 64.0923C138.376 62.8565 138.197 61.7741 137.839 60.8452C137.489 59.9162 136.969 59.196 136.279 58.6847C135.597 58.1648 134.758 57.9048 133.761 57.9048C132.729 57.9048 131.869 58.1733 131.178 58.7102C130.488 59.2472 129.968 59.9844 129.619 60.9219C129.269 61.8509 129.094 62.9077 129.094 64.0923C129.094 65.294 129.269 66.3466 129.619 67.25C129.977 68.1449 130.501 68.8437 131.191 69.3466C131.89 69.8409 132.746 70.0881 133.761 70.0881ZM152.31 47.8182V74H147.683V47.8182H152.31ZM157.069 74V54.3636H161.697V74H157.069ZM159.396 51.5767C158.663 51.5767 158.032 51.3338 157.504 50.848C156.975 50.3537 156.711 49.7614 156.711 49.071C156.711 48.3722 156.975 47.7798 157.504 47.294C158.032 46.7997 158.663 46.5526 159.396 46.5526C160.137 46.5526 160.768 46.7997 161.288 47.294C161.816 47.7798 162.081 48.3722 162.081 49.071C162.081 49.7614 161.816 50.3537 161.288 50.848C160.768 51.3338 160.137 51.5767 159.396 51.5767ZM181.976 59.554L177.757 60.0142C177.638 59.5881 177.429 59.1875 177.131 58.8125C176.841 58.4375 176.449 58.1349 175.955 57.9048C175.46 57.6747 174.855 57.5597 174.139 57.5597C173.176 57.5597 172.366 57.7685 171.71 58.1861C171.062 58.6037 170.743 59.1449 170.751 59.8097C170.743 60.3807 170.952 60.8452 171.378 61.2031C171.813 61.5611 172.528 61.8551 173.526 62.0852L176.875 62.8011C178.733 63.2017 180.114 63.8366 181.017 64.706C181.929 65.5753 182.389 66.7131 182.398 68.1193C182.389 69.3551 182.027 70.446 181.311 71.392C180.604 72.3295 179.619 73.0625 178.358 73.5909C177.097 74.1193 175.648 74.3835 174.011 74.3835C171.608 74.3835 169.673 73.8807 168.207 72.875C166.741 71.8608 165.868 70.4503 165.587 68.6435L170.099 68.2088C170.304 69.0952 170.739 69.7642 171.403 70.2159C172.068 70.6676 172.933 70.8935 173.999 70.8935C175.098 70.8935 175.98 70.6676 176.645 70.2159C177.318 69.7642 177.655 69.206 177.655 68.5412C177.655 67.9787 177.438 67.5142 177.003 67.1477C176.577 66.7812 175.912 66.5 175.009 66.304L171.659 65.6009C169.776 65.2088 168.382 64.5483 167.479 63.6193C166.575 62.6818 166.128 61.4972 166.136 60.0653C166.128 58.8551 166.456 57.8068 167.121 56.9205C167.794 56.0256 168.727 55.3352 169.92 54.8494C171.122 54.3551 172.507 54.108 174.075 54.108C176.376 54.108 178.188 54.598 179.509 55.5781C180.838 56.5582 181.661 57.8835 181.976 59.554ZM190.842 62.4943V74H186.214V47.8182H190.739V57.7003H190.969C191.43 56.5923 192.141 55.7187 193.104 55.0795C194.076 54.4318 195.312 54.108 196.812 54.108C198.175 54.108 199.364 54.3935 200.379 54.9645C201.393 55.5355 202.177 56.3707 202.731 57.4702C203.293 58.5696 203.575 59.9119 203.575 61.4972V74H198.947V62.2131C198.947 60.892 198.606 59.8651 197.924 59.1321C197.251 58.3906 196.305 58.0199 195.086 58.0199C194.268 58.0199 193.535 58.1989 192.887 58.5568C192.248 58.9062 191.745 59.4134 191.379 60.0781C191.021 60.7429 190.842 61.5483 190.842 62.4943Z" fill="black"/>
<path d="M26.6852 49.2192C26.6852 49.2192 22.7529 50.1352 20.9859 51.6988C14.8356 57.1419 12.8161 62.482 12.4192 68.5195L5.41073 76.0146C20.7476 73.1605 38.5121 72.5207 59.6968 72.6814C56.3492 70.427 53.1027 68.5766 50.2413 66.8135C47.9344 61.1557 44.8696 54.6045 39.7319 51.6118C37.4773 50.2984 35.0866 49.3765 32.7247 48.9292C31.0135 45.6924 27.0822 47.0454 26.6853 49.2193L26.6852 49.2192ZM13.8635 77.5779C17.1036 84.0525 22.8907 90.2616 28.1707 93.9973C31.0806 96.0104 34.0271 97.4486 36.3053 97.8456C38.2094 98.203 40.0446 97.6199 40.8998 96.1446L40.9001 96.144V96.1436C42.1916 93.8645 43.2454 91.5652 44.1452 89.2584C46.6597 89.5352 49.4701 89.6634 50.2084 89.0706C51.3736 88.1348 48.8136 80.1306 47.6492 78.0019C48.1365 77.0105 48.1365 75.9625 48.1365 75.1998C41.8507 74.8501 24.1259 76.2236 13.8635 77.5779ZM68.3983 78.5454C66.2728 78.5936 64.4299 80.1166 63.0701 82.1586C61.5698 84.4119 60.4979 87.4727 60.0739 90.9339C59.6499 94.3951 59.951 97.6238 60.8629 100.173C61.5467 102.084 62.6374 103.73 64.1551 104.558L62.4385 121.881L65.2937 122.163L66.9856 105.088C68.9007 104.834 70.5629 103.395 71.815 101.515C73.3154 99.2612 74.387 96.2005 74.8111 92.7395C75.2351 89.2784 74.9339 86.0492 74.0218 83.5003C73.1098 80.9515 71.4743 78.8738 69.0668 78.5788C68.8451 78.5515 68.6216 78.5404 68.3983 78.5454ZM68.7177 81.4266C69.5934 81.5339 70.6059 82.4692 71.3206 84.467C72.0355 86.4647 72.3402 89.3159 71.9634 92.3904C71.5866 95.4649 70.6025 98.1582 69.4265 99.9243C68.2507 101.69 67.0428 102.354 66.1671 102.246C65.2914 102.139 64.2793 101.204 63.5646 99.206C62.8497 97.2084 62.5451 94.3573 62.9217 91.2828C63.2984 88.2083 64.2823 85.5149 65.4583 83.7488C66.257 82.7663 67.481 81.3311 68.7177 81.4266ZM12.9382 81.9979C11.9431 83.3596 10.7107 84.7506 9.25448 86.1013C7.32424 87.8914 5.00444 89.5803 2.36905 90.9167C8.28267 92.1159 14.7242 94.6441 20.7326 97.7058C27.4791 101.144 33.6077 105.226 37.7518 109.046L38.1206 105.111C36.3054 103.097 34.3707 101.313 32.4034 99.6515C30.4664 98.8544 28.4892 97.7065 26.5382 96.3566C20.7409 92.3456 15.2408 86.647 12.9382 81.9979ZM67.8619 83.7952C67.8677 87.2226 68.3425 91.053 69.4194 94.097C70.4919 90.9498 70.5383 85.2912 67.8619 83.7952ZM45.9299 92.4709C45.5415 93.362 45.1302 94.2429 44.6962 95.1127C45.8645 95.9771 46.5349 96.801 46.9124 97.5841C47.4095 98.6153 47.4686 99.6684 47.2592 100.978C46.9022 103.21 45.6313 105.995 44.9767 109.303C43.5344 111.323 44.7273 118.236 47.888 119.016C55.0092 120.775 58.9992 113.326 57.39 111.57C55.8253 109.863 51.3972 108.424 48.158 108.39C48.8032 106.042 49.7185 103.77 50.0924 101.432C50.358 99.772 50.3036 98.0117 49.4969 96.3383C48.8187 94.9313 47.6518 93.6515 45.9299 92.4708V92.4709ZM2.43567 93.8752C1.6784 95.0381 0.851793 96.3432 0 97.7664V122.08H40.6693C40.2037 119.83 39.7753 117.506 39.2725 115.286C39.1689 114.381 38.4327 113.836 37.8286 113.163C34.3288 109.265 27.2564 104.25 19.4296 100.262C13.8254 97.406 7.80353 95.0618 2.43567 93.8752Z" fill="#D80027"/>
<path d="M142.465 19.4524C143.8 19.0187 144.531 17.5848 144.097 16.2498C143.663 14.9147 142.229 14.1841 140.894 14.6179C139.559 15.0517 138.828 16.4856 139.262 17.8206C139.696 19.1556 141.13 19.8862 142.465 19.4524Z" fill="#0052B4"/>
<path d="M172.818 -7.70945C172.527 -7.77129 172.225 -7.75546 171.942 -7.66355C171.659 -7.57163 171.405 -7.40688 171.206 -7.18584C166.823 -2.19824 164.725 5.2716 163.988 8.43286L163.471 10.8456L162.708 13.9799C161.175 18.9141 157.819 26.8995 151.873 28.8316C144.379 31.2664 134.552 23.5024 131.858 21.1886C132.677 17.7332 136.048 5.68084 143.558 3.24081C149.263 1.38722 156.342 5.46517 160.563 8.5301L160.763 7.60996C160.763 7.60996 161.076 6.59959 161.607 5.10861C156.709 1.71167 149.129 -2.20396 142.393 -0.0152588C131.773 3.43535 128.336 20.7117 128.202 21.4502L128.082 22.3441L128.769 22.9763C129.311 23.4948 142.247 35.4513 152.867 32.0007C161.021 29.3512 164.929 18.5675 166.405 13.3488C166.372 13.4665 167.226 9.62558 167.226 9.62558L167.281 9.41166C167.643 7.56105 168.175 5.74794 168.871 3.99561C169.665 1.7868 170.683 -0.334952 171.909 -2.33646L178.056 16.5827C175.234 15.4101 172.575 13.8789 170.144 12.0269L170.023 12.5297L169.244 15.6156C172.532 18.0592 176.264 19.8418 180.231 20.8645C180.523 20.9301 180.826 20.9176 181.11 20.8284C181.39 20.732 181.643 20.5705 181.848 20.3571C182.048 20.1352 182.186 19.8644 182.247 19.5722C182.309 19.2801 182.292 18.9768 182.198 18.6932L173.999 -6.54306C173.918 -6.82242 173.768 -7.07645 173.561 -7.28071C173.354 -7.48498 173.098 -7.63262 172.818 -7.70945Z" fill="#0052B4"/>
<path d="M225.4 69.5L223.669 75.3869L220.769 73.7299V80.3193H223.5V78.4193H227.3V80.3193H230.031V73.7299L227.131 75.387L225.4 69.5ZM259.6 69.5L257.869 75.387L254.969 73.7299V80.3193H257.7V78.4193H261.5V80.3193H264.231V73.7299L261.331 75.387L259.6 69.5ZM220.769 82.4568V114.519H230.031V82.4568H220.769ZM254.969 82.4568V114.519H264.231V82.4568H254.969ZM223.5 86.0193H227.3V90.2943H223.5V86.0193ZM232.169 86.0193V88.1568H252.831V86.0193H232.169ZM257.7 86.0193H261.5V90.0568H257.7V86.0193ZM218.631 90.1848C217.321 92.2768 215.595 94.2791 214 96.1457V99.3562C215.552 97.6937 217.272 95.9042 218.631 94.0156V90.1848ZM266.369 90.1848V94.0155C267.728 95.9039 269.448 97.6935 271 99.3562V96.1458C269.405 94.2791 267.679 92.2768 266.369 90.1848ZM223.5 93.6193H227.3V95.7568H223.5V93.6193ZM257.7 93.6193H261.5V95.7568H257.7V93.6193ZM223.5 101.219H227.3V103.357H223.5V101.219ZM257.7 101.219H261.5V103.357H257.7V101.219ZM214 108.819V110.957H218.631V108.819H214ZM223.5 108.819H227.3V110.957H223.5V108.819ZM232.169 108.819V110.957H239.112C236.463 111.327 234.124 112.098 232.169 113.003V114.519H234.069V114.551C236.42 113.591 239.293 112.857 242.5 112.857C245.707 112.857 248.58 113.591 250.931 114.551V114.519H252.831V113.003C250.876 112.098 248.537 111.327 245.888 110.957H252.831V108.819H232.169ZM257.7 108.819H261.5V110.957H257.7V108.819ZM266.369 108.819V110.957H271V108.819H266.369ZM218.869 116.657V122.119H231.931V116.657H218.869ZM253.069 116.657V122.119H266.131V116.657H253.069Z" fill="#5F5C5B"/>
</g>
<defs>
<clipPath id="clip0_290_149">
<rect width="428" height="122" rx="20" fill="white"/>
</clipPath>
<clipPath id="clip1_290_149">
<rect x="276" y="-24" width="170" height="170" rx="85" fill="white"/>
</clipPath>
</defs>
</svg>
