<svg width="428" height="122" viewBox="0 0 428 122" fill="none" xmlns="http://www.w3.org/2000/svg">
<g clip-path="url(#clip0_295_12)">
<rect width="428" height="122" rx="20" fill="white"/>
<g clip-path="url(#clip1_295_12)">
<path d="M276 149.004H446V-20.998H276V149.004Z" fill="white"/>
<path d="M276 149.004H332.665V-20.998H276V149.004Z" fill="#0052B4"/>
<path d="M389.335 149H446V-21.0014H389.335V149Z" fill="#D80027"/>
</g>
<path d="M57.8923 78.6621L51.3634 62.0006C51.2501 61.7048 51.0597 61.4523 50.8162 61.2743C50.5727 61.0964 50.2868 61.001 49.9942 61H28.0065C27.4112 61 26.8555 61.3915 26.6372 62.0006L20.1084 78.6621C18.7325 82.1758 18.634 86.133 19.8329 89.7238C21.0319 93.3145 23.4377 96.2672 26.5578 97.9772L36.3213 103.328C36.996 103.698 37.4326 104.459 37.4326 105.286V119.12H30.5069C29.7131 119.12 29.0186 119.794 28.9987 120.686C28.9789 121.577 29.6337 122.295 30.4474 122.295H47.4739C48.2677 122.295 48.9623 121.621 48.9821 120.729C48.9864 120.518 48.952 120.309 48.8809 120.113C48.8099 119.917 48.7036 119.738 48.5685 119.588C48.4334 119.438 48.2722 119.319 48.0944 119.239C47.9166 119.158 47.7258 119.118 47.5335 119.12H40.4887V105.307C40.4887 104.481 40.9253 103.72 41.6 103.35L51.423 97.9555C54.5476 96.2562 56.9595 93.3093 58.1627 89.7208C59.366 86.1323 59.2692 82.1748 57.8923 78.6621Z" fill="#AEDDFF"/>
<path d="M51.4821 84.7741C50.7082 84.7741 49.9739 84.2738 49.6564 83.4472L43.1276 66.7857C42.691 65.6764 43.1673 64.3931 44.1595 63.9363C44.6412 63.7098 45.1851 63.7017 45.6723 63.9137C46.1595 64.1256 46.5502 64.5404 46.7591 65.0674L53.288 81.7289C53.7245 82.8382 53.2483 84.1215 52.256 84.5783C51.9981 84.7088 51.7401 84.7741 51.4821 84.7741Z" fill="white"/>
<path d="M53.1496 78.401H51.9133L50.6016 80.3934L47.6646 78.401H24.8514C23.9981 78.401 23.2043 78.9665 22.8669 79.8366C21.7952 82.5831 21.72 85.6744 22.6567 88.4797C23.5934 91.2849 25.4714 93.5926 27.9074 94.932L36.7581 99.7826C38.167 100.544 39.8141 100.544 41.2231 99.7826L50.0936 94.932C55.1539 92.1478 57.3765 85.5354 55.1341 79.8366C54.7967 78.9448 54.0228 78.401 53.1496 78.401Z" fill="#BB1D80"/>
<path d="M47.6787 78.401L49.6572 83.4473C49.9747 84.2739 50.709 84.7741 51.4829 84.7741C51.7409 84.7741 51.9989 84.7089 52.2568 84.5784C53.2491 84.1216 53.7253 82.8383 53.2887 81.729L51.981 78.401H47.6787Z" fill="#FF6DC6"/>
<path d="M81.5824 74V47.8182H98.3551V51.794H86.3253V58.902H97.2045V62.8778H86.3253V74H81.5824ZM102.19 74V54.3636H106.678V57.6364H106.882C107.24 56.5028 107.854 55.6293 108.723 55.0156C109.601 54.3935 110.602 54.0824 111.727 54.0824C111.983 54.0824 112.268 54.0952 112.584 54.1207C112.908 54.1378 113.176 54.1676 113.389 54.2102V58.4673C113.193 58.3991 112.882 58.3395 112.456 58.2884C112.038 58.2287 111.634 58.1989 111.241 58.1989C110.398 58.1989 109.639 58.3821 108.966 58.7486C108.301 59.1065 107.777 59.6051 107.393 60.2443C107.01 60.8835 106.818 61.6207 106.818 62.456V74H102.19ZM124.348 74.3835C122.38 74.3835 120.679 73.9744 119.248 73.1562C117.824 72.3295 116.729 71.1619 115.962 69.6534C115.195 68.1364 114.811 66.3509 114.811 64.2969C114.811 62.277 115.195 60.5043 115.962 58.9787C116.738 57.4446 117.82 56.2514 119.209 55.3991C120.598 54.5384 122.23 54.108 124.105 54.108C125.316 54.108 126.458 54.304 127.532 54.696C128.614 55.0795 129.569 55.6761 130.395 56.4858C131.23 57.2955 131.887 58.3267 132.364 59.5795C132.841 60.8239 133.08 62.3068 133.08 64.0284V65.4474H116.985V62.3281H128.644C128.635 61.4418 128.444 60.6534 128.069 59.9631C127.694 59.2642 127.169 58.7145 126.496 58.3139C125.831 57.9134 125.056 57.7131 124.169 57.7131C123.223 57.7131 122.392 57.9432 121.676 58.4034C120.961 58.8551 120.402 59.4517 120.002 60.1932C119.61 60.9261 119.409 61.7315 119.401 62.6094V65.3324C119.401 66.4744 119.61 67.4545 120.027 68.2727C120.445 69.0824 121.029 69.7045 121.779 70.1392C122.529 70.5653 123.407 70.7784 124.412 70.7784C125.086 70.7784 125.695 70.6847 126.24 70.4972C126.786 70.3011 127.259 70.0156 127.659 69.6406C128.06 69.2656 128.363 68.8011 128.567 68.2472L132.888 68.733C132.615 69.875 132.096 70.8722 131.328 71.7244C130.57 72.5682 129.598 73.2244 128.414 73.6932C127.229 74.1534 125.874 74.3835 124.348 74.3835ZM141.623 62.4943V74H136.995V54.3636H141.418V57.7003H141.648C142.1 56.6009 142.82 55.7273 143.809 55.0795C144.806 54.4318 146.038 54.108 147.504 54.108C148.859 54.108 150.039 54.3977 151.045 54.9773C152.059 55.5568 152.843 56.3963 153.397 57.4957C153.96 58.5952 154.237 59.929 154.228 61.4972V74H149.6V62.2131C149.6 60.9006 149.259 59.8736 148.577 59.1321C147.904 58.3906 146.971 58.0199 145.778 58.0199C144.968 58.0199 144.248 58.1989 143.617 58.5568C142.995 58.9062 142.505 59.4134 142.147 60.0781C141.798 60.7429 141.623 61.5483 141.623 62.4943ZM167.498 74.3835C165.538 74.3835 163.854 73.9531 162.448 73.0923C161.05 72.2315 159.972 71.0426 159.214 69.5256C158.464 68 158.089 66.2443 158.089 64.2585C158.089 62.2642 158.472 60.5043 159.239 58.9787C160.006 57.4446 161.089 56.2514 162.487 55.3991C163.893 54.5384 165.555 54.108 167.472 54.108C169.066 54.108 170.477 54.402 171.704 54.9901C172.94 55.5696 173.924 56.392 174.657 57.4574C175.39 58.5142 175.808 59.75 175.91 61.1648H171.487C171.308 60.2187 170.881 59.4304 170.208 58.7997C169.543 58.1605 168.653 57.8409 167.536 57.8409C166.59 57.8409 165.759 58.0966 165.043 58.608C164.327 59.1108 163.769 59.8352 163.369 60.7812C162.977 61.7273 162.781 62.8608 162.781 64.1818C162.781 65.5199 162.977 66.6705 163.369 67.6335C163.761 68.5881 164.31 69.3253 165.018 69.8452C165.734 70.3565 166.573 70.6122 167.536 70.6122C168.218 70.6122 168.827 70.4844 169.364 70.2287C169.91 69.9645 170.366 69.5852 170.732 69.0909C171.099 68.5966 171.35 67.9957 171.487 67.2884H175.91C175.799 68.6776 175.39 69.9091 174.683 70.983C173.975 72.0483 173.012 72.8835 171.793 73.4886C170.575 74.0852 169.143 74.3835 167.498 74.3835ZM184.338 62.4943V74H179.71V47.8182H184.235V57.7003H184.466C184.926 56.5923 185.637 55.7187 186.6 55.0795C187.572 54.4318 188.808 54.108 190.308 54.108C191.672 54.108 192.86 54.3935 193.875 54.9645C194.889 55.5355 195.673 56.3707 196.227 57.4702C196.789 58.5696 197.071 59.9119 197.071 61.4972V74H192.443V62.2131C192.443 60.892 192.102 59.8651 191.42 59.1321C190.747 58.3906 189.801 58.0199 188.582 58.0199C187.764 58.0199 187.031 58.1989 186.383 58.5568C185.744 58.9062 185.241 59.4134 184.875 60.0781C184.517 60.7429 184.338 61.5483 184.338 62.4943Z" fill="black"/>
<g clip-path="url(#clip2_295_12)">
<path fill-rule="evenodd" clip-rule="evenodd" d="M243.5 38.875C244.528 38.875 245.513 39.2833 246.24 40.01C246.967 40.7367 247.375 41.7223 247.375 42.75V50.3334C247.495 51.6896 247.642 53.0459 247.797 54.3983C248.66 54.4925 249.465 54.8734 250.086 55.48C250.706 56.0865 251.105 56.8836 251.218 57.7437C251.331 58.6037 251.153 59.4769 250.711 60.2235C250.269 60.9701 249.59 61.5469 248.782 61.8615L249.026 63.4658C250.091 70.2935 251.703 78.462 253.993 85.375H255.125C255.992 85.3747 256.834 85.6651 257.516 86.1998C258.198 86.7345 258.682 87.4825 258.889 88.3243C259.096 89.166 259.015 90.053 258.659 90.8432C258.302 91.6334 257.691 92.2813 256.923 92.6833C257.613 94.1402 258.357 95.5817 259.132 97H262.875C263.827 96.9967 264.748 97.3442 265.46 97.9762C266.172 98.6083 266.627 99.4805 266.737 100.427C266.848 101.372 266.606 102.326 266.058 103.105C265.51 103.884 264.694 104.434 263.766 104.649C266.75 109.175 269.978 113.601 273.543 117.696C274.034 118.257 274.353 118.947 274.462 119.684C274.571 120.421 274.465 121.173 274.157 121.852C273.849 122.53 273.352 123.105 272.726 123.508C272.099 123.912 271.37 124.126 270.625 124.125H255.125C254.469 124.125 253.824 123.959 253.25 123.642C252.676 123.325 252.192 122.867 251.843 122.312L251.606 121.874C251.086 120.841 250.403 119.899 249.584 119.084C248.165 117.631 246.201 116.375 243.5 116.375C240.799 116.375 238.834 117.631 237.416 119.084C236.769 119.739 236.202 120.468 235.727 121.257L235.393 121.874C235.083 122.546 234.587 123.115 233.964 123.514C233.34 123.913 232.615 124.125 231.875 124.125H216.375C215.63 124.125 214.901 123.91 214.275 123.506C213.649 123.102 213.153 122.526 212.845 121.847C212.538 121.168 212.433 120.416 212.543 119.679C212.653 118.942 212.973 118.252 213.465 117.692C217.026 113.593 220.246 109.179 223.234 104.649C222.306 104.434 221.49 103.884 220.942 103.105C220.394 102.326 220.152 101.372 220.263 100.427C220.373 99.4805 220.827 98.6083 221.54 97.9762C222.252 97.3442 223.173 96.9967 224.125 97H227.868C228.643 95.5817 229.387 94.1364 230.077 92.6833C229.309 92.2813 228.698 91.6334 228.341 90.8432C227.985 90.053 227.904 89.166 228.111 88.3243C228.318 87.4825 228.801 86.7345 229.484 86.1998C230.166 85.6651 231.008 85.3747 231.875 85.375H233.006C235.041 79.2331 236.544 72.0915 237.598 65.7869L238.218 61.8615C237.41 61.5469 236.73 60.9701 236.289 60.2235C235.847 59.4769 235.668 58.6037 235.782 57.7437C235.895 56.8836 236.294 56.0865 236.914 55.48C237.534 54.8734 238.34 54.4925 239.203 54.3983C239.358 53.042 239.505 51.6858 239.629 50.3295V42.75C239.629 41.7223 240.037 40.7367 240.764 40.01C241.49 39.2833 242.472 38.875 243.5 38.875ZM254.66 104.75H232.34C229.901 108.755 227.263 112.635 224.435 116.375H229.666C230.209 115.573 230.941 114.624 231.875 113.666C234.239 111.244 238.087 108.625 243.5 108.625C248.913 108.625 252.761 111.244 255.125 113.666C256.063 114.624 256.791 115.573 257.334 116.375H262.565C259.737 112.635 257.099 108.755 254.66 104.75ZM248.627 93.125H238.373L237.513 95.0741L236.599 97H250.401L249.487 95.0741L248.627 93.125ZM243.5 76.1409C242.991 78.4742 242.42 80.7935 241.787 83.0965L241.136 85.375H245.871C244.968 82.3277 244.18 79.2474 243.508 76.1409H243.5Z" fill="#D80027"/>
</g>
<path d="M118.877 25.3692C115.981 23.4884 118.181 17.5552 119.279 15.336C120.32 13.1649 121.883 11.286 123.828 9.86785C124.728 9.17604 125.792 8.73021 126.916 8.57417C128.04 8.41814 129.186 8.55727 130.24 8.97791C133.092 10.2062 133.915 12.9247 135.899 14.9616C136.245 15.3856 136.695 15.7126 137.205 15.9109C137.715 16.1092 138.267 16.172 138.809 16.0931C139.35 16.0143 139.862 15.7964 140.294 15.4609C140.726 15.1253 141.064 14.6835 141.274 14.1785C142.759 9.77771 135.935 5.25206 133.126 3.42823C135.776 -0.652795 140.594 1.72734 143.598 4.11482C145.379 5.5325 146.983 7.16026 148.373 8.96267C149.228 10.0481 149.888 11.818 151.152 12.5139C153.073 13.5429 154.671 11.8983 154.779 10.003C154.979 5.51612 149.73 1.73341 146.505 -0.361142C149.355 -4.74934 153.692 -3.11808 156.907 -0.0945776C158.547 1.4969 160.002 3.26855 161.244 5.18667C162.05 6.39606 162.79 8.18674 164.289 8.56779C168.076 9.65419 166.979 4.13798 166.102 2.41425C165.469 1.23038 164.701 0.124288 163.813 -0.881634C162.856 -2.00212 161.322 -2.81088 163.295 -3.49498C165.939 -3.88642 168.64 -3.4793 171.052 -2.32578C175.825 -0.598193 181.666 2.94518 179.284 8.82257C177.83 11.798 175.359 14.1547 172.318 15.4663C163.689 19.8023 154.489 22.8914 144.992 24.6411C139.803 25.8114 134.525 26.5473 129.214 26.8411C125.994 26.996 121.73 27.2215 118.877 25.3692Z" fill="#0052B4"/>
</g>
<defs>
<clipPath id="clip0_295_12">
<rect width="428" height="122" rx="20" fill="white"/>
</clipPath>
<clipPath id="clip1_295_12">
<rect width="170" height="170" rx="85" transform="matrix(1 0 0 -1 276 149)" fill="white"/>
</clipPath>
<clipPath id="clip2_295_12">
<rect width="93" height="93" fill="white" transform="translate(197 35)"/>
</clipPath>
</defs>
</svg>
