<svg width="428" height="122" viewBox="0 0 428 122" fill="none" xmlns="http://www.w3.org/2000/svg">
<g clip-path="url(#clip0_295_12)">
<rect width="428" height="122" rx="20" fill="white"/>
<g clip-path="url(#clip1_295_12)">
<path d="M276 149.004H446V-20.998H276V149.004Z" fill="white"/>
<path d="M276 149.004H332.665V-20.998H276V149.004Z" fill="#0052B4"/>
<path d="M389.335 149H446V-21.0014H389.335V149Z" fill="#D80027"/>
</g>
<path d="M57.8923 78.6621L51.3634 62.0006C51.2501 61.7048 51.0597 61.4523 50.8162 61.2743C50.5727 61.0964 50.2868 61.001 49.9942 61H28.0065C27.4112 61 26.8555 61.3915 26.6372 62.0006L20.1084 78.6621C18.7325 82.1758 18.634 86.133 19.8329 89.7238C21.0319 93.3145 23.4377 96.2672 26.5578 97.9772L36.3213 103.328C36.996 103.698 37.4326 104.459 37.4326 105.286V119.12H30.5069C29.7131 119.12 29.0186 119.794 28.9987 120.686C28.9789 121.577 29.6337 122.295 30.4474 122.295H47.4739C48.2677 122.295 48.9623 121.621 48.9821 120.729C48.9864 120.518 48.952 120.309 48.8809 120.113C48.8099 119.917 48.7036 119.738 48.5685 119.588C48.4334 119.438 48.2722 119.319 48.0944 119.239C47.9166 119.158 47.7258 119.118 47.5335 119.12H40.4887V105.307C40.4887 104.481 40.9253 103.72 41.6 103.35L51.423 97.9555C54.5476 96.2562 56.9595 93.3093 58.1627 89.7208C59.366 86.1323 59.2692 82.1748 57.8923 78.6621Z" fill="#AEDDFF"/>
<path d="M51.4821 84.7741C50.7082 84.7741 49.9739 84.2738 49.6564 83.4472L43.1276 66.7857C42.691 65.6764 43.1673 64.3931 44.1595 63.9363C44.6412 63.7098 45.1851 63.7017 45.6723 63.9137C46.1595 64.1256 46.5502 64.5404 46.7591 65.0674L53.288 81.7289C53.7245 82.8382 53.2483 84.1215 52.256 84.5783C51.9981 84.7088 51.7401 84.7741 51.4821 84.7741Z" fill="white"/>
<path d="M53.1496 78.401H51.9133L50.6016 80.3934L47.6646 78.401H24.8514C23.9981 78.401 23.2043 78.9665 22.8669 79.8366C21.7952 82.5831 21.72 85.6744 22.6567 88.4797C23.5934 91.2849 25.4714 93.5926 27.9074 94.932L36.7581 99.7826C38.167 100.544 39.8141 100.544 41.2231 99.7826L50.0936 94.932C55.1539 92.1478 57.3765 85.5354 55.1341 79.8366C54.7967 78.9448 54.0228 78.401 53.1496 78.401Z" fill="#BB1D80"/>
<path d="M47.6787 78.401L49.6572 83.4473C49.9747 84.2739 50.709 84.7741 51.4829 84.7741C51.7409 84.7741 51.9989 84.7089 52.2568 84.5784C53.2491 84.1216 53.7253 82.8383 53.2887 81.729L51.981 78.401H47.6787Z" fill="#FF6DC6"/>
<g clip-path="url(#clip2_295_12)">
<path fill-rule="evenodd" clip-rule="evenodd" d="M243.5 38.875C244.528 38.875 245.513 39.2833 246.24 40.01C246.967 40.7367 247.375 41.7223 247.375 42.75V50.3334C247.495 51.6896 247.642 53.0459 247.797 54.3983C248.66 54.4925 249.465 54.8734 250.086 55.48C250.706 56.0865 251.105 56.8836 251.218 57.7437C251.331 58.6037 251.153 59.4769 250.711 60.2235C250.269 60.9701 249.59 61.5469 248.782 61.8615L249.026 63.4658C250.091 70.2935 251.703 78.462 253.993 85.375H255.125C255.992 85.3747 256.834 85.6651 257.516 86.1998C258.198 86.7345 258.682 87.4825 258.889 88.3243C259.096 89.166 259.015 90.053 258.659 90.8432C258.302 91.6334 257.691 92.2813 256.923 92.6833C257.613 94.1402 258.357 95.5817 259.132 97H262.875C263.827 96.9967 264.748 97.3442 265.46 97.9762C266.172 98.6083 266.627 99.4805 266.737 100.427C266.848 101.372 266.606 102.326 266.058 103.105C265.51 103.884 264.694 104.434 263.766 104.649C266.75 109.175 269.978 113.601 273.543 117.696C274.034 118.257 274.353 118.947 274.462 119.684C274.571 120.421 274.465 121.173 274.157 121.852C273.849 122.53 273.352 123.105 272.726 123.508C272.099 123.912 271.37 124.126 270.625 124.125H255.125C254.469 124.125 253.824 123.959 253.25 123.642C252.676 123.325 252.192 122.867 251.843 122.312L251.606 121.874C251.086 120.841 250.403 119.899 249.584 119.084C248.165 117.631 246.201 116.375 243.5 116.375C240.799 116.375 238.834 117.631 237.416 119.084C236.769 119.739 236.202 120.468 235.727 121.257L235.393 121.874C235.083 122.546 234.587 123.115 233.964 123.514C233.34 123.913 232.615 124.125 231.875 124.125H216.375C215.63 124.125 214.901 123.91 214.275 123.506C213.649 123.102 213.153 122.526 212.845 121.847C212.538 121.168 212.433 120.416 212.543 119.679C212.653 118.942 212.973 118.252 213.465 117.692C217.026 113.593 220.246 109.179 223.234 104.649C222.306 104.434 221.49 103.884 220.942 103.105C220.394 102.326 220.152 101.372 220.263 100.427C220.373 99.4805 220.827 98.6083 221.54 97.9762C222.252 97.3442 223.173 96.9967 224.125 97H227.868C228.643 95.5817 229.387 94.1364 230.077 92.6833C229.309 92.2813 228.698 91.6334 228.341 90.8432C227.985 90.053 227.904 89.166 228.111 88.3243C228.318 87.4825 228.801 86.7345 229.484 86.1998C230.166 85.6651 231.008 85.3747 231.875 85.375H233.006C235.041 79.2331 236.544 72.0915 237.598 65.7869L238.218 61.8615C237.41 61.5469 236.73 60.9701 236.289 60.2235C235.847 59.4769 235.668 58.6037 235.782 57.7437C235.895 56.8836 236.294 56.0865 236.914 55.48C237.534 54.8734 238.34 54.4925 239.203 54.3983C239.358 53.042 239.505 51.6858 239.629 50.3295V42.75C239.629 41.7223 240.037 40.7367 240.764 40.01C241.49 39.2833 242.472 38.875 243.5 38.875ZM254.66 104.75H232.34C229.901 108.755 227.263 112.635 224.435 116.375H229.666C230.209 115.573 230.941 114.624 231.875 113.666C234.239 111.244 238.087 108.625 243.5 108.625C248.913 108.625 252.761 111.244 255.125 113.666C256.063 114.624 256.791 115.573 257.334 116.375H262.565C259.737 112.635 257.099 108.755 254.66 104.75ZM248.627 93.125H238.373L237.513 95.0741L236.599 97H250.401L249.487 95.0741L248.627 93.125ZM243.5 76.1409C242.991 78.4742 242.42 80.7935 241.787 83.0965L241.136 85.375H245.871C244.968 82.3277 244.18 79.2474 243.508 76.1409H243.5Z" fill="#D80027"/>
</g>
<path d="M118.877 25.3692C115.981 23.4884 118.181 17.5552 119.279 15.336C120.32 13.1649 121.883 11.286 123.828 9.86785C124.728 9.17604 125.792 8.73021 126.916 8.57417C128.04 8.41814 129.186 8.55727 130.24 8.97791C133.092 10.2062 133.915 12.9247 135.899 14.9616C136.245 15.3856 136.695 15.7126 137.205 15.9109C137.715 16.1092 138.267 16.172 138.809 16.0931C139.35 16.0143 139.862 15.7964 140.294 15.4609C140.726 15.1253 141.064 14.6835 141.274 14.1785C142.759 9.77771 135.935 5.25206 133.126 3.42823C135.776 -0.652795 140.594 1.72734 143.598 4.11482C145.379 5.5325 146.983 7.16026 148.373 8.96267C149.228 10.0481 149.888 11.818 151.152 12.5139C153.073 13.5429 154.671 11.8983 154.779 10.003C154.979 5.51612 149.73 1.73341 146.505 -0.361142C149.355 -4.74934 153.692 -3.11808 156.907 -0.0945776C158.547 1.4969 160.002 3.26855 161.244 5.18667C162.05 6.39606 162.79 8.18674 164.289 8.56779C168.076 9.65419 166.979 4.13798 166.102 2.41425C165.469 1.23038 164.701 0.124288 163.813 -0.881634C162.856 -2.00212 161.322 -2.81088 163.295 -3.49498C165.939 -3.88642 168.64 -3.4793 171.052 -2.32578C175.825 -0.598193 181.666 2.94518 179.284 8.82257C177.83 11.798 175.359 14.1547 172.318 15.4663C163.689 19.8023 154.489 22.8914 144.992 24.6411C139.803 25.8114 134.525 26.5473 129.214 26.8411C125.994 26.996 121.73 27.2215 118.877 25.3692Z" fill="#0052B4"/>
</g>
<defs>
<clipPath id="clip0_295_12">
<rect width="428" height="122" rx="20" fill="white"/>
</clipPath>
<clipPath id="clip1_295_12">
<rect width="170" height="170" rx="85" transform="matrix(1 0 0 -1 276 149)" fill="white"/>
</clipPath>
<clipPath id="clip2_295_12">
<rect width="93" height="93" fill="white" transform="translate(197 35)"/>
</clipPath>
</defs>
</svg>
