<svg width="428" height="122" viewBox="0 0 428 122" fill="none" xmlns="http://www.w3.org/2000/svg">
<g clip-path="url(#clip0_290_123)">
<rect width="428" height="122" rx="20" fill="white"/>
<g clip-path="url(#clip1_290_123)">
<rect x="276" y="-24" width="170" height="170" rx="85" fill="white"/>
<path d="M276 -24.004H446V145.998H276V-24.004Z" fill="#D80027"/>
<path d="M276 -24.004H446V32.6613H276V-24.004Z" fill="black"/>
<path d="M276 89.3301H446V145.995H276V89.3301Z" fill="#FFDA44"/>
</g>
<path d="M99.1222 56.179C98.9091 55.4886 98.6151 54.8707 98.2401 54.3253C97.8736 53.7713 97.4304 53.2983 96.9105 52.9062C96.3991 52.5142 95.8111 52.2202 95.1463 52.0241C94.4815 51.8196 93.7571 51.7173 92.973 51.7173C91.5668 51.7173 90.3139 52.071 89.2145 52.7784C88.1151 53.4858 87.25 54.5256 86.6193 55.8977C85.9972 57.2614 85.6861 58.9233 85.6861 60.8835C85.6861 62.8608 85.9972 64.5355 86.6193 65.9077C87.2415 67.2798 88.1065 68.3239 89.2145 69.0398C90.3224 69.7472 91.6094 70.1009 93.0753 70.1009C94.4048 70.1009 95.5554 69.8452 96.527 69.3338C97.5071 68.8224 98.2614 68.098 98.7898 67.1605C99.3182 66.2145 99.5824 65.1065 99.5824 63.8366L100.656 64.0028H93.5483V60.2955H104.172V63.4403C104.172 65.6818 103.695 67.6207 102.74 69.2571C101.786 70.8935 100.473 72.1548 98.8026 73.0412C97.1321 73.919 95.2145 74.358 93.0497 74.358C90.6378 74.358 88.5199 73.8168 86.696 72.7344C84.8807 71.6435 83.4616 70.0966 82.4389 68.0938C81.4247 66.0824 80.9176 63.696 80.9176 60.9347C80.9176 58.821 81.2159 56.9332 81.8125 55.2713C82.4176 53.6094 83.2614 52.1989 84.3438 51.0398C85.4261 49.8722 86.696 48.9858 88.1534 48.3807C89.6108 47.767 91.196 47.4602 92.9091 47.4602C94.358 47.4602 95.7088 47.6733 96.9616 48.0994C98.2145 48.517 99.3267 49.1136 100.298 49.8892C101.278 50.6648 102.084 51.5852 102.714 52.6506C103.345 53.7159 103.759 54.892 103.955 56.179H99.1222ZM117.247 74.3835C115.278 74.3835 113.578 73.9744 112.146 73.1562C110.723 72.3295 109.627 71.1619 108.86 69.6534C108.093 68.1364 107.71 66.3509 107.71 64.2969C107.71 62.277 108.093 60.5043 108.86 58.9787C109.636 57.4446 110.718 56.2514 112.108 55.3991C113.497 54.5384 115.129 54.108 117.004 54.108C118.214 54.108 119.356 54.304 120.43 54.696C121.512 55.0795 122.467 55.6761 123.294 56.4858C124.129 57.2955 124.785 58.3267 125.262 59.5795C125.74 60.8239 125.978 62.3068 125.978 64.0284V65.4474H109.883V62.3281H121.542C121.534 61.4418 121.342 60.6534 120.967 59.9631C120.592 59.2642 120.068 58.7145 119.395 58.3139C118.73 57.9134 117.954 57.7131 117.068 57.7131C116.122 57.7131 115.291 57.9432 114.575 58.4034C113.859 58.8551 113.301 59.4517 112.9 60.1932C112.508 60.9261 112.308 61.7315 112.299 62.6094V65.3324C112.299 66.4744 112.508 67.4545 112.926 68.2727C113.343 69.0824 113.927 69.7045 114.677 70.1392C115.427 70.5653 116.305 70.7784 117.311 70.7784C117.984 70.7784 118.593 70.6847 119.139 70.4972C119.684 70.3011 120.157 70.0156 120.558 69.6406C120.958 69.2656 121.261 68.8011 121.466 68.2472L125.787 68.733C125.514 69.875 124.994 70.8722 124.227 71.7244C123.468 72.5682 122.497 73.2244 121.312 73.6932C120.127 74.1534 118.772 74.3835 117.247 74.3835ZM129.893 74V54.3636H134.381V57.6364H134.585C134.943 56.5028 135.557 55.6293 136.426 55.0156C137.304 54.3935 138.305 54.0824 139.43 54.0824C139.686 54.0824 139.972 54.0952 140.287 54.1207C140.611 54.1378 140.879 54.1676 141.092 54.2102V58.4673C140.896 58.3991 140.585 58.3395 140.159 58.2884C139.741 58.2287 139.337 58.1989 138.945 58.1989C138.101 58.1989 137.342 58.3821 136.669 58.7486C136.004 59.1065 135.48 59.6051 135.097 60.2443C134.713 60.8835 134.521 61.6207 134.521 62.456V74H129.893ZM144.167 74V54.3636H148.59V57.7003H148.82C149.229 56.5753 149.907 55.6974 150.853 55.0668C151.799 54.4276 152.928 54.108 154.241 54.108C155.57 54.108 156.691 54.4318 157.603 55.0795C158.523 55.7187 159.171 56.5923 159.546 57.7003H159.751C160.185 56.6094 160.918 55.7401 161.95 55.0923C162.989 54.4361 164.221 54.108 165.644 54.108C167.451 54.108 168.925 54.679 170.067 55.821C171.21 56.9631 171.781 58.6293 171.781 60.8196V74H167.14V61.5355C167.14 60.3168 166.816 59.4261 166.168 58.8636C165.521 58.2926 164.728 58.0071 163.79 58.0071C162.674 58.0071 161.8 58.3565 161.17 59.0554C160.548 59.7457 160.237 60.6449 160.237 61.7528V74H155.698V61.3438C155.698 60.3295 155.391 59.5199 154.778 58.9148C154.173 58.3097 153.38 58.0071 152.4 58.0071C151.735 58.0071 151.13 58.1776 150.585 58.5185C150.039 58.8509 149.604 59.3239 149.281 59.9375C148.957 60.5426 148.795 61.25 148.795 62.0597V74H144.167ZM182.126 74.3963C180.882 74.3963 179.761 74.1747 178.764 73.7315C177.775 73.2798 176.991 72.6151 176.412 71.7372C175.841 70.8594 175.555 69.777 175.555 68.4901C175.555 67.3821 175.76 66.4659 176.169 65.7415C176.578 65.017 177.136 64.4375 177.843 64.0028C178.551 63.5682 179.348 63.2401 180.234 63.0185C181.129 62.7884 182.054 62.6222 183.008 62.5199C184.159 62.4006 185.092 62.294 185.808 62.2003C186.524 62.098 187.044 61.9446 187.368 61.7401C187.7 61.527 187.866 61.1989 187.866 60.7557V60.679C187.866 59.7159 187.581 58.9702 187.01 58.4418C186.439 57.9134 185.616 57.6491 184.542 57.6491C183.409 57.6491 182.51 57.8963 181.845 58.3906C181.189 58.8849 180.745 59.4687 180.515 60.142L176.194 59.5284C176.535 58.3352 177.098 57.3381 177.882 56.5369C178.666 55.7273 179.625 55.1222 180.758 54.7216C181.892 54.3125 183.145 54.108 184.517 54.108C185.463 54.108 186.404 54.2188 187.342 54.4403C188.279 54.6619 189.136 55.0284 189.912 55.5398C190.687 56.0426 191.309 56.7287 191.778 57.598C192.255 58.4673 192.494 59.554 192.494 60.858V74H188.045V71.3026H187.892C187.61 71.848 187.214 72.3594 186.703 72.8366C186.2 73.3054 185.565 73.6847 184.798 73.9744C184.039 74.2557 183.149 74.3963 182.126 74.3963ZM183.328 70.9957C184.257 70.9957 185.062 70.8125 185.744 70.446C186.426 70.071 186.95 69.5767 187.316 68.9631C187.691 68.3494 187.879 67.6804 187.879 66.956V64.642C187.734 64.7614 187.487 64.8722 187.137 64.9744C186.797 65.0767 186.413 65.1662 185.987 65.2429C185.561 65.3196 185.139 65.3878 184.721 65.4474C184.304 65.5071 183.941 65.5582 183.635 65.6009C182.944 65.6946 182.326 65.848 181.781 66.0611C181.235 66.2741 180.805 66.5724 180.49 66.956C180.174 67.331 180.017 67.8168 180.017 68.4134C180.017 69.2656 180.328 69.9091 180.95 70.3438C181.572 70.7784 182.365 70.9957 183.328 70.9957ZM201.775 62.4943V74H197.147V54.3636H201.571V57.7003H201.801C202.252 56.6009 202.973 55.7273 203.961 55.0795C204.958 54.4318 206.19 54.108 207.656 54.108C209.011 54.108 210.191 54.3977 211.197 54.9773C212.211 55.5568 212.995 56.3963 213.549 57.4957C214.112 58.5952 214.389 59.929 214.38 61.4972V74H209.752V62.2131C209.752 60.9006 209.412 59.8736 208.73 59.1321C208.056 58.3906 207.123 58.0199 205.93 58.0199C205.12 58.0199 204.4 58.1989 203.77 58.5568C203.147 58.9062 202.657 59.4134 202.299 60.0781C201.95 60.7429 201.775 61.5483 201.775 62.4943Z" fill="black"/>
<path d="M-8 60.54H18.6M41.4 60.54H68M68 77.26H46.872C42.578 77.26 40.4348 77.26 39.2948 75.7286C38.1548 74.201 38.5766 71.8868 39.4164 67.2622L39.5836 66.3578C40.4196 61.7332 40.8452 59.419 39.7014 57.8914C38.5614 56.36 36.4182 56.36 32.128 56.36H27.872C23.578 56.36 21.4386 56.36 20.2948 57.8914C19.1548 59.419 19.5766 61.7332 20.4164 66.3578L20.5836 67.2622C21.4196 71.8868 21.8452 74.201 20.7052 75.7286C19.5652 77.2562 17.4182 77.26 13.128 77.26H-8M35.7 56.36C35.7 54.27 36.46 49.672 39.5 48M24.3 56.36C24.3 54.27 23.54 49.672 20.5 48M-4.2 60.54V124M64.2 60.54V124M52.8 77.26V124M41.4 124V77.26H18.6V124M7.2 77.26V124M-8 124H68" stroke="black" stroke-width="3" stroke-linecap="round" stroke-linejoin="round"/>
<g clip-path="url(#clip2_290_123)">
<path d="M111 -8C104.36 -8 99 -2.64 99 4C99 10.64 104.36 16 111 16C117.64 16 123 10.64 123 4C123 -2.64 117.64 -8 111 -8ZM111 -6.59C112.2 -6.59 113.36 -6.37 114.43 -6L111.13 1.13C111.09 1.17 111.09 1.26 111 1.26C110.91 1.26 110.91 1.17 110.87 1.13L107.57 -6C108.64 -6.37 109.8 -6.58 111 -6.58M105.9 -5.26L109.72 2.97C109.8 3.14 109.89 3.19 110 3.19H112C112.12 3.19 112.2 3.14 112.29 2.97L116.06 -5.26C117.64 -4.36 119 -3.07 119.96 -1.53L114.6 8.84C114.56 8.93 114.5 8.97 114.47 8.97C114.39 8.97 114.39 8.89 114.34 8.84L112.29 4.3C112.2 4.13 112.12 4.09 112 4.09H110C109.89 4.09 109.8 4.13 109.71 4.3L107.66 8.84C107.61 8.89 107.62 8.97 107.53 8.97C107.44 8.97 107.44 8.89 107.4 8.84L102 -1.53C102.94 -3.07 104.32 -4.36 105.9 -5.26ZM101.06 0.53L107.23 12.53C107.31 12.7 107.4 12.83 107.62 12.83C107.83 12.83 107.91 12.7 108 12.53L110.87 6.14C110.91 6.06 110.96 6 111 6C111.09 6 111.09 6.1 111.13 6.14L114.04 12.53C114.13 12.7 114.21 12.83 114.43 12.83C114.64 12.83 114.73 12.7 114.81 12.53L121 0.53C121.37 1.6 121.59 2.76 121.59 4C121.54 9.79 116.79 14.59 111 14.59C105.21 14.59 100.46 9.79 100.46 4C100.46 2.8 100.67 1.65 101.06 0.53Z" fill="black"/>
</g>
<g clip-path="url(#clip3_290_123)">
<path d="M123 14C128.519 14 133 18.4808 133 24C133 29.5192 128.519 34 123 34C117.481 34 113 29.5192 113 24C113 18.4808 117.481 14 123 14ZM115.704 28.6158C116.483 29.8465 117.56 30.8601 118.836 31.5626C120.111 32.265 121.544 32.6333 123 32.6333C126.068 32.6333 128.764 31.03 130.296 28.6158L123 25.8358L115.704 28.6158ZM124.59 23.0817L130.646 28.0108C131.297 26.7742 131.636 25.3974 131.633 24C131.633 19.3525 127.952 15.5575 123.35 15.3733L124.59 23.0817ZM122.65 15.3733C118.048 15.5575 114.367 19.3525 114.367 24C114.367 25.4475 114.723 26.8117 115.354 28.0108L121.41 23.0817L122.65 15.3733Z" fill="#FFDA44"/>
</g>
<g clip-path="url(#clip4_290_123)">
<path d="M133.5 -2C128.806 -2 125 1.80588 125 6.5C125 11.1941 128.806 15 133.5 15C138.194 15 142 11.1941 142 6.5C142 1.80588 138.194 -2 133.5 -2ZM133.5 -1.4475C137.889 -1.4475 141.447 2.11046 141.447 6.5C141.447 10.8888 137.89 14.4468 133.5 14.4468C129.11 14.4468 125.553 10.8888 125.553 6.5C125.553 2.11117 129.111 -1.4475 133.5 -1.4475ZM133.02 -1.00125C132.786 -0.990861 132.552 -0.972444 132.317 -0.946L132.241 1.13933C132.408 1.11114 132.576 1.08893 132.744 1.07275L132.794 -0.335417L132.785 -0.432458L132.815 -0.340375L133.285 0.714333H133.715L134.185 -0.339667L134.213 -0.432458L134.206 -0.335417L134.256 1.07275C134.42 1.08833 134.591 1.111 134.759 1.13933L134.681 -0.946C134.448 -0.972183 134.214 -0.990609 133.979 -1.00125L133.516 0.149792L133.5 0.234792L133.484 0.149792L133.02 -1.00125ZM137.763 0.29075L136.67 2.01058C136.808 2.11683 136.99 2.27338 137.107 2.38033L138.136 1.84625L138.201 1.79737L138.152 1.86396L137.62 2.89317C137.735 3.01712 137.902 3.21758 137.995 3.33942L139.716 2.24575C139.611 2.10918 139.502 1.97503 139.39 1.84342L138.3 2.56167L138.226 2.62683L138.281 2.54537L138.763 1.58487L138.423 1.24487L137.462 1.72654L137.381 1.78179L137.445 1.70671L138.166 0.616583C138.039 0.508917 137.918 0.410458 137.763 0.29075ZM128.896 0.681042C128.641 0.70725 128.444 0.8815 127.909 1.47792C127.724 1.68809 127.545 1.904 127.373 2.12533L128.842 3.51862C129.329 2.98029 129.526 2.78054 129.91 2.37608C130.181 2.08921 130.335 1.75983 130.063 1.44321C129.916 1.27179 129.668 1.23425 129.461 1.31925L129.441 1.32633L129.448 1.30792C129.474 1.21393 129.471 1.1145 129.441 1.02204C129.41 0.929576 129.353 0.848177 129.276 0.788C129.223 0.745891 129.162 0.714805 129.097 0.696561C129.031 0.678318 128.963 0.672574 128.896 0.681042ZM128.9 1.11667C128.996 1.09046 129.096 1.15917 129.118 1.25833C129.141 1.3575 129.079 1.451 129.009 1.52892C128.853 1.706 128.279 2.30667 128.279 2.30667L127.994 2.03538C128.289 1.67412 128.604 1.34546 128.746 1.21512C128.789 1.1706 128.842 1.13685 128.9 1.11667ZM133.5 1.45879C132.252 1.45824 131.049 1.92067 130.122 2.75656C129.196 3.59245 128.612 4.74234 128.485 5.98362V5.98504C128.405 6.77256 128.511 7.56787 128.796 8.30665C129.08 9.04544 129.534 9.70696 130.121 10.2377C130.708 10.7685 131.412 11.1537 132.176 11.362C132.94 11.5704 133.742 11.5961 134.517 11.4371C135.654 11.2037 136.675 10.5849 137.408 9.68526C138.141 8.78566 138.541 7.66048 138.54 6.5C138.54 5.16353 138.008 3.88208 137.063 2.93711C136.118 1.99215 134.836 1.46096 133.5 1.46021V1.45879ZM129.578 1.63021C129.612 1.62974 129.645 1.63989 129.677 1.66067C129.739 1.70246 129.768 1.774 129.752 1.84483C129.734 1.92912 129.664 2.00846 129.607 2.07008L128.867 2.86342L128.569 2.58008C128.569 2.58008 129.127 1.99075 129.309 1.80163C129.382 1.72654 129.428 1.68121 129.478 1.65642C129.509 1.63971 129.543 1.63072 129.578 1.63021ZM133.5 2.12108C134.075 2.12043 134.645 2.23325 135.177 2.45308C135.708 2.67291 136.191 2.99543 136.598 3.40218C137.005 3.80893 137.327 4.29192 137.547 4.82349C137.767 5.35506 137.88 5.92477 137.879 6.5H133.5V10.8789C132.925 10.8796 132.355 10.7667 131.823 10.5469C131.292 10.3271 130.809 10.0046 130.402 9.59782C129.995 9.19107 129.673 8.70808 129.453 8.17651C129.233 7.64494 129.12 7.07523 129.121 6.5H133.5V2.12108Z" fill="#D80027"/>
</g>
<path d="M217.474 88.0792C214.262 87.097 211.968 87.8067 209.927 89.5064C208.711 88.9354 207.537 88.4202 206.53 88.1124C203.279 87.1183 200.007 87.9041 197.42 89.4144C194.921 90.8717 192.946 92.9784 191.139 95.1394C191.126 95.1441 191.069 95.1068 191.058 95.1148C186.8 99.3678 181.885 105.164 170.699 106.752C162.366 107.962 157.294 111.898 154.893 116.588C152.436 117.247 150.583 118.769 149.523 122.236C147.87 127.641 150.816 131.961 155.27 134.836C157.128 138.646 160.24 141.688 164.834 143.093C172.819 145.534 183.806 143.147 198.616 134.933L198.696 134.957C214.927 126.321 222.153 117.253 224.393 109.925C225.85 105.16 225.566 101.364 223.578 98.9249C226.116 93.2187 221.352 89.2649 217.474 88.0792ZM204.94 93.3147C205.275 93.4173 205.705 93.6027 206.136 93.7657C202.22 99.0478 197.565 106.635 187.076 112.206C176.98 117.718 168.302 116.632 161.661 116.257C163.542 114.357 166.5 112.858 171.453 112.14C184.312 110.306 190.829 103.02 194.841 99.0244C194.925 98.9621 194.999 98.8965 195.077 98.8292C196.705 96.8525 198.483 95.0639 200.173 94.0786C201.864 93.094 203.305 92.8119 204.941 93.3121L204.94 93.3147ZM215.449 101.681C216.778 102.022 218.19 102.707 219.752 103.887C219.845 104.883 219.806 106.324 219.191 108.335C217.545 113.719 211.612 121.963 196.157 130.182L196.052 130.238C185.908 135.869 178.038 138.176 172.299 138.443C166.352 136.201 161.054 129.471 189.839 119.45C201.487 115.4 206.103 99.3248 215.449 101.681Z" fill="#AD1519"/>
<path d="M220.472 14.5591C220.677 11.6736 223.053 8.93976 226.283 8.19396C227.854 7.83134 229.444 7.99348 230.801 8.44033C231.768 8.75293 232.669 9.24359 233.456 9.88703L234.966 9.53836C236.442 9.19767 237.992 9.45715 239.277 10.2597C240.561 11.0623 241.474 12.3422 241.815 13.8179L241.82 13.8402C241.907 14.217 242.137 15.2122 242.179 16.2455L243.955 15.8356C244.745 15.6531 245.677 15.649 246.504 16.1848C247.321 16.7129 247.7 17.5497 247.875 18.3081L250.805 30.9991C250.98 31.7558 251.007 32.6789 250.489 33.5118C249.972 34.3478 249.129 34.7351 248.36 34.9127L245.18 35.6467L245.547 37.2365C245.722 37.9932 245.749 38.9163 245.231 39.7492C244.714 40.5852 243.871 40.9724 243.102 41.1501L228.794 44.4533C228.024 44.6309 227.098 44.6522 226.264 44.1281C225.435 43.6077 225.055 42.7646 224.88 42.0078L222.983 33.7888C221.976 33.6746 221.03 33.2512 220.275 32.5769C219.519 31.9026 218.992 31.0106 218.764 30.0238L216.562 20.4852C216.27 19.2203 216.493 17.8912 217.181 16.7903C217.868 15.6894 218.966 14.9069 220.23 14.6149L220.472 14.5591ZM226.162 33.0547L228.06 41.2738L242.368 37.9706L238.33 20.4832L227.202 23.0524L228.303 27.8216C228.531 28.8082 228.448 29.8413 228.065 30.7786C227.681 31.7158 227.016 32.5111 226.162 33.0547ZM241.51 19.7491L244.446 32.4672L247.625 31.7332L244.689 19.0151L241.51 19.7491ZM238.892 17.0045C238.912 16.8983 238.922 16.7396 238.923 16.5286C238.917 15.7915 238.73 14.9606 238.635 14.552C238.489 13.9195 238.098 13.371 237.548 13.027C236.997 12.6831 236.333 12.5719 235.7 12.7179L232.333 13.4952L231.691 12.7174C231.35 12.304 230.679 11.8359 229.778 11.5398C228.897 11.2476 227.919 11.1654 227.017 11.3735C224.59 11.9339 223.467 14.1256 223.777 15.4706L224.144 17.0603L220.965 17.7944C220.543 17.8917 220.177 18.1526 219.948 18.5195C219.719 18.8865 219.644 19.3295 219.742 19.7512L221.944 29.2897C222.041 29.7114 222.302 30.0771 222.669 30.3064C223.036 30.5357 223.479 30.6098 223.901 30.5125C224.322 30.4151 224.688 30.1543 224.917 29.7873C225.147 29.4204 225.221 28.9773 225.123 28.5557L223.288 20.6069L238.892 17.0045Z" fill="#FFDA44"/>
</g>
<defs>
<clipPath id="clip0_290_123">
<rect width="428" height="122" rx="20" fill="white"/>
</clipPath>
<clipPath id="clip1_290_123">
<rect x="276" y="-24" width="170" height="170" rx="85" fill="white"/>
</clipPath>
<clipPath id="clip2_290_123">
<rect width="24" height="24" fill="white" transform="translate(99 -8)"/>
</clipPath>
<clipPath id="clip3_290_123">
<rect width="20" height="20" fill="white" transform="translate(113 14)"/>
</clipPath>
<clipPath id="clip4_290_123">
<rect width="17" height="17" fill="white" transform="translate(125 -2)"/>
</clipPath>
</defs>
</svg>
