<svg width="428" height="122" viewBox="0 0 428 122" fill="none" xmlns="http://www.w3.org/2000/svg">
<g clip-path="url(#clip0_610_3900)">
<rect width="428" height="122" rx="20" fill="white"/>
<path d="M70.5563 43.7907L66.3671 23.4942C66.2501 22.927 66.0079 22.3931 65.658 21.9316C65.3082 21.4701 64.8596 21.0926 64.3451 20.8267L35.455 5.90303L36.6246 4.12082C37.0923 3.4102 37.4153 2.6144 37.5754 1.77889C37.7354 0.943378 37.7293 0.0845187 37.5573 -0.748623C37.3854 -1.58177 37.051 -2.37287 36.5732 -3.07673C36.0954 -3.7806 35.4836 -4.38344 34.7728 -4.85082L28.3874 -9.05128C27.6768 -9.51895 26.881 -9.84203 26.0455 -10.0021C25.21 -10.1621 24.3511 -10.156 23.518 -9.98402C22.6849 -9.81206 21.8938 -9.47764 21.1899 -8.99987C20.486 -8.5221 19.8832 -7.91033 19.4158 -7.19952L15.5991 -1.40583L7.50167 -6.72428C6.06683 -7.66784 4.31598 -8.0029 2.63414 -7.65576C0.952303 -7.30863 -0.522808 -6.30773 -1.4668 -4.87317L-5.66726 1.51221C-6.61082 2.94706 -6.94588 4.69791 -6.59875 6.37975C-6.25161 8.06158 -5.25071 9.53669 -3.81616 10.4807L4.27371 15.8106L0.458969 21.6138C-0.00869975 22.3244 -0.331782 23.1202 -0.491824 23.9557C-0.651867 24.7913 -0.645735 25.6501 -0.473773 26.4833C-0.301812 27.3164 0.0326099 28.1075 0.510383 28.8114C0.988155 29.5152 1.59992 30.1181 2.31073 30.5855L8.69612 34.7859C9.4069 35.254 10.203 35.5775 11.0388 35.7378C11.8747 35.898 12.734 35.892 13.5675 35.7199C14.401 35.5479 15.1924 35.2132 15.8965 34.7351C16.6006 34.257 17.2036 33.6448 17.6709 32.9335L18.8412 31.1545L43.9839 51.7749C44.4328 52.1421 44.9582 52.4042 45.5216 52.542C46.085 52.6797 46.6721 52.6896 47.2397 52.5709L67.5362 48.3817C68.5455 48.1734 69.4307 47.5727 69.997 46.7117C70.5634 45.8507 70.7646 44.8 70.5563 43.7907ZM1.53749 4.70042L4.30592 0.491951L11.3206 5.09816L8.55219 9.30662L1.53749 4.70042ZM7.66942 24.7975L25.1954 -1.84904L29.4072 0.93524L11.878 27.5825L7.66942 24.7975ZM47.486 44.5847L23.1398 24.6199L25.0136 21.7798L43.1872 33.7375C44.0497 34.3049 45.1022 34.5064 46.1133 34.2977C47.1243 34.089 48.0111 33.4872 48.5784 32.6247C49.1458 31.7623 49.3473 30.7097 49.1386 29.6987C48.9299 28.6876 48.3281 27.8009 47.4657 27.2335L29.2921 15.2758L31.1639 12.4261L59.131 26.8824L62.1596 41.556L47.486 44.5847Z" fill="#FFAF36"/>
<g clip-path="url(#clip1_610_3900)">
<path d="M57.6488 98.1442L25.8611 85.67C24.3282 85.0685 22.6192 85.1006 21.11 85.7591C19.6008 86.4177 18.415 87.6488 17.8135 89.1816L4.20534 123.859L1.31555 122.725C-0.217287 122.124 -1.9263 122.156 -3.43552 122.814C-4.94473 123.473 -6.13053 124.704 -6.73205 126.237C-7.33357 127.77 -7.30153 129.479 -6.64298 130.988C-5.98443 132.497 -4.75333 133.683 -3.22049 134.284L31.457 147.892C32.9899 148.494 34.6989 148.462 36.2081 147.803C37.7173 147.145 38.9031 145.914 39.5046 144.381L53.1127 109.703C54.6456 110.305 56.3546 110.273 57.8638 109.614C59.373 108.956 60.5588 107.725 61.1603 106.192C61.7619 104.659 61.7298 102.95 61.0713 101.441C60.4127 99.9315 59.1816 98.7457 57.6488 98.1442Z" fill="#FFD983"/>
<path d="M17.3012 98.9851L51.9787 112.593L53.1127 109.703L21.325 97.2293L19.0022 94.6504L17.3012 98.9851Z" fill="#E39F3D"/>
<path d="M25.8611 85.6701C24.3282 85.0685 22.6192 85.1006 21.11 85.7591C19.6008 86.4177 18.415 87.6488 17.8135 89.1816L3.89066 124.661C3.21995 123.798 2.33096 123.13 1.31556 122.725C0.172462 122.277 -1.07798 122.177 -2.27764 122.439C-3.4773 122.701 -4.5723 123.313 -5.42417 124.198C-6.27604 125.082 -6.84652 126.199 -7.06346 127.408C-7.28041 128.616 -7.13408 129.862 -6.64298 130.988C-6.15188 132.113 -5.33806 133.068 -4.30445 133.731C-3.27083 134.394 -2.06383 134.735 -0.836092 134.712C0.39165 134.689 1.58499 134.303 2.59304 133.601C3.60108 132.9 4.37855 131.916 4.82712 130.773L18.7499 95.2933C19.4074 96.1249 20.2674 96.8142 21.325 97.2292C22.8579 97.8307 24.5669 97.7987 26.0761 97.1401C27.5853 96.4816 28.7711 95.2505 29.3726 93.7177C29.9741 92.1848 29.9421 90.4758 29.2836 88.9666C28.625 87.4574 27.3939 86.2716 25.8611 85.6701Z" fill="#FFE8B6"/>
<path d="M26.4828 92.5833C26.3338 92.9629 26.1114 93.3094 25.8285 93.603C25.5455 93.8966 25.2075 94.1316 24.8337 94.2946C24.4599 94.4576 24.0577 94.5454 23.65 94.5529C23.2423 94.5604 22.8371 94.4876 22.4576 94.3386C22.078 94.1895 21.7315 93.9671 21.4379 93.6842C21.1443 93.4012 20.9093 93.0632 20.7463 92.6894C20.5833 92.3157 20.4956 91.9134 20.488 91.5057C20.4805 91.098 20.5533 90.6929 20.7024 90.3133C21.0034 89.5468 21.5966 88.9312 22.3515 88.602C23.1063 88.2729 23.9611 88.2571 24.7276 88.5581C25.4941 88.8591 26.1097 89.4523 26.4389 90.2072C26.768 90.9621 26.7838 91.8168 26.4828 92.5833ZM1.9373 129.638C1.78825 130.018 1.5659 130.364 1.28295 130.658C0.999993 130.952 0.661977 131.187 0.288198 131.35C-0.0855804 131.513 -0.487801 131.6 -0.895499 131.608C-1.3032 131.615 -1.70839 131.543 -2.08794 131.394C-2.46749 131.245 -2.81397 131.022 -3.10759 130.739C-3.40121 130.456 -3.63622 130.118 -3.79921 129.744C-3.96219 129.371 -4.04996 128.968 -4.0575 128.561C-4.06504 128.153 -3.99221 127.748 -3.84316 127.368C-3.54213 126.602 -2.94893 125.986 -2.19405 125.657C-1.43917 125.328 -0.584447 125.312 0.18209 125.613C0.948627 125.914 1.56419 126.507 1.89335 127.262C2.22252 128.017 2.23833 128.872 1.9373 129.638ZM46.2539 118.683C46.1035 119.066 45.8071 119.374 45.4298 119.539C45.0524 119.704 44.6252 119.712 44.242 119.561L18.2339 109.355C17.8507 109.205 17.5429 108.908 17.3782 108.531C17.2136 108.154 17.2056 107.726 17.356 107.343C17.5064 106.96 17.8028 106.652 18.1801 106.488C18.5574 106.323 18.9847 106.315 19.3679 106.465L45.376 116.671C45.7592 116.822 46.067 117.118 46.2316 117.496C46.3963 117.873 46.4043 118.3 46.2539 118.683ZM43.9859 124.463C43.8355 124.846 43.539 125.154 43.1617 125.318C42.7844 125.483 42.3572 125.491 41.974 125.341L15.9658 115.135C15.5826 114.984 15.2749 114.688 15.1102 114.311C14.9456 113.933 14.9376 113.506 15.088 113.123C15.2383 112.74 15.5348 112.432 15.9121 112.267C16.2894 112.103 16.7166 112.094 17.0999 112.245L43.108 122.451C43.4912 122.601 43.799 122.898 43.9636 123.275C44.1282 123.652 44.1362 124.08 43.9859 124.463ZM41.7178 130.242C41.5675 130.626 41.271 130.933 40.8937 131.098C40.5164 131.263 40.0892 131.271 39.7059 131.12L13.6978 120.914C13.3146 120.764 13.0068 120.467 12.8422 120.09C12.6776 119.713 12.6696 119.286 12.8199 118.902C12.9703 118.519 13.2668 118.211 13.6441 118.047C14.0214 117.882 14.4486 117.874 14.8318 118.024L40.84 128.231C41.2232 128.381 41.5309 128.677 41.6956 129.055C41.8602 129.432 41.8682 129.859 41.7178 130.242ZM39.4498 136.022C39.2994 136.405 39.003 136.713 38.6257 136.878C38.2484 137.042 37.8211 137.05 37.4379 136.9L11.4298 126.694C11.0466 126.543 10.7388 126.247 10.5742 125.87C10.4095 125.492 10.4015 125.065 10.5519 124.682C10.7023 124.299 10.9987 123.991 11.376 123.826C11.7534 123.662 12.1806 123.654 12.5638 123.804L38.5719 134.01C38.9551 134.161 39.2629 134.457 39.4276 134.834C39.5922 135.212 39.6002 135.639 39.4498 136.022Z" fill="#C1694F"/>
</g>
<path d="M228.355 10.7713C226.77 10.3679 225.174 10.284 223.557 10.8389L216.961 16.8916C216.621 17.5137 216.6 18.1525 216.578 18.7913C216.472 21.9855 218.126 25.1123 220.956 26.541L221.429 26.7258C222.057 27.0788 222.695 27.1124 223.334 27.1459C223.807 27.3308 224.291 27.1963 224.765 27.3812C225.887 27.2802 227.009 27.1792 228.286 27.2464C231.158 27.3974 233.483 29.5995 234.201 32.037C234.871 31.1124 235.233 29.8515 235.275 28.5738C235.898 24.2869 233.648 19.8489 229.563 17.7142L229.254 17.378C229.1 17.2099 229.111 16.8905 229.121 16.5711C229.132 16.2517 229.616 16.1171 229.935 16.1339L230.254 16.1507C232.478 16.5876 234.494 18.4535 235.376 20.7397C235.627 18.0331 234.446 15.0912 232.275 13.0572C231.813 12.5529 231.185 12.2 230.557 11.847C230.095 11.3427 229.148 10.9729 228.355 10.7713ZM224.568 18.8915C225.174 19.8833 226.121 20.253 226.903 20.7741C227.685 21.2952 228.302 21.9676 228.589 22.9426L227.169 22.388C225.584 21.9847 224.121 22.7077 222.557 21.6655L222.094 21.1612C221.323 20.3207 220.882 19.1776 220.914 18.2194C221.089 17.7486 221.11 17.1098 221.44 16.8072C222.121 15.5631 223.738 15.0081 225.015 15.0753C223.696 16.2858 223.961 17.8997 224.568 18.8915ZM214.1 16.4212L211.015 13.0592L212.664 11.546L201.972 -3.41507L205.27 -6.44141L219.26 5.49334L220.908 3.98017L223.994 7.34215L214.1 16.4212Z" fill="#FF5736"/>
<path d="M339.3 33L388.6 120H290L339.3 33Z" stroke="#FFAF36" stroke-width="6" stroke-linejoin="round"/>
<path d="M384.25 120H406L382.8 79.4004L374.1 93.9004" stroke="#FFAF36" stroke-width="6" stroke-linecap="round" stroke-linejoin="round"/>
<path d="M339.3 33L316.1 120" stroke="#FFAF36" stroke-width="6" stroke-linecap="round" stroke-linejoin="round"/>
<path fill-rule="evenodd" clip-rule="evenodd" d="M207.474 104.808C207.548 105.054 207.717 105.26 207.943 105.381C208.169 105.502 208.434 105.528 208.679 105.454C208.925 105.379 209.131 105.21 209.251 104.984C209.372 104.758 209.399 104.494 209.324 104.248L209.044 103.323L210.895 102.763C211.385 102.614 211.797 102.277 212.039 101.824C212.281 101.372 212.333 100.843 212.185 100.352L211.064 96.6513C210.915 96.1605 210.578 95.7489 210.126 95.507C209.674 95.2651 209.144 95.2126 208.653 95.3612L203.102 97.0423C202.611 97.1909 202.2 97.5283 201.958 97.9804C201.716 98.4325 201.663 98.9622 201.812 99.4529L202.933 103.154C203.081 103.644 203.419 104.056 203.871 104.298C204.323 104.54 204.853 104.592 205.343 104.444L207.194 103.883L207.474 104.808ZM209.213 97.2116L203.662 98.8926L204.783 102.593L210.334 100.912L209.213 97.2116ZM199.903 113.161C199.829 112.916 199.855 112.651 199.976 112.425C200.097 112.199 200.303 112.03 200.548 111.956C200.794 111.882 201.058 111.908 201.285 112.029C201.511 112.15 201.679 112.356 201.754 112.601C201.828 112.846 201.802 113.111 201.681 113.337C201.56 113.563 201.354 113.732 201.109 113.806C200.863 113.881 200.598 113.854 200.372 113.733C200.146 113.612 199.978 113.407 199.903 113.161ZM201.669 115.657C201.095 115.831 200.481 115.823 199.912 115.633C199.342 115.444 198.846 115.083 198.49 114.599L197.408 114.927C197.163 115.001 196.898 114.975 196.672 114.854C196.446 114.733 196.277 114.527 196.203 114.282C196.128 114.037 196.154 113.772 196.275 113.546C196.396 113.32 196.602 113.151 196.848 113.077L197.93 112.749C197.957 112.149 198.169 111.572 198.537 111.098C198.905 110.624 199.412 110.275 199.987 110.101C200.561 109.927 201.176 109.936 201.746 110.126C202.315 110.316 202.812 110.679 203.166 111.163L207.182 109.947C207.208 109.347 207.42 108.77 207.789 108.296C208.157 107.822 208.664 107.474 209.238 107.3C209.813 107.126 210.428 107.134 210.997 107.325C211.567 107.515 212.063 107.877 212.418 108.361L216.434 107.145C216.46 106.545 216.672 105.969 217.041 105.494C217.409 105.02 217.915 104.672 218.49 104.498C219.065 104.324 219.679 104.333 220.249 104.523C220.819 104.713 221.315 105.075 221.67 105.56L222.752 105.232C222.998 105.158 223.263 105.184 223.489 105.305C223.715 105.426 223.883 105.631 223.958 105.877C224.032 106.122 224.006 106.387 223.885 106.613C223.764 106.839 223.558 107.008 223.313 107.082L222.23 107.41C222.204 108.01 221.992 108.587 221.623 109.061C221.255 109.535 220.748 109.883 220.174 110.057C219.599 110.231 218.984 110.223 218.415 110.033C217.845 109.842 217.349 109.48 216.994 108.996L212.979 110.212C212.952 110.812 212.74 111.388 212.372 111.863C212.003 112.337 211.497 112.685 210.922 112.859C210.347 113.033 209.733 113.024 209.163 112.834C208.593 112.644 208.097 112.282 207.742 111.797L203.727 113.013C203.699 113.613 203.487 114.189 203.118 114.662C202.75 115.136 202.243 115.483 201.669 115.657ZM220.257 106.998C220.183 106.752 220.014 106.546 219.788 106.425C219.562 106.304 219.297 106.278 219.052 106.353C218.806 106.427 218.601 106.596 218.48 106.822C218.359 107.048 218.332 107.312 218.407 107.558C218.481 107.803 218.65 108.009 218.876 108.13C219.102 108.251 219.367 108.277 219.612 108.203C219.857 108.129 220.063 107.96 220.184 107.734C220.305 107.508 220.331 107.243 220.257 106.998ZM211.005 109.799C210.931 109.554 210.762 109.348 210.536 109.227C210.31 109.106 210.045 109.08 209.8 109.154C209.555 109.229 209.349 109.397 209.228 109.623C209.107 109.849 209.081 110.114 209.155 110.36C209.229 110.605 209.398 110.811 209.624 110.932C209.85 111.053 210.115 111.079 210.36 111.005C210.606 110.93 210.812 110.762 210.932 110.535C211.053 110.309 211.08 110.045 211.005 109.799ZM202.229 117.507C201.984 117.581 201.778 117.75 201.657 117.976C201.536 118.202 201.51 118.467 201.584 118.712L201.864 119.637L200.014 120.198C199.523 120.346 199.112 120.684 198.87 121.136C198.628 121.588 198.575 122.118 198.724 122.609L199.845 126.309C199.993 126.8 200.331 127.212 200.783 127.453C201.235 127.695 201.765 127.748 202.255 127.599L207.806 125.918C208.297 125.77 208.709 125.432 208.951 124.98C209.193 124.528 209.245 123.998 209.097 123.508L207.976 119.807C207.827 119.316 207.49 118.904 207.038 118.663C206.586 118.421 206.056 118.368 205.565 118.517L203.715 119.077L203.435 118.152C203.36 117.907 203.192 117.701 202.966 117.58C202.739 117.459 202.475 117.433 202.229 117.507ZM207.246 124.068L206.125 120.367L200.574 122.048L201.695 125.749L207.246 124.068ZM220.088 113.109C220.013 112.864 220.04 112.599 220.161 112.373C220.282 112.147 220.487 111.978 220.733 111.904C220.978 111.829 221.243 111.855 221.469 111.976C221.695 112.097 221.864 112.303 221.938 112.549L222.218 113.474L224.069 112.913C224.559 112.765 225.089 112.817 225.541 113.059C225.993 113.301 226.331 113.713 226.479 114.203L227.6 117.904C227.749 118.395 227.696 118.925 227.454 119.377C227.212 119.829 226.801 120.166 226.31 120.315L220.759 121.996C220.268 122.144 219.739 122.092 219.286 121.85C218.834 121.608 218.497 121.197 218.348 120.706L217.228 117.005C217.079 116.514 217.131 115.985 217.373 115.533C217.615 115.08 218.027 114.743 218.518 114.594L220.368 114.034L220.088 113.109ZM225.189 116.614L225.75 118.464L220.199 120.145L219.078 116.445L224.629 114.764L225.189 116.614Z" fill="#FF5736"/>
<path d="M390 25.9116L390.708 24.1388L393.913 25.4188L396.037 20.1002C396.911 17.9113 398.357 16.2379 400.375 15.08C402.393 13.922 404.518 13.5953 406.749 14.0998C404.794 12.9079 403.481 11.2023 402.81 8.98306C402.14 6.76382 402.242 4.55999 403.117 2.37156L405.241 -2.94705L402.036 -4.22713L402.744 -6L427.564 3.91216L426.856 5.68503L423.651 4.40494L421.527 9.72355C420.653 11.9124 419.209 13.5806 417.195 14.7279C415.182 15.8752 413.055 16.2072 410.816 15.724C412.78 16.8923 414.095 18.5925 414.76 20.8248C415.425 23.0542 415.321 25.2633 414.447 27.4522L412.323 32.7708L415.528 34.0509L414.82 35.8238L390 25.9116Z" fill="#FF5736"/>
</g>
<defs>
<clipPath id="clip0_610_3900">
<rect width="428" height="122" rx="20" fill="white"/>
</clipPath>
<clipPath id="clip1_610_3900">
<rect width="55.878" height="55.878" fill="white" transform="translate(11.4121 80) rotate(21.426)"/>
</clipPath>
</defs>
</svg>
