<svg width="18" height="18" viewBox="0 0 18 18" fill="none" xmlns="http://www.w3.org/2000/svg">
<path d="M9.85662 0.666504C10.7941 0.669004 11.27 0.674004 11.6808 0.685671L11.8425 0.691504C12.0291 0.698171 12.2133 0.706504 12.4358 0.716504C13.3225 0.758171 13.9275 0.898171 14.4583 1.104C15.0083 1.31567 15.4716 1.60234 15.935 2.06484C16.3587 2.48142 16.6866 2.98533 16.8958 3.5415C17.1016 4.07234 17.2416 4.67734 17.2833 5.56484C17.2933 5.7865 17.3016 5.97067 17.3083 6.15817L17.3133 6.31984C17.3258 6.72984 17.3308 7.20567 17.3325 8.14317L17.3333 8.76484V9.8565C17.3353 10.4643 17.3289 11.0722 17.3141 11.6798L17.3091 11.8415C17.3025 12.029 17.2941 12.2132 17.2841 12.4348C17.2425 13.3223 17.1008 13.9265 16.8958 14.4582C16.6872 15.0147 16.3592 15.5187 15.935 15.9348C15.5183 16.3584 15.0144 16.6863 14.4583 16.8957C13.9275 17.1015 13.3225 17.2415 12.4358 17.2832C12.238 17.2925 12.0403 17.3008 11.8425 17.3082L11.6808 17.3132C11.27 17.3248 10.7941 17.3307 9.85662 17.3323L9.23495 17.3332H8.14412C7.536 17.3353 6.92789 17.3289 6.31995 17.314L6.15829 17.309C5.96046 17.3015 5.76268 17.2929 5.56495 17.2832C4.67829 17.2415 4.07329 17.1015 3.54162 16.8957C2.98551 16.6868 2.4818 16.3589 2.06579 15.9348C1.64166 15.5184 1.31347 15.0145 1.10412 14.4582C0.898285 13.9273 0.758285 13.3223 0.716618 12.4348C0.707334 12.2371 0.699001 12.0393 0.691619 11.8415L0.687452 11.6798C0.672095 11.0722 0.66515 10.4643 0.666619 9.8565V8.14317C0.664293 7.53534 0.670404 6.9275 0.684952 6.31984L0.690785 6.15817C0.697452 5.97067 0.705785 5.7865 0.715785 5.56484C0.757452 4.67734 0.897452 4.07317 1.10329 3.5415C1.31255 2.98476 1.64139 2.48069 2.06662 2.06484C2.48253 1.64107 2.98591 1.31316 3.54162 1.104C4.07329 0.898171 4.67745 0.758171 5.56495 0.716504C5.78662 0.706504 5.97162 0.698171 6.15829 0.691504L6.31995 0.686504C6.92761 0.671698 7.53545 0.665308 8.14329 0.667337L9.85662 0.666504ZM8.99995 4.83317C7.89488 4.83317 6.83508 5.27216 6.05367 6.05356C5.27227 6.83496 4.83329 7.89477 4.83329 8.99984C4.83329 10.1049 5.27227 11.1647 6.05367 11.9461C6.83508 12.7275 7.89488 13.1665 8.99995 13.1665C10.105 13.1665 11.1648 12.7275 11.9462 11.9461C12.7276 11.1647 13.1666 10.1049 13.1666 8.99984C13.1666 7.89477 12.7276 6.83496 11.9462 6.05356C11.1648 5.27216 10.105 4.83317 8.99995 4.83317ZM8.99995 6.49984C9.32826 6.49978 9.65336 6.56439 9.95669 6.68998C10.26 6.81557 10.5357 6.99967 10.7678 7.23178C11 7.46388 11.1842 7.73945 11.3099 8.04274C11.4356 8.34604 11.5003 8.67112 11.5004 8.99942C11.5004 9.32773 11.4358 9.65283 11.3102 9.95616C11.1846 10.2595 11.0005 10.5351 10.7684 10.7673C10.5363 10.9995 10.2608 11.1837 9.95746 11.3094C9.65417 11.4351 9.32909 11.4998 9.00079 11.4998C8.33774 11.4998 7.70186 11.2364 7.23302 10.7676C6.76418 10.2988 6.50079 9.66288 6.50079 8.99984C6.50079 8.3368 6.76418 7.70091 7.23302 7.23207C7.70186 6.76323 8.33774 6.49984 9.00079 6.49984M13.3758 3.58317C13.0995 3.58317 12.8346 3.69292 12.6392 3.88827C12.4439 4.08362 12.3341 4.34857 12.3341 4.62484C12.3341 4.9011 12.4439 5.16606 12.6392 5.36141C12.8346 5.55676 13.0995 5.6665 13.3758 5.6665C13.6521 5.6665 13.917 5.55676 14.1124 5.36141C14.3077 5.16606 14.4175 4.9011 14.4175 4.62484C14.4175 4.34857 14.3077 4.08362 14.1124 3.88827C13.917 3.69292 13.6521 3.58317 13.3758 3.58317Z" fill="white"/>
</svg>
