<svg width="371" height="333" viewBox="0 0 371 333" fill="none" xmlns="http://www.w3.org/2000/svg">
<rect x="5" y="186.503" width="130.156" height="130.156" rx="24" transform="rotate(-43.4456 5 186.503)" fill="#0089EC"/>
<circle cx="97.5807" cy="189.581" r="37.3884" fill="white"/>
<circle cx="110.934" cy="199.373" r="16.9138" fill="black"/>
<path d="M49 127C49 114.021 59.5213 103.5 72.5 103.5H122.5C135.479 103.5 146 114.021 146 127C146 138.874 136.374 148.5 124.5 148.5H70.5C58.6259 148.5 49 138.874 49 127Z" fill="black"/>
<path d="M98.5918 65.0795C99.6215 64.7455 100.732 64.7546 101.756 65.1056L181.736 92.5186C186.182 94.0427 186.26 100.304 181.852 101.937L98.2553 132.914C97.1235 133.334 95.8781 133.329 94.7491 132.902L13.3198 102.103C8.90046 100.431 9.05146 94.1281 13.5458 92.67L98.5918 65.0795Z" fill="black"/>
<path d="M107 92C107 96.9706 102.971 96.5 98 96.5C93.0294 96.5 89 96.9706 89 92C89 87.0294 93.0294 83 98 83C102.971 83 107 87.0294 107 92Z" fill="#FFB800"/>
<rect x="21" y="96" width="4" height="21" rx="1" fill="#FFB800"/>
<path d="M21.5 96L40.1286 88.5486C40.7855 88.2858 41.5 88.7696 41.5 89.477V89.8534C41.5 90.2469 41.2692 90.6039 40.9104 90.7653L24.8333 98L21.5 96Z" fill="#FFB800"/>
<rect x="20.5" y="115.5" width="5" height="5" rx="2.5" fill="#FFB800" stroke="black"/>
<rect x="181" y="238.503" width="130.156" height="130.156" rx="24" transform="rotate(-43.4456 181 238.503)" fill="#0089EC"/>
<circle cx="273.581" cy="241.581" r="37.3884" fill="white"/>
<circle cx="286.934" cy="251.373" r="16.9138" fill="black"/>
<path d="M225 179C225 166.021 235.521 155.5 248.5 155.5H298.5C311.479 155.5 322 166.021 322 179C322 190.874 312.374 200.5 300.5 200.5H246.5C234.626 200.5 225 190.874 225 179Z" fill="black"/>
<path d="M274.592 117.08C275.621 116.745 276.732 116.755 277.756 117.106L357.736 144.519C362.182 146.043 362.26 152.304 357.852 153.937L274.255 184.914C273.123 185.334 271.878 185.329 270.749 184.902L189.32 154.103C184.9 152.431 185.051 146.128 189.546 144.67L274.592 117.08Z" fill="black"/>
<path d="M283 144C283 148.971 278.971 148.5 274 148.5C269.029 148.5 265 148.971 265 144C265 139.029 269.029 135 274 135C278.971 135 283 139.029 283 144Z" fill="#FFB800"/>
<rect x="197" y="148" width="4" height="21" rx="1" fill="#FFB800"/>
<path d="M197.5 148L216.129 140.549C216.785 140.286 217.5 140.77 217.5 141.477V141.853C217.5 142.247 217.269 142.604 216.91 142.765L200.833 150L197.5 148Z" fill="#FFB800"/>
<rect x="196.5" y="167.5" width="5" height="5" rx="2.5" fill="#FFB800" stroke="black"/>
</svg>
