<svg width="369" height="248" viewBox="0 0 369 248" fill="none" xmlns="http://www.w3.org/2000/svg">
<rect width="74.7886" height="77.019" rx="17" transform="matrix(0.486673 -0.873584 0.471271 0.881988 294.878 116.114)" fill="#0089EC"/>
<ellipse cx="331.46" cy="117.829" rx="14.7625" ry="27.076" transform="rotate(-0.804315 331.46 117.829)" fill="white"/>
<ellipse cx="324.957" cy="125.016" rx="6.67827" ry="12.2487" transform="rotate(-0.804315 324.957 125.016)" fill="black"/>
<rect x="0.5" y="0.5" width="261" height="165" rx="13.5" stroke="black"/>
<path d="M19.0489 70.5538C18.8536 70.3586 18.537 70.3586 18.3418 70.5538L15.1598 73.7358C14.9645 73.9311 14.9645 74.2477 15.1598 74.4429C15.355 74.6382 15.6716 74.6382 15.8669 74.4429L18.6953 71.6145L21.5237 74.4429C21.719 74.6382 22.0356 74.6382 22.2308 74.4429C22.4261 74.2477 22.4261 73.9311 22.2308 73.7358L19.0489 70.5538ZM19.1953 146.989L19.1953 70.9074H18.1953L18.1953 146.989H19.1953Z" fill="black"/>
<path d="M186.017 146.692C186.213 146.497 186.213 146.181 186.017 145.985L182.835 142.803C182.64 142.608 182.324 142.608 182.128 142.803C181.933 142.999 181.933 143.315 182.128 143.51L184.957 146.339L182.128 149.167C181.933 149.363 181.933 149.679 182.128 149.874C182.324 150.07 182.64 150.07 182.835 149.874L186.017 146.692ZM18.0507 146.839L185.664 146.839V145.839L18.0507 145.839V146.839Z" fill="black"/>
<path d="M19.34 121.798L37.5748 140.537L55.8096 136.563L74.0445 71.7092L92.2793 114.043L110.514 67.0452L128.749 89.1268L146.984 74.0114" stroke="#18A0FB"/>
<path d="M209.69 124.25V119.72C210.69 118.5 211.55 117.37 212.27 116.33C213.01 115.29 213.64 114.31 214.16 113.39C214.68 112.47 215.11 111.58 215.45 110.72C215.81 109.86 216.12 109.01 216.38 108.17H224.75V128H219.95V111.29H219.65C219.21 112.45 218.72 113.55 218.18 114.59C217.64 115.61 217.05 116.58 216.41 117.5C215.79 118.4 215.13 119.28 214.43 120.14V120.47H227.57V124.25H209.69Z" fill="black"/>
<path d="M207.64 45V38.6L218.16 32C218.587 31.7333 219.027 31.4267 219.48 31.08C219.933 30.7333 220.347 30.3333 220.72 29.88C221.12 29.4267 221.44 28.9333 221.68 28.4C221.92 27.84 222.04 27.2267 222.04 26.56C222.04 25.8667 221.88 25.28 221.56 24.8C221.267 24.32 220.827 23.96 220.24 23.72C219.68 23.4533 218.987 23.32 218.16 23.32C217.227 23.32 216.467 23.4667 215.88 23.76C215.32 24.0533 214.88 24.4667 214.56 25C214.267 25.5067 214.067 26.0933 213.96 26.76C213.853 27.4267 213.8 28.12 213.8 28.84L207.6 27.52C207.547 25.52 207.947 23.8133 208.8 22.4C209.653 20.96 210.88 19.8533 212.48 19.08C214.107 18.3067 216.04 17.92 218.28 17.92C220.253 17.92 222 18.2267 223.52 18.84C225.067 19.4533 226.267 20.3733 227.12 21.6C228 22.8 228.44 24.3067 228.44 26.12C228.44 27.4533 228.213 28.6667 227.76 29.76C227.307 30.8267 226.72 31.7733 226 32.6C225.28 33.4267 224.48 34.16 223.6 34.8C222.747 35.4133 221.92 35.9467 221.12 36.4L215.24 39.68V40.04L228.76 39.8V45H207.64Z" fill="#0089EC"/>
<path d="M23.958 30.252C22.986 30.252 22.11 30.03 21.33 29.586C20.55 29.142 19.932 28.476 19.476 27.588C19.032 26.688 18.81 25.56 18.81 24.204C18.81 23.208 18.936 22.32 19.188 21.54C19.452 20.76 19.842 20.1 20.358 19.56C20.874 19.008 21.504 18.588 22.248 18.3C23.004 18.012 23.874 17.868 24.858 17.868C25.602 17.868 26.274 17.952 26.874 18.12C27.486 18.288 28.014 18.528 28.458 18.84C28.902 19.152 29.244 19.524 29.484 19.956C29.736 20.388 29.868 20.874 29.88 21.414L27.144 22.26C27.132 21.816 27.018 21.444 26.802 21.144C26.586 20.844 26.298 20.616 25.938 20.46C25.578 20.292 25.176 20.208 24.732 20.208C24.108 20.208 23.58 20.352 23.148 20.64C22.728 20.916 22.404 21.342 22.176 21.918C21.96 22.494 21.852 23.214 21.852 24.078C21.852 24.726 21.912 25.296 22.032 25.788C22.164 26.268 22.356 26.67 22.608 26.994C22.86 27.318 23.166 27.564 23.526 27.732C23.898 27.888 24.336 27.966 24.84 27.966C25.344 27.966 25.776 27.888 26.136 27.732C26.508 27.576 26.802 27.336 27.018 27.012C27.234 26.688 27.348 26.274 27.36 25.77H25.254V23.718H30.24V26.022V30H28.26L28.224 27.03H27.864C27.66 27.726 27.396 28.314 27.072 28.794C26.748 29.274 26.334 29.64 25.83 29.892C25.326 30.132 24.702 30.252 23.958 30.252ZM32.2293 30V25.59V20.496H34.6053L34.6593 23.718H35.0193C35.1033 22.878 35.2593 22.212 35.4873 21.72C35.7273 21.216 36.0633 20.85 36.4953 20.622C36.9393 20.394 37.4853 20.28 38.1333 20.28C38.2293 20.28 38.3373 20.286 38.4573 20.298C38.5773 20.298 38.7153 20.31 38.8713 20.334L38.7633 23.43C38.5713 23.334 38.3613 23.274 38.1333 23.25C37.9173 23.214 37.7253 23.196 37.5573 23.196C37.0893 23.196 36.6813 23.286 36.3333 23.466C35.9973 23.646 35.7273 23.922 35.5233 24.294C35.3313 24.666 35.2053 25.134 35.1453 25.698V30H32.2293ZM42.3539 30.252C41.8259 30.252 41.3579 30.15 40.9499 29.946C40.5419 29.73 40.2239 29.424 39.9959 29.028C39.7679 28.62 39.6539 28.128 39.6539 27.552C39.6539 27.012 39.7559 26.568 39.9599 26.22C40.1759 25.86 40.4819 25.578 40.8779 25.374C41.2859 25.158 41.7719 24.984 42.3359 24.852C42.8999 24.708 43.5419 24.582 44.2619 24.474C44.6099 24.414 44.8979 24.36 45.1259 24.312C45.3659 24.252 45.5459 24.162 45.6659 24.042C45.7859 23.922 45.8459 23.748 45.8459 23.52C45.8459 23.22 45.7379 22.962 45.5219 22.746C45.3059 22.53 44.9579 22.422 44.4779 22.422C44.1419 22.422 43.8359 22.482 43.5599 22.602C43.2959 22.722 43.0679 22.896 42.8759 23.124C42.6839 23.352 42.5399 23.628 42.4439 23.952L39.8879 23.196C40.0439 22.692 40.2599 22.254 40.5359 21.882C40.8239 21.51 41.1659 21.204 41.5619 20.964C41.9579 20.712 42.4079 20.532 42.9119 20.424C43.4279 20.304 43.9739 20.244 44.5499 20.244C45.5099 20.244 46.2899 20.4 46.8899 20.712C47.5019 21.012 47.9519 21.486 48.2399 22.134C48.5399 22.77 48.6899 23.592 48.6899 24.6V26.058C48.6899 26.49 48.6959 26.928 48.7079 27.372C48.7319 27.804 48.7559 28.242 48.7799 28.686C48.8159 29.118 48.8579 29.556 48.9059 30H46.3499C46.3019 29.724 46.2539 29.394 46.2059 29.01C46.1579 28.614 46.1219 28.212 46.0979 27.804H45.7559C45.5879 28.26 45.3419 28.68 45.0179 29.064C44.7059 29.436 44.3219 29.73 43.8659 29.946C43.4219 30.15 42.9179 30.252 42.3539 30.252ZM43.6679 28.2C43.8839 28.2 44.0999 28.164 44.3159 28.092C44.5439 28.008 44.7599 27.9 44.9639 27.768C45.1679 27.624 45.3539 27.45 45.5219 27.246C45.6899 27.042 45.8159 26.82 45.8999 26.58L45.8639 25.158L46.2599 25.248C46.0319 25.392 45.7799 25.506 45.5039 25.59C45.2279 25.674 44.9459 25.74 44.6579 25.788C44.3819 25.836 44.1059 25.89 43.8299 25.95C43.5659 25.998 43.3259 26.064 43.1099 26.148C42.9059 26.232 42.7439 26.346 42.6239 26.49C42.5039 26.634 42.4439 26.832 42.4439 27.084C42.4439 27.42 42.5579 27.69 42.7859 27.894C43.0139 28.098 43.3079 28.2 43.6679 28.2ZM54.3361 30.252C53.5441 30.252 52.8481 30.054 52.2481 29.658C51.6601 29.25 51.1981 28.674 50.8621 27.93C50.5261 27.174 50.3581 26.274 50.3581 25.23C50.3581 24.27 50.5021 23.418 50.7901 22.674C51.0781 21.93 51.5041 21.348 52.0681 20.928C52.6441 20.496 53.3521 20.28 54.1921 20.28C54.7921 20.28 55.2961 20.388 55.7041 20.604C56.1241 20.82 56.4721 21.144 56.7481 21.576C57.0241 22.008 57.2461 22.554 57.4141 23.214H57.8641C57.7801 22.806 57.7021 22.422 57.6301 22.062C57.5581 21.69 57.4981 21.348 57.4501 21.036C57.4141 20.712 57.3961 20.43 57.3961 20.19V17.04H60.3121V25.356V30H57.9361L57.9001 27.192H57.5041C57.3721 27.912 57.1621 28.5 56.8741 28.956C56.5981 29.4 56.2441 29.73 55.8121 29.946C55.3921 30.15 54.9001 30.252 54.3361 30.252ZM55.3801 27.912C55.7521 27.912 56.0641 27.834 56.3161 27.678C56.5801 27.51 56.7901 27.3 56.9461 27.048C57.1021 26.796 57.2161 26.526 57.2881 26.238C57.3601 25.95 57.3961 25.68 57.3961 25.428V25.05C57.3961 24.822 57.3661 24.594 57.3061 24.366C57.2461 24.138 57.1561 23.916 57.0361 23.7C56.9281 23.484 56.7901 23.292 56.6221 23.124C56.4541 22.956 56.2561 22.824 56.0281 22.728C55.8121 22.632 55.5721 22.584 55.3081 22.584C54.9121 22.584 54.5701 22.692 54.2821 22.908C54.0061 23.124 53.7901 23.43 53.6341 23.826C53.4901 24.222 53.4181 24.69 53.4181 25.23C53.4181 25.77 53.4961 26.244 53.6521 26.652C53.8081 27.048 54.0361 27.36 54.3361 27.588C54.6361 27.804 54.9841 27.912 55.3801 27.912ZM67.0695 30.252C66.2775 30.252 65.5695 30.15 64.9455 29.946C64.3215 29.73 63.7875 29.418 63.3435 29.01C62.9115 28.602 62.5815 28.098 62.3535 27.498C62.1255 26.898 62.0115 26.208 62.0115 25.428C62.0115 24.672 62.1195 23.976 62.3355 23.34C62.5635 22.704 62.8815 22.158 63.2895 21.702C63.7095 21.234 64.2195 20.874 64.8195 20.622C65.4315 20.37 66.1155 20.244 66.8715 20.244C67.6395 20.244 68.3115 20.37 68.8875 20.622C69.4755 20.862 69.9555 21.222 70.3275 21.702C70.7115 22.182 70.9935 22.77 71.1735 23.466C71.3535 24.15 71.4135 24.936 71.3535 25.824L63.9195 25.878V24.366L69.6975 24.312L68.6715 25.014C68.7555 24.414 68.7195 23.928 68.5635 23.556C68.4075 23.172 68.1795 22.896 67.8795 22.728C67.5795 22.548 67.2555 22.458 66.9075 22.458C66.4875 22.458 66.1155 22.572 65.7915 22.8C65.4795 23.028 65.2335 23.358 65.0535 23.79C64.8735 24.222 64.7835 24.75 64.7835 25.374C64.7835 26.358 64.9935 27.072 65.4135 27.516C65.8455 27.96 66.3915 28.182 67.0515 28.182C67.3755 28.182 67.6455 28.14 67.8615 28.056C68.0775 27.96 68.2515 27.846 68.3835 27.714C68.5275 27.57 68.6355 27.414 68.7075 27.246C68.7915 27.078 68.8575 26.916 68.9055 26.76L71.4255 27.3C71.3295 27.744 71.1735 28.146 70.9575 28.506C70.7535 28.866 70.4715 29.178 70.1115 29.442C69.7635 29.706 69.3375 29.904 68.8335 30.036C68.3415 30.18 67.7535 30.252 67.0695 30.252ZM76.2598 30L80.2918 18.12H84.5398L88.5718 30H85.4038L82.5598 20.388H82.2718L79.4278 30H76.2598ZM78.6538 27.768V25.824H86.6098V27.768H78.6538ZM91.1135 30L87.9995 20.514H91.2215L93.0215 27.732H93.3275L95.1635 20.514H98.2415L95.1095 30H91.1135ZM103.825 30.252C103.033 30.252 102.325 30.15 101.701 29.946C101.077 29.73 100.543 29.418 100.099 29.01C99.6674 28.602 99.3374 28.098 99.1094 27.498C98.8814 26.898 98.7674 26.208 98.7674 25.428C98.7674 24.672 98.8754 23.976 99.0914 23.34C99.3194 22.704 99.6374 22.158 100.045 21.702C100.465 21.234 100.975 20.874 101.575 20.622C102.187 20.37 102.871 20.244 103.627 20.244C104.395 20.244 105.067 20.37 105.643 20.622C106.231 20.862 106.711 21.222 107.083 21.702C107.467 22.182 107.749 22.77 107.929 23.466C108.109 24.15 108.169 24.936 108.109 25.824L100.675 25.878V24.366L106.453 24.312L105.427 25.014C105.511 24.414 105.475 23.928 105.319 23.556C105.163 23.172 104.935 22.896 104.635 22.728C104.335 22.548 104.011 22.458 103.663 22.458C103.243 22.458 102.871 22.572 102.547 22.8C102.235 23.028 101.989 23.358 101.809 23.79C101.629 24.222 101.539 24.75 101.539 25.374C101.539 26.358 101.749 27.072 102.169 27.516C102.601 27.96 103.147 28.182 103.807 28.182C104.131 28.182 104.401 28.14 104.617 28.056C104.833 27.96 105.007 27.846 105.139 27.714C105.283 27.57 105.391 27.414 105.463 27.246C105.547 27.078 105.613 26.916 105.661 26.76L108.181 27.3C108.085 27.744 107.929 28.146 107.713 28.506C107.509 28.866 107.227 29.178 106.867 29.442C106.519 29.706 106.093 29.904 105.589 30.036C105.097 30.18 104.509 30.252 103.825 30.252ZM109.872 30V25.59V20.496H112.248L112.302 23.718H112.662C112.746 22.878 112.902 22.212 113.13 21.72C113.37 21.216 113.706 20.85 114.138 20.622C114.582 20.394 115.128 20.28 115.776 20.28C115.872 20.28 115.98 20.286 116.1 20.298C116.22 20.298 116.358 20.31 116.514 20.334L116.406 23.43C116.214 23.334 116.004 23.274 115.776 23.25C115.56 23.214 115.368 23.196 115.2 23.196C114.732 23.196 114.324 23.286 113.976 23.466C113.64 23.646 113.37 23.922 113.166 24.294C112.974 24.666 112.848 25.134 112.788 25.698V30H109.872ZM119.996 30.252C119.468 30.252 119 30.15 118.592 29.946C118.184 29.73 117.866 29.424 117.638 29.028C117.41 28.62 117.296 28.128 117.296 27.552C117.296 27.012 117.398 26.568 117.602 26.22C117.818 25.86 118.124 25.578 118.52 25.374C118.928 25.158 119.414 24.984 119.978 24.852C120.542 24.708 121.184 24.582 121.904 24.474C122.252 24.414 122.54 24.36 122.768 24.312C123.008 24.252 123.188 24.162 123.308 24.042C123.428 23.922 123.488 23.748 123.488 23.52C123.488 23.22 123.38 22.962 123.164 22.746C122.948 22.53 122.6 22.422 122.12 22.422C121.784 22.422 121.478 22.482 121.202 22.602C120.938 22.722 120.71 22.896 120.518 23.124C120.326 23.352 120.182 23.628 120.086 23.952L117.53 23.196C117.686 22.692 117.902 22.254 118.178 21.882C118.466 21.51 118.808 21.204 119.204 20.964C119.6 20.712 120.05 20.532 120.554 20.424C121.07 20.304 121.616 20.244 122.192 20.244C123.152 20.244 123.932 20.4 124.532 20.712C125.144 21.012 125.594 21.486 125.882 22.134C126.182 22.77 126.332 23.592 126.332 24.6V26.058C126.332 26.49 126.338 26.928 126.35 27.372C126.374 27.804 126.398 28.242 126.422 28.686C126.458 29.118 126.5 29.556 126.548 30H123.992C123.944 29.724 123.896 29.394 123.848 29.01C123.8 28.614 123.764 28.212 123.74 27.804H123.398C123.23 28.26 122.984 28.68 122.66 29.064C122.348 29.436 121.964 29.73 121.508 29.946C121.064 30.15 120.56 30.252 119.996 30.252ZM121.31 28.2C121.526 28.2 121.742 28.164 121.958 28.092C122.186 28.008 122.402 27.9 122.606 27.768C122.81 27.624 122.996 27.45 123.164 27.246C123.332 27.042 123.458 26.82 123.542 26.58L123.506 25.158L123.902 25.248C123.674 25.392 123.422 25.506 123.146 25.59C122.87 25.674 122.588 25.74 122.3 25.788C122.024 25.836 121.748 25.89 121.472 25.95C121.208 25.998 120.968 26.064 120.752 26.148C120.548 26.232 120.386 26.346 120.266 26.49C120.146 26.634 120.086 26.832 120.086 27.084C120.086 27.42 120.2 27.69 120.428 27.894C120.656 28.098 120.95 28.2 121.31 28.2ZM132.304 33.33C131.248 33.33 130.378 33.246 129.694 33.078C129.022 32.922 128.53 32.682 128.218 32.358C127.906 32.046 127.75 31.662 127.75 31.206C127.75 30.654 127.966 30.204 128.398 29.856C128.842 29.508 129.49 29.31 130.342 29.262V28.884C129.682 28.884 129.172 28.818 128.812 28.686C128.464 28.554 128.29 28.308 128.29 27.948C128.29 27.612 128.464 27.306 128.812 27.03C129.16 26.754 129.736 26.538 130.54 26.382V26.004C129.808 25.944 129.226 25.704 128.794 25.284C128.362 24.852 128.146 24.288 128.146 23.592C128.146 23.004 128.314 22.47 128.65 21.99C128.986 21.498 129.49 21.108 130.162 20.82C130.834 20.52 131.674 20.37 132.682 20.37H137.614V22.548L134.608 22.152V22.584C135.388 22.692 135.946 22.872 136.282 23.124C136.618 23.376 136.786 23.73 136.786 24.186C136.786 24.666 136.618 25.092 136.282 25.464C135.958 25.836 135.496 26.13 134.896 26.346C134.296 26.55 133.582 26.652 132.754 26.652C132.61 26.652 132.448 26.646 132.268 26.634C132.1 26.622 131.782 26.592 131.314 26.544C131.122 26.712 130.972 26.856 130.864 26.976C130.756 27.084 130.702 27.186 130.702 27.282C130.702 27.354 130.732 27.414 130.792 27.462C130.852 27.51 130.936 27.546 131.044 27.57C131.164 27.582 131.29 27.588 131.422 27.588H134.32C134.56 27.588 134.872 27.606 135.256 27.642C135.652 27.666 136.042 27.756 136.426 27.912C136.822 28.068 137.152 28.32 137.416 28.668C137.692 29.016 137.83 29.514 137.83 30.162C137.83 30.87 137.632 31.458 137.236 31.926C136.84 32.406 136.234 32.76 135.418 32.988C134.602 33.216 133.564 33.33 132.304 33.33ZM132.682 31.026C133.378 31.026 133.918 30.99 134.302 30.918C134.686 30.846 134.95 30.732 135.094 30.576C135.25 30.42 135.328 30.228 135.328 30C135.328 29.784 135.286 29.616 135.202 29.496C135.118 29.364 135.01 29.274 134.878 29.226C134.746 29.178 134.608 29.148 134.464 29.136C134.332 29.124 134.218 29.118 134.122 29.118H131.8C131.356 29.118 131.026 29.226 130.81 29.442C130.606 29.646 130.504 29.886 130.504 30.162C130.504 30.39 130.576 30.564 130.72 30.684C130.864 30.816 131.092 30.906 131.404 30.954C131.728 31.002 132.154 31.026 132.682 31.026ZM132.556 25.212C133.072 25.212 133.456 25.074 133.708 24.798C133.972 24.522 134.104 24.174 134.104 23.754C134.104 23.298 133.972 22.926 133.708 22.638C133.444 22.338 133.066 22.188 132.574 22.188C132.082 22.188 131.698 22.338 131.422 22.638C131.146 22.926 131.008 23.298 131.008 23.754C131.008 24.03 131.068 24.282 131.188 24.51C131.308 24.726 131.482 24.9 131.71 25.032C131.938 25.152 132.22 25.212 132.556 25.212ZM143.728 30.252C142.936 30.252 142.228 30.15 141.604 29.946C140.98 29.73 140.446 29.418 140.002 29.01C139.57 28.602 139.24 28.098 139.012 27.498C138.784 26.898 138.67 26.208 138.67 25.428C138.67 24.672 138.778 23.976 138.994 23.34C139.222 22.704 139.54 22.158 139.948 21.702C140.368 21.234 140.878 20.874 141.478 20.622C142.09 20.37 142.774 20.244 143.53 20.244C144.298 20.244 144.97 20.37 145.546 20.622C146.134 20.862 146.614 21.222 146.986 21.702C147.37 22.182 147.652 22.77 147.832 23.466C148.012 24.15 148.072 24.936 148.012 25.824L140.578 25.878V24.366L146.356 24.312L145.33 25.014C145.414 24.414 145.378 23.928 145.222 23.556C145.066 23.172 144.838 22.896 144.538 22.728C144.238 22.548 143.914 22.458 143.566 22.458C143.146 22.458 142.774 22.572 142.45 22.8C142.138 23.028 141.892 23.358 141.712 23.79C141.532 24.222 141.442 24.75 141.442 25.374C141.442 26.358 141.652 27.072 142.072 27.516C142.504 27.96 143.05 28.182 143.71 28.182C144.034 28.182 144.304 28.14 144.52 28.056C144.736 27.96 144.91 27.846 145.042 27.714C145.186 27.57 145.294 27.414 145.366 27.246C145.45 27.078 145.516 26.916 145.564 26.76L148.084 27.3C147.988 27.744 147.832 28.146 147.616 28.506C147.412 28.866 147.13 29.178 146.77 29.442C146.422 29.706 145.996 29.904 145.492 30.036C145 30.18 144.412 30.252 143.728 30.252Z" fill="black"/>
<path d="M217.25 93C217.25 93.4142 217.586 93.75 218 93.75C218.414 93.75 218.75 93.4142 218.75 93H217.25ZM218.53 60.4697C218.237 60.1768 217.763 60.1768 217.47 60.4697L212.697 65.2426C212.404 65.5355 212.404 66.0104 212.697 66.3033C212.99 66.5962 213.464 66.5962 213.757 66.3033L218 62.0607L222.243 66.3033C222.536 66.5962 223.01 66.5962 223.303 66.3033C223.596 66.0104 223.596 65.5355 223.303 65.2426L218.53 60.4697ZM218.75 93V61H217.25V93H218.75Z" fill="#00BD1F"/>
<path d="M231.25 106C231.25 106.414 231.586 106.75 232 106.75C232.414 106.75 232.75 106.414 232.75 106H231.25ZM232.53 79.4697C232.237 79.1768 231.763 79.1768 231.47 79.4697L226.697 84.2426C226.404 84.5355 226.404 85.0104 226.697 85.3033C226.99 85.5962 227.464 85.5962 227.757 85.3033L232 81.0607L236.243 85.3033C236.536 85.5962 237.01 85.5962 237.303 85.3033C237.596 85.0104 237.596 84.5355 237.303 84.2426L232.53 79.4697ZM232.75 106V80H231.25V106H232.75Z" fill="#00BD1F"/>
<path d="M205.25 103C205.25 103.414 205.586 103.75 206 103.75C206.414 103.75 206.75 103.414 206.75 103H205.25ZM206.53 72.4697C206.237 72.1768 205.763 72.1768 205.47 72.4697L200.697 77.2426C200.404 77.5355 200.404 78.0104 200.697 78.3033C200.99 78.5962 201.464 78.5962 201.757 78.3033L206 74.0607L210.243 78.3033C210.536 78.5962 211.01 78.5962 211.303 78.3033C211.596 78.0104 211.596 77.5355 211.303 77.2426L206.53 72.4697ZM206.75 103V73H205.25V103H206.75Z" fill="#00BD1F"/>
<path d="M230.726 69.8315C230.774 69.8113 230.811 69.7737 230.832 69.7265L231.816 67.4289C231.885 67.2673 232.115 67.2673 232.184 67.4289L233.168 69.7265C233.189 69.7737 233.226 69.8113 233.274 69.8315L235.571 70.8162C235.733 70.8854 235.733 71.1146 235.571 71.1838L233.274 72.1685C233.226 72.1887 233.189 72.2263 233.168 72.2735L232.184 74.5711C232.115 74.7327 231.885 74.7327 231.816 74.5711L230.832 72.2735C230.811 72.2263 230.774 72.1887 230.726 72.1685L228.429 71.1838C228.267 71.1146 228.267 70.8854 228.429 70.8162L230.726 69.8315Z" fill="#6ADBC6"/>
<path d="M212.726 97.8315C212.774 97.8113 212.811 97.7737 212.832 97.7265L213.816 95.4289C213.885 95.2673 214.115 95.2673 214.184 95.4289L215.168 97.7265C215.189 97.7737 215.226 97.8113 215.274 97.8315L217.571 98.8162C217.733 98.8854 217.733 99.1146 217.571 99.1838L215.274 100.168C215.226 100.189 215.189 100.226 215.168 100.274L214.184 102.571C214.115 102.733 213.885 102.733 213.816 102.571L212.832 100.274C212.811 100.226 212.774 100.189 212.726 100.168L210.429 99.1838C210.267 99.1146 210.267 98.8854 210.429 98.8162L212.726 97.8315Z" fill="#FF7ABC"/>
<path d="M196.676 85.7815C196.724 85.7613 196.761 85.7237 196.782 85.6765L197.316 84.4289C197.385 84.2673 197.615 84.2673 197.684 84.4289L198.218 85.6765C198.239 85.7237 198.276 85.7613 198.324 85.7815L199.571 86.3162C199.733 86.3854 199.733 86.6146 199.571 86.6838L198.324 87.2185C198.276 87.2387 198.239 87.2763 198.218 87.3235L197.684 88.5711C197.615 88.7327 197.385 88.7327 197.316 88.5711L196.782 87.3235C196.761 87.2763 196.724 87.2387 196.676 87.2185L195.429 86.6838C195.267 86.6146 195.267 86.3854 195.429 86.3162L196.676 85.7815Z" fill="#C6C4FB"/>
<path d="M202.029 65.4855C202.075 65.4627 202.11 65.4234 202.127 65.3755L202.812 63.5111C202.876 63.3363 203.124 63.3363 203.188 63.5111L203.873 65.3755C203.89 65.4234 203.925 65.4627 203.971 65.4855L205.642 66.3211C205.79 66.3948 205.79 66.6052 205.642 66.6789L203.971 67.5145C203.925 67.5373 203.89 67.5766 203.873 67.6245L203.188 69.4889C203.124 69.6637 202.876 69.6637 202.812 69.4889L202.127 67.6245C202.11 67.5766 202.075 67.5373 202.029 67.5145L200.358 66.6789C200.21 66.6052 200.21 66.3948 200.358 66.3211L202.029 65.4855Z" fill="#628BF7"/>
<rect x="161.167" y="179.567" width="94.2563" height="94.2563" rx="17" transform="rotate(-43.4456 161.167 179.567)" fill="#0089EC"/>
</svg>
