<svg width="428" height="122" viewBox="0 0 428 122" fill="none" xmlns="http://www.w3.org/2000/svg">
<g clip-path="url(#clip0_295_6)">
<rect width="428" height="122" rx="20" fill="white"/>
<path d="M133.548 28.343C131.788 28.8812 130.131 29.0581 128.577 28.8736C127.032 28.6866 125.699 28.1761 124.58 27.3419C123.46 26.5078 122.661 25.3932 122.181 23.9981L126.777 22.5928C127.025 23.2568 127.43 23.7791 127.992 24.1599C128.551 24.5325 129.212 24.7539 129.973 24.8242C130.734 24.8945 131.534 24.8013 132.374 24.5446C133.27 24.2705 134.018 23.8727 134.616 23.3512C135.211 22.8215 135.619 22.2157 135.838 21.5337C136.057 20.8518 136.051 20.1453 135.818 19.4142C135.595 18.6537 135.195 18.0452 134.619 17.5886C134.042 17.1321 133.325 16.8566 132.468 16.7624C131.618 16.6656 130.664 16.7792 129.604 17.1031L127.391 17.7796L126.322 14.2832L128.535 13.6066C129.407 13.34 130.123 12.9562 130.683 12.4553C131.251 11.9519 131.639 11.3699 131.847 10.7092C132.052 10.0404 132.04 9.34449 131.81 8.6216C131.602 7.91003 131.254 7.34328 130.769 6.92133C130.289 6.48874 129.711 6.21544 129.034 6.10144C128.366 5.98494 127.641 6.0463 126.858 6.28552C126.092 6.51975 125.425 6.87509 124.858 7.35154C124.291 7.828 123.886 8.38401 123.644 9.01958C123.399 9.647 123.371 10.3149 123.561 11.0233L119.197 12.3577C118.801 10.9459 118.828 9.59181 119.278 8.29555C119.734 6.98864 120.523 5.83836 121.645 4.84469C122.765 3.84288 124.136 3.09404 125.758 2.59817C127.428 2.08735 128.975 1.9576 130.398 2.20891C131.826 2.44958 133.039 2.9922 134.037 3.83677C135.035 4.68134 135.728 5.73936 136.117 7.01081C136.556 8.41832 136.502 9.7272 135.954 10.9374C135.414 12.1452 134.513 13.1026 133.249 13.8096L133.309 14.0053C135.144 13.7115 136.693 13.9512 137.954 14.7242C139.221 15.4865 140.089 16.6513 140.559 18.2187C140.988 19.6206 140.972 20.9978 140.513 22.3504C140.058 23.6924 139.23 24.8903 138.029 25.944C136.835 26.9951 135.342 27.7948 133.548 28.343ZM153.929 6.05678L155.043 9.69998L143.771 13.1461L142.657 9.50295L153.929 6.05678ZM165.448 -9.16221L173.103 15.8756L168.568 17.2623L162.262 -3.36212L162.115 -3.31727L157.403 2.21409L156.132 -1.94257L161.133 -7.8428L165.448 -9.16221Z" fill="#6ADBC6"/>
<path d="M357.835 101.075L410.162 38.7141L438.005 115.211L357.835 101.075Z" stroke="#968FF0" stroke-width="3"/>
<path d="M243.172 18.0146L265.858 21.2029C266.36 21.2734 266.869 21.1418 267.273 20.8371C267.677 20.5324 267.944 20.0795 268.015 19.5781L269.609 8.23505C269.679 7.73366 269.548 7.22481 269.243 6.82044C268.938 6.41607 268.485 6.14931 267.984 6.07885L245.298 2.89052C244.796 2.82005 244.287 2.95165 243.883 3.25636C243.479 3.56107 243.212 4.01394 243.142 4.51534L241.547 15.8584C241.477 16.3598 241.609 16.8687 241.913 17.273C242.218 17.6774 242.671 17.9441 243.172 18.0146ZM246.657 6.93723L265.562 9.59418L264.499 17.1562L245.594 14.4993L246.657 6.93723ZM274.718 -0.686118L240.689 -5.46861C239.686 -5.60954 238.668 -5.34635 237.86 -4.73692C237.051 -4.1275 236.518 -3.22177 236.377 -2.21898L230.531 39.3723C230.39 40.3751 230.654 41.3928 231.263 42.2015C231.872 43.0102 232.778 43.5438 233.781 43.6847L267.81 48.4672C268.813 48.6081 269.831 48.3449 270.639 47.7355C271.448 47.1261 271.982 46.2203 272.123 45.2175L277.968 3.62629C278.109 2.6235 277.846 1.6058 277.236 0.797066C276.627 -0.011668 275.721 -0.545185 274.718 -0.686118ZM268.342 44.6862L234.312 39.9037L240.158 -1.68759L274.187 3.09491L268.342 44.6862ZM246.969 25.2956C246.89 25.8565 246.646 26.3814 246.269 26.8039C245.892 27.2265 245.398 27.5277 244.85 27.6695C244.301 27.8113 243.723 27.7874 243.189 27.6006C242.654 27.4139 242.187 27.0728 241.846 26.6205C241.505 26.1681 241.306 25.6249 241.274 25.0594C241.242 24.494 241.378 23.9317 241.665 23.4437C241.953 22.9557 242.379 22.5639 242.889 22.3178C243.399 22.0718 243.97 21.9825 244.531 22.0613C245.283 22.167 245.963 22.5672 246.42 23.1737C246.877 23.7803 247.074 24.5435 246.969 25.2956ZM256.421 26.6241C256.342 27.185 256.099 27.7099 255.722 28.1324C255.345 28.555 254.851 28.8562 254.302 28.998C253.754 29.1398 253.176 29.1158 252.641 28.9291C252.107 28.7424 251.639 28.4013 251.298 27.9489C250.957 27.4966 250.758 26.9534 250.726 26.3879C250.694 25.8224 250.83 25.2602 251.118 24.7722C251.405 24.2842 251.831 23.8924 252.341 23.6463C252.851 23.4002 253.423 23.311 253.984 23.3898C254.736 23.4955 255.415 23.8956 255.872 24.5022C256.329 25.1087 256.527 25.872 256.421 26.6241ZM265.874 27.9526C265.795 28.5134 265.551 29.0383 265.174 29.4609C264.797 29.8834 264.303 30.1846 263.755 30.3265C263.207 30.4683 262.628 30.4443 262.094 30.2576C261.559 30.0708 261.092 29.7297 260.751 29.2774C260.41 28.8251 260.211 28.2818 260.179 27.7164C260.147 27.1509 260.283 26.5886 260.57 26.1006C260.858 25.6126 261.284 25.2208 261.794 24.9748C262.304 24.7287 262.876 24.6394 263.436 24.7183C264.189 24.824 264.868 25.2241 265.325 25.8307C265.782 26.4372 265.979 27.2005 265.874 27.9526ZM245.64 34.7482C245.561 35.3091 245.318 35.834 244.941 36.2565C244.564 36.679 244.07 36.9803 243.521 37.1221C242.973 37.2639 242.395 37.2399 241.86 37.0532C241.325 36.8665 240.858 36.5254 240.517 36.073C240.176 35.6207 239.977 35.0775 239.945 34.512C239.913 33.9465 240.049 33.3843 240.337 32.8963C240.624 32.4082 241.05 32.0164 241.56 31.7704C242.07 31.5243 242.642 31.4351 243.203 31.5139C243.955 31.6196 244.634 32.0197 245.091 32.6263C245.548 33.2328 245.746 33.9961 245.64 34.7482ZM255.093 36.0767C255.014 36.6375 254.77 37.1624 254.393 37.585C254.016 38.0075 253.522 38.3087 252.974 38.4505C252.426 38.5924 251.847 38.5684 251.313 38.3817C250.778 38.1949 250.311 37.8538 249.97 37.4015C249.629 36.9492 249.43 36.4059 249.398 35.8405C249.366 35.275 249.502 34.7127 249.789 34.2247C250.077 33.7367 250.503 33.3449 251.013 33.0989C251.523 32.8528 252.095 32.7635 252.655 32.8424C253.407 32.9481 254.087 33.3482 254.544 33.9547C255.001 34.5613 255.198 35.3246 255.093 36.0767ZM264.545 37.4051C264.466 37.966 264.223 38.4909 263.846 38.9134C263.469 39.336 262.975 39.6372 262.426 39.779C261.878 39.9208 261.3 39.8969 260.765 39.7101C260.231 39.5234 259.763 39.1823 259.422 38.73C259.082 38.2776 258.882 37.7344 258.85 37.1689C258.818 36.6035 258.955 36.0412 259.242 35.5532C259.529 35.0652 259.955 34.6734 260.465 34.4273C260.975 34.1813 261.547 34.092 262.108 34.1708C262.86 34.2765 263.539 34.6767 263.996 35.2832C264.453 35.8898 264.651 36.653 264.545 37.4051Z" fill="#E99BF4"/>
<path d="M56.5065 4.09792L46.9856 -5.50781C46.827 -5.6651 46.639 -5.78954 46.4322 -5.874C46.2254 -5.95845 46.004 -6.00126 45.7807 -5.99997C45.3354 -5.9981 44.9088 -5.82134 44.5927 -5.50781L20.4935 18.5065C20.1774 18.8245 20 19.2546 20 19.703C20 20.1513 20.1774 20.5815 20.4935 20.8995L30.0992 30.5052C30.2578 30.6625 30.4459 30.7869 30.6527 30.8714C30.8594 30.9558 31.0808 30.9986 31.3042 30.9973C31.7494 30.9955 32.1761 30.8187 32.4922 30.5052L37.295 25.7023L51.7036 11.2937L56.5065 6.49086C56.8226 6.17289 57 5.74275 57 5.29439C57 4.84604 56.8226 4.4159 56.5065 4.09792ZM50.4987 7.69582L49.2937 6.49086C48.9757 6.17477 48.5456 5.99735 48.0972 5.99735C47.6489 5.99735 47.2187 6.17477 46.9008 6.49086C46.7417 6.64863 46.6154 6.83634 46.5293 7.04315C46.4431 7.24996 46.3988 7.47178 46.3988 7.69582C46.3988 7.91986 46.4431 8.14169 46.5293 8.3485C46.6154 8.55531 46.7417 8.74301 46.9008 8.90078L48.1057 10.1057L45.6958 12.4987L42.0979 8.90078C41.7732 8.62275 41.3556 8.47746 40.9285 8.49396C40.5014 8.51046 40.0962 8.68752 39.794 8.98977C39.4917 9.29202 39.3146 9.69719 39.2981 10.1243C39.2816 10.5514 39.4269 10.9691 39.705 11.2937L43.3029 14.8916L40.8929 17.3015L39.705 16.0966C39.3854 15.777 38.9519 15.5975 38.5 15.5975C38.0481 15.5975 37.6146 15.777 37.295 16.0966C36.9755 16.4162 36.7959 16.8496 36.7959 17.3015C36.7959 17.7535 36.9755 18.1869 37.295 18.5065L38.5 19.6945L36.1071 22.1044L32.4922 18.5065C32.1742 18.1904 31.7441 18.013 31.2957 18.013C30.8474 18.013 30.4172 18.1904 30.0992 18.5065C29.7831 18.8245 29.6057 19.2546 29.6057 19.703C29.6057 20.1513 29.7831 20.5815 30.0992 20.8995L33.6971 24.4974L31.3042 26.9073L24.0914 19.6945L45.6958 -1.9099L52.9086 5.30288L50.4987 7.69582Z" fill="#628BF7"/>
<path d="M267.092 85.7765L271.304 99.8461L280.986 88.7298L289.5 90.5396L275.579 105.425L282.42 124.724L273.95 122.923L269.338 109.094L259.567 119.866L251.031 118.052L265.064 103.19L258.555 83.962L267.092 85.7765ZM292.038 102.975L292.979 98.5515L305.557 91.9543C306.604 91.4023 307.51 90.8902 308.277 90.418C309.046 89.931 309.665 89.4273 310.132 88.907C310.602 88.3718 310.912 87.7485 311.063 87.0371C311.309 85.8811 311.042 84.8794 310.262 84.032C309.481 83.1846 308.424 82.6192 307.09 82.3356C305.668 82.0332 304.442 82.1522 303.413 82.6925C302.402 83.2212 301.762 84.1228 301.491 85.3974L295.6 84.1452C296.185 81.3886 297.647 79.43 299.985 78.2695C302.341 77.0973 305.082 76.8436 308.209 77.5083C310.329 77.9587 312.094 78.7289 313.504 79.8186C314.932 80.8967 315.948 82.166 316.552 83.6264C317.155 85.0868 317.288 86.6099 316.951 88.1957C316.68 89.4702 316.169 90.6007 315.417 91.5872C314.668 92.5588 313.629 93.4764 312.299 94.34C310.973 95.1888 309.323 96.0619 307.351 96.9594L301.997 99.6318L301.954 99.8319L314.426 102.483L313.358 107.507L292.038 102.975Z" fill="#6ADBC6"/>
<path d="M168.177 98.318L156.724 100.544L154.632 124.721L147.816 115.859L144.544 116.495M162.541 112.996L174.265 120.905M164.449 122.813L172.357 111.088" stroke="#00EC6D" stroke-width="2" stroke-linecap="round" stroke-linejoin="round"/>
<g clip-path="url(#clip1_295_6)">
<path d="M18.0729 58.9578C18.2618 58.4092 18.225 57.8081 17.9707 57.2867C17.7164 56.7652 17.2653 56.3662 16.7168 56.1773C16.1682 55.9884 15.5671 56.0252 15.0456 56.2795C14.5242 56.5338 14.1251 56.9849 13.9363 57.5334L-3.63085 108.552C-4.02398 109.694 -3.41643 110.939 -2.27471 111.333L48.0545 128.662C48.603 128.851 49.2041 128.814 49.7256 128.56C50.247 128.306 50.6461 127.855 50.835 127.306C51.0238 126.758 50.9871 126.156 50.7327 125.635C50.4784 125.114 50.0274 124.714 49.4788 124.526L1.21797 107.908L18.0729 58.9578Z" fill="#E99BF4"/>
<path d="M67.8452 91.612C68.3455 91.3457 68.723 90.8956 68.898 90.3565C69.0731 89.8174 69.0321 89.2314 68.7836 88.722C68.5351 88.2125 68.0986 87.8194 67.566 87.6255C67.0334 87.4315 66.4464 87.4518 65.9285 87.6822L44.7225 98.025L37.9961 84.2337C37.7416 83.7129 37.2908 83.3143 36.7427 83.1256C36.1946 82.9368 35.594 82.9734 35.0728 83.2272L12.8288 94.0763C12.5604 94.1957 12.3188 94.3679 12.1184 94.5827C11.918 94.7975 11.7629 95.0504 11.6624 95.3265C11.5618 95.6025 11.5179 95.8959 11.5333 96.1893C11.5486 96.4827 11.6229 96.7699 11.7517 97.034C11.8805 97.298 12.0611 97.5334 12.2828 97.7261C12.5046 97.9188 12.7628 98.0649 13.0422 98.1556C13.3216 98.2463 13.6164 98.2798 13.9091 98.2541C14.2017 98.2285 14.4862 98.1441 14.7455 98.0061L35.0246 88.1153L41.7511 101.907C42.0055 102.427 42.4563 102.826 43.0044 103.015C43.5525 103.203 44.1531 103.167 44.6743 102.913L67.8452 91.612Z" fill="#E99BF4"/>
</g>
<path d="M81.5824 47.8182H87.3864L95.1591 66.7898H95.4659L103.239 47.8182H109.043V74H104.491V56.0128H104.249L97.0128 73.9233H93.6122L86.3764 55.9744H86.1335V74H81.5824V47.8182ZM119.653 74.3963C118.409 74.3963 117.288 74.1747 116.291 73.7315C115.303 73.2798 114.518 72.6151 113.939 71.7372C113.368 70.8594 113.082 69.777 113.082 68.4901C113.082 67.3821 113.287 66.4659 113.696 65.7415C114.105 65.017 114.663 64.4375 115.371 64.0028C116.078 63.5682 116.875 63.2401 117.761 63.0185C118.656 62.7884 119.581 62.6222 120.536 62.5199C121.686 62.4006 122.619 62.294 123.335 62.2003C124.051 62.098 124.571 61.9446 124.895 61.7401C125.227 61.527 125.393 61.1989 125.393 60.7557V60.679C125.393 59.7159 125.108 58.9702 124.537 58.4418C123.966 57.9134 123.143 57.6491 122.07 57.6491C120.936 57.6491 120.037 57.8963 119.372 58.3906C118.716 58.8849 118.273 59.4687 118.043 60.142L113.722 59.5284C114.063 58.3352 114.625 57.3381 115.409 56.5369C116.193 55.7273 117.152 55.1222 118.286 54.7216C119.419 54.3125 120.672 54.108 122.044 54.108C122.99 54.108 123.932 54.2188 124.869 54.4403C125.807 54.6619 126.663 55.0284 127.439 55.5398C128.214 56.0426 128.837 56.7287 129.305 57.598C129.783 58.4673 130.021 59.554 130.021 60.858V74H125.572V71.3026H125.419C125.138 71.848 124.741 72.3594 124.23 72.8366C123.727 73.3054 123.092 73.6847 122.325 73.9744C121.567 74.2557 120.676 74.3963 119.653 74.3963ZM120.855 70.9957C121.784 70.9957 122.589 70.8125 123.271 70.446C123.953 70.071 124.477 69.5767 124.844 68.9631C125.219 68.3494 125.406 67.6804 125.406 66.956V64.642C125.261 64.7614 125.014 64.8722 124.665 64.9744C124.324 65.0767 123.94 65.1662 123.514 65.2429C123.088 65.3196 122.666 65.3878 122.249 65.4474C121.831 65.5071 121.469 65.5582 121.162 65.6009C120.472 65.6946 119.854 65.848 119.308 66.0611C118.763 66.2741 118.332 66.5724 118.017 66.956C117.702 67.331 117.544 67.8168 117.544 68.4134C117.544 69.2656 117.855 69.9091 118.477 70.3438C119.099 70.7784 119.892 70.9957 120.855 70.9957ZM144.48 54.3636V57.9432H133.192V54.3636H144.48ZM135.979 49.6591H140.607V68.0938C140.607 68.7159 140.7 69.1932 140.888 69.5256C141.084 69.8494 141.339 70.071 141.655 70.1903C141.97 70.3097 142.32 70.3693 142.703 70.3693C142.993 70.3693 143.257 70.348 143.496 70.3054C143.743 70.2628 143.93 70.2244 144.058 70.1903L144.838 73.8082C144.591 73.8935 144.237 73.9872 143.777 74.0895C143.325 74.1918 142.771 74.2514 142.115 74.2685C140.956 74.3026 139.912 74.1278 138.983 73.7443C138.054 73.3523 137.317 72.7472 136.771 71.929C136.234 71.1108 135.97 70.0881 135.979 68.8608V49.6591ZM153.4 62.4943V74H148.772V47.8182H153.298V57.7003H153.528C153.988 56.5923 154.7 55.7187 155.663 55.0795C156.635 54.4318 157.87 54.108 159.37 54.108C160.734 54.108 161.923 54.3935 162.937 54.9645C163.951 55.5355 164.735 56.3707 165.289 57.4702C165.852 58.5696 166.133 59.9119 166.133 61.4972V74H161.505V62.2131C161.505 60.892 161.164 59.8651 160.483 59.1321C159.809 58.3906 158.863 58.0199 157.645 58.0199C156.826 58.0199 156.093 58.1989 155.446 58.5568C154.806 58.9062 154.304 59.4134 153.937 60.0781C153.579 60.7429 153.4 61.5483 153.4 62.4943ZM186.37 59.554L182.152 60.0142C182.032 59.5881 181.824 59.1875 181.525 58.8125C181.235 58.4375 180.843 58.1349 180.349 57.9048C179.855 57.6747 179.25 57.5597 178.534 57.5597C177.571 57.5597 176.761 57.7685 176.105 58.1861C175.457 58.6037 175.137 59.1449 175.146 59.8097C175.137 60.3807 175.346 60.8452 175.772 61.2031C176.207 61.5611 176.923 61.8551 177.92 62.0852L181.27 62.8011C183.127 63.2017 184.508 63.8366 185.412 64.706C186.324 65.5753 186.784 66.7131 186.792 68.1193C186.784 69.3551 186.422 70.446 185.706 71.392C184.998 72.3295 184.014 73.0625 182.752 73.5909C181.491 74.1193 180.042 74.3835 178.406 74.3835C176.002 74.3835 174.068 73.8807 172.602 72.875C171.136 71.8608 170.262 70.4503 169.981 68.6435L174.494 68.2088C174.699 69.0952 175.133 69.7642 175.798 70.2159C176.463 70.6676 177.328 70.8935 178.393 70.8935C179.493 70.8935 180.375 70.6676 181.039 70.2159C181.713 69.7642 182.049 69.206 182.049 68.5412C182.049 67.9787 181.832 67.5142 181.397 67.1477C180.971 66.7812 180.306 66.5 179.403 66.304L176.054 65.6009C174.17 65.2088 172.777 64.5483 171.873 63.6193C170.97 62.6818 170.522 61.4972 170.531 60.0653C170.522 58.8551 170.85 57.8068 171.515 56.9205C172.189 56.0256 173.122 55.3352 174.315 54.8494C175.517 54.3551 176.902 54.108 178.47 54.108C180.771 54.108 182.582 54.598 183.903 55.5781C185.233 56.5582 186.055 57.8835 186.37 59.554Z" fill="black"/>
<path d="M340.551 -3.19945C337.902 -3.87647 335.457 -1.55054 336.003 1.1289L336.824 5.17177L343.103 3.25235C343.618 3.09484 344.174 3.14844 344.65 3.40135C345.126 3.65427 345.481 4.08578 345.639 4.60096C345.796 5.11614 345.743 5.67279 345.49 6.14845C345.237 6.62412 344.805 6.97983 344.29 7.13733L337.639 9.17078L342.463 32.8959C343.625 38.6205 337.942 43.3316 332.533 41.1246L331.551 40.7232C331.06 40.5138 330.672 40.1201 330.47 39.6271C330.267 39.134 330.266 38.5811 330.468 38.0876C330.669 37.5941 331.057 37.1995 331.546 36.9891C332.036 36.7786 332.589 36.769 333.086 36.9624L334.068 37.3623C336.471 38.3436 338.997 36.2495 338.481 33.7055L333.734 10.3647L330.506 11.3515C329.991 11.509 329.434 11.4554 328.959 11.2025C328.483 10.9496 328.127 10.5181 327.97 10.0029C327.812 9.48771 327.866 8.93106 328.119 8.4554C328.372 7.97974 328.803 7.62403 329.319 7.46652L332.924 6.36428L332.023 1.938C330.881 -3.67914 336.005 -8.55746 341.557 -7.13689L343.29 -6.69305C343.549 -6.62704 343.792 -6.51075 344.006 -6.35084C344.219 -6.19092 344.399 -5.99051 344.535 -5.76104C344.671 -5.53157 344.761 -5.27754 344.799 -5.01345C344.837 -4.74936 344.822 -4.48038 344.756 -4.22188C344.69 -3.96337 344.574 -3.7204 344.414 -3.50684C344.254 -3.29327 344.054 -3.1133 343.824 -2.97718C343.361 -2.70229 342.807 -2.62276 342.285 -2.75608L340.551 -3.19945ZM363.018 9.28784C363.271 8.81212 363.324 8.2554 363.167 7.74015C363.009 7.2249 362.653 6.79333 362.178 6.54038C361.702 6.28743 361.145 6.23383 360.63 6.39136C360.115 6.54888 359.683 6.90464 359.43 7.38037L354.695 16.2912L351.183 12.4421C350.665 11.8742 350.028 11.428 349.316 11.1357C348.605 10.8434 347.839 10.7122 347.071 10.7515C346.303 10.7908 345.553 10.9996 344.876 11.363C344.198 11.7264 343.61 12.2353 343.152 12.8531L342.196 14.143C341.886 14.5765 341.759 15.1144 341.841 15.6408C341.924 16.1672 342.211 16.64 342.639 16.9572C343.067 17.2743 343.603 17.4105 344.131 17.3363C344.658 17.2621 345.136 16.9835 345.46 16.5606L346.417 15.2707C346.517 15.1348 346.647 15.0229 346.796 14.9431C346.945 14.8632 347.109 14.8174 347.278 14.8088C347.447 14.8003 347.616 14.8293 347.772 14.8936C347.928 14.958 348.068 15.0562 348.182 15.1812L352.671 20.0978L347.025 30.7176C346.9 30.9532 346.822 31.2111 346.797 31.4767C346.771 31.7422 346.798 32.0102 346.876 32.2653C346.954 32.5205 347.082 32.7577 347.252 32.9636C347.421 33.1694 347.63 33.3399 347.865 33.4651C348.341 33.718 348.898 33.7717 349.413 33.6141C349.668 33.5361 349.905 33.4086 350.111 33.2389C350.317 33.0693 350.488 32.8607 350.613 32.6251L355.577 23.2856L359.419 27.4977C359.968 28.0991 360.649 28.5636 361.41 28.8538C362.17 29.1439 362.988 29.2518 363.798 29.1687C364.608 29.0855 365.386 28.8137 366.072 28.3751C366.758 27.9364 367.331 27.3431 367.746 26.6428L368.081 26.078C368.217 25.8486 368.307 25.5945 368.345 25.3305C368.382 25.0664 368.368 24.7975 368.302 24.539C368.236 24.2805 368.119 24.0376 367.959 23.8241C367.799 23.6107 367.599 23.4308 367.37 23.2947C367.14 23.1587 366.886 23.0692 366.622 23.0313C366.358 22.9935 366.089 23.008 365.831 23.0741C365.572 23.1402 365.329 23.2565 365.116 23.4165C364.902 23.5764 364.722 23.7769 364.586 24.0063L364.251 24.5711C364.159 24.7245 364.033 24.8544 363.883 24.9505C363.732 25.0465 363.561 25.106 363.383 25.1241C363.206 25.1423 363.026 25.1187 362.859 25.0551C362.692 24.9916 362.542 24.8899 362.422 24.7581L357.602 19.4755L363.018 9.28784Z" fill="#628BF7"/>
<path d="M375.831 73.9289C375.504 74.3337 375.134 74.6345 374.724 74.8313C374.311 75.0265 373.895 75.1101 373.475 75.082C373.057 75.0518 372.671 74.9035 372.317 74.6371L373.202 73.5442C373.474 73.7305 373.772 73.789 374.096 73.7197C374.418 73.6488 374.693 73.4727 374.921 73.1914C375.099 72.9708 375.208 72.7335 375.246 72.4796C375.284 72.2256 375.253 71.9761 375.153 71.7311C375.053 71.4861 374.887 71.2711 374.655 71.0863C374.422 70.8942 374.173 70.775 373.909 70.7287C373.645 70.6824 373.39 70.7055 373.144 70.798C372.896 70.8888 372.68 71.0486 372.495 71.2773C372.342 71.4618 372.228 71.6728 372.153 71.9103C372.078 72.1478 372.056 72.3659 372.086 72.5645L371.095 73.4463L368.153 70.5255L371.073 66.9191L372.014 67.6811L369.848 70.3556L371.352 71.8696L371.381 71.8331C371.339 71.608 371.359 71.3541 371.44 71.0715C371.519 70.7873 371.661 70.5197 371.864 70.2688C372.169 69.8923 372.53 69.6285 372.947 69.4772C373.362 69.3243 373.794 69.2882 374.241 69.369C374.688 69.4497 375.111 69.6515 375.51 69.9744C375.921 70.3071 376.21 70.6988 376.378 71.1496C376.545 71.5968 376.585 72.0629 376.497 72.548C376.409 73.0294 376.187 73.4897 375.831 73.9289ZM380.125 68.6395C379.748 69.105 379.322 69.4219 378.847 69.5903C378.374 69.7567 377.884 69.7841 377.378 69.6725C376.872 69.5573 376.383 69.3087 375.911 68.9269C375.437 68.5434 375.093 68.1139 374.879 67.6384C374.662 67.1612 374.587 66.6748 374.653 66.179C374.719 65.6795 374.936 65.2021 375.305 64.7468C375.612 64.3683 375.953 64.0899 376.328 63.9115C376.703 63.7295 377.088 63.6539 377.482 63.6847C377.874 63.7139 378.248 63.8524 378.603 64.1001L377.753 65.1505C377.494 65.0111 377.224 64.9607 376.945 64.9993C376.666 65.0342 376.418 65.1843 376.204 65.4494C376.022 65.674 375.923 65.9205 375.907 66.1889C375.888 66.4555 375.953 66.7274 376.101 67.0044C376.25 67.2795 376.481 67.544 376.795 67.798C377.113 68.0553 377.424 68.23 377.728 68.3221C378.03 68.4125 378.311 68.4238 378.57 68.3558C378.829 68.2841 379.051 68.1339 379.236 67.9052C379.368 67.7433 379.454 67.574 379.497 67.3974C379.539 67.217 379.537 67.0358 379.49 66.8537C379.443 66.6717 379.349 66.4964 379.207 66.328L380.057 65.2777C380.366 65.5711 380.58 65.9051 380.699 66.2795C380.816 66.6524 380.829 67.0417 380.738 67.4474C380.645 67.8516 380.441 68.2489 380.125 68.6395ZM382.382 65.6659L377.719 61.89L378.57 60.8396L379.362 61.4812L379.406 61.4266C379.218 61.1131 379.139 60.7834 379.172 60.4375C379.202 60.0899 379.343 59.7603 379.595 59.4486C379.851 59.1329 380.143 58.9291 380.473 58.8371C380.801 58.7414 381.133 58.7556 381.469 58.8796L381.508 58.831C381.332 58.518 381.267 58.1768 381.311 57.8074C381.356 57.4343 381.514 57.0788 381.788 56.7408C382.136 56.3117 382.555 56.0714 383.046 56.0198C383.536 55.9682 384.042 56.153 384.562 56.5742L387.692 59.1087L386.799 60.2107L383.84 57.8139C383.55 57.5795 383.276 57.4852 383.018 57.5308C382.758 57.5748 382.538 57.7081 382.358 57.9307C382.143 58.1959 382.058 58.4705 382.103 58.7546C382.147 59.0351 382.301 59.2819 382.564 59.4949L385.472 61.85L384.599 62.9277L381.594 60.494C381.353 60.2989 381.102 60.2161 380.84 60.2455C380.58 60.2728 380.356 60.4028 380.167 60.6356C380.039 60.7934 379.964 60.9699 379.94 61.165C379.914 61.3584 379.942 61.5526 380.026 61.7475C380.107 61.9408 380.244 62.1152 380.436 62.2709L383.272 64.567L382.382 65.6659Z" fill="#968FF0"/>
<line x1="378.652" y1="105.168" x2="410.269" y2="40.3425" stroke="#968FF0" stroke-width="3"/>
</g>
<defs>
<clipPath id="clip0_295_6">
<rect width="428" height="122" rx="20" fill="white"/>
</clipPath>
<clipPath id="clip1_295_6">
<rect width="70" height="70" fill="white" transform="translate(13.7898 49) rotate(19)"/>
</clipPath>
</defs>
</svg>
