<svg width="428" height="122" viewBox="0 0 428 122" fill="none" xmlns="http://www.w3.org/2000/svg">
<g clip-path="url(#clip0_601_2224)">
<rect width="428" height="122" rx="20" fill="white"/>
<path d="M340.309 28.0011L342.588 28.978C342.904 29.1137 343.182 29.3257 343.395 29.5948C343.609 29.864 343.753 30.182 343.814 30.5204C343.875 30.8588 343.851 31.207 343.744 31.5339C343.637 31.8607 343.451 32.156 343.202 32.3932L333.11 42.0064C332.867 42.2361 332.553 42.3753 332.22 42.4005C331.886 42.4256 331.555 42.3352 331.28 42.1445C331.006 41.9538 330.806 41.6744 330.713 41.3533C330.62 41.0322 330.641 40.689 330.772 40.3815L334.551 31.5653L332.725 30.7145C332.236 30.4855 331.855 30.0755 331.664 29.5711C331.472 29.0667 331.483 28.5075 331.696 28.0117L334.931 20.4657C335.148 19.9589 335.558 19.5591 336.07 19.3543C336.582 19.1496 337.154 19.1566 337.661 19.3738L341.111 20.8527C341.618 21.0699 342.018 21.4796 342.222 21.9916C342.427 22.5036 342.42 23.076 342.203 23.5828L340.309 28.0011Z" fill="#628BF7"/>
<path d="M215.078 97.5433L216.739 96.8779C216.969 96.7858 217.219 96.7523 217.465 96.7803C217.712 96.8084 217.948 96.8971 218.151 97.0385C218.355 97.18 218.521 97.3697 218.633 97.5908C218.745 97.8119 218.801 98.0575 218.796 98.3055L218.557 108.358C218.551 108.599 218.462 108.831 218.305 109.014C218.148 109.196 217.932 109.32 217.695 109.363C217.458 109.405 217.213 109.365 217.002 109.249C216.791 109.132 216.626 108.947 216.536 108.723L213.962 102.3L212.597 102.798C212.231 102.931 211.828 102.916 211.472 102.757C211.117 102.598 210.838 102.307 210.693 101.945L208.49 96.4471C208.342 96.0778 208.347 95.6649 208.503 95.2991C208.66 94.9334 208.955 94.6448 209.325 94.4968L211.838 93.4896C212.208 93.3416 212.62 93.3464 212.986 93.5029C213.352 93.6594 213.641 93.9548 213.789 94.3241L215.078 97.5433Z" fill="#6ADBC6"/>
<path d="M131.565 18.6426L134.412 16.6261C134.807 16.3468 135.265 16.1698 135.745 16.111C136.226 16.0521 136.713 16.1133 137.164 16.289C137.614 16.4646 138.014 16.7494 138.328 17.1176C138.642 17.4859 138.859 17.9262 138.961 18.3991L143.077 37.5727C143.174 38.0327 143.11 38.5122 142.896 38.9305C142.681 39.3487 142.329 39.6803 141.898 39.8693C141.468 40.0584 140.985 40.0934 140.532 39.9684C140.079 39.8435 139.682 39.5662 139.41 39.1833L131.61 28.1702L129.246 29.7364C128.613 30.1543 127.841 30.3094 127.095 30.1689C126.349 30.0284 125.686 29.6033 125.248 28.9835L118.572 19.5572C118.123 18.924 117.945 18.1387 118.076 17.3739C118.206 16.6092 118.635 15.9276 119.268 15.4792L123.578 12.4268C124.211 11.9784 124.997 11.7999 125.761 11.9305C126.526 12.0611 127.208 12.4902 127.656 13.1233L131.565 18.6426Z" fill="#E99BF4"/>
<path d="M236.5 20.625C239.883 20.625 242.625 17.8827 242.625 14.5C242.625 11.1173 239.883 8.375 236.5 8.375C233.117 8.375 230.375 11.1173 230.375 14.5C230.375 17.8827 233.117 20.625 236.5 20.625Z" fill="#6ADBC6" stroke="black" stroke-width="2" stroke-linecap="round" stroke-linejoin="round"/>
<path d="M250.792 4.29167C253.047 4.29167 254.875 2.4635 254.875 0.208333C254.875 -2.04683 253.047 -3.875 250.792 -3.875C248.536 -3.875 246.708 -2.04683 246.708 0.208333C246.708 2.4635 248.536 4.29167 250.792 4.29167Z" fill="black" stroke="black" stroke-width="2" stroke-linecap="round" stroke-linejoin="round"/>
<path d="M222.208 32.8757C224.463 32.8757 226.292 31.0475 226.292 28.7923C226.292 26.5372 224.463 24.709 222.208 24.709C219.953 24.709 218.125 26.5372 218.125 28.7923C218.125 31.0475 219.953 32.8757 222.208 32.8757Z" fill="black" stroke="black" stroke-width="2" stroke-linecap="round" stroke-linejoin="round"/>
<path d="M233.233 34.7126C237.159 35.3576 241.188 34.8417 244.824 33.2283C248.46 31.6148 251.546 28.9741 253.702 25.6307C255.858 22.2873 256.99 18.3869 256.96 14.4087C256.929 10.4306 255.737 6.54805 253.53 3.23828" stroke="black" stroke-width="3" stroke-linecap="round" stroke-linejoin="round"/>
<path d="M239.562 -5.71328C235.653 -6.31031 231.654 -5.75898 228.052 -4.1263C224.45 -2.49361 221.399 0.150149 219.271 3.48373C217.143 6.81731 216.029 10.6972 216.065 14.652C216.1 18.6067 217.283 22.4661 219.47 25.7611" stroke="black" stroke-width="3" stroke-linecap="round" stroke-linejoin="round"/>
<g clip-path="url(#clip1_601_2224)">
<path d="M407.848 42.2746C409.934 43.0043 412.215 41.9056 412.945 39.8204C413.675 37.7353 412.576 35.4534 410.491 34.7237C408.406 33.9939 406.124 35.0927 405.394 37.1778C404.665 39.2629 405.763 41.5448 407.848 42.2746Z" fill="#E99BF4" stroke="#E99BF4" stroke-width="2" stroke-linecap="round" stroke-linejoin="round"/>
<path d="M421.65 64.4194C428.249 61.2622 427.878 46.7796 420.846 32.0933C413.749 17.4381 402.659 8.11715 396.076 11.3067C389.478 14.4639 389.849 28.9465 396.88 43.6329C403.977 58.288 415.067 67.609 421.65 64.4194Z" stroke="#6ADBC6" stroke-width="5" stroke-linecap="round" stroke-linejoin="round"/>
<path d="M414.633 49.8458C429.288 42.7493 438.609 31.6587 435.419 25.0759C432.262 18.4776 417.78 18.8486 403.093 25.8803C388.438 32.9768 379.117 44.0675 382.307 50.6502C385.464 57.2485 399.947 56.8775 414.633 49.8458Z" stroke="#628BF7" stroke-width="5" stroke-linecap="round" stroke-linejoin="round"/>
</g>
<g clip-path="url(#clip2_601_2224)">
<path d="M22.5699 18.0644C24.5179 18.934 26.802 18.0597 27.6716 16.1117C28.5411 14.1637 27.6669 11.8796 25.7188 11.01C23.7708 10.1405 21.4867 11.0147 20.6172 12.9627C19.7476 14.9108 20.6219 17.1949 22.5699 18.0644Z" fill="#1BC200" stroke="#00BD1F" stroke-width="2" stroke-linecap="round" stroke-linejoin="round"/>
<path d="M34.0749 40.4827C40.6779 37.9739 41.4831 24.0072 35.8947 9.30993C30.2416 -5.36252 20.3167 -15.2222 13.726 -12.681C7.123 -10.1722 6.31788 3.79447 11.9062 18.4917C17.5594 33.1642 27.4843 43.0239 34.0749 40.4827Z" stroke="#00BED8" stroke-width="3" stroke-linecap="round" stroke-linejoin="round"/>
<path d="M28.4914 25.8951C43.1638 20.2419 53.0235 10.317 50.4823 3.72641C47.9735 -2.87664 34.0068 -3.68175 19.3096 1.90658C4.63712 7.55975 -5.22259 17.4846 -2.68139 24.0753C-0.172603 30.6783 13.7941 31.4834 28.4914 25.8951Z" stroke="#00EC6D" stroke-width="3" stroke-linecap="round" stroke-linejoin="round"/>
</g>
<g clip-path="url(#clip3_601_2224)">
<circle cx="322.246" cy="102.816" r="63" transform="rotate(-11.7476 322.246 102.816)" fill="#FFDA44"/>
<path d="M323.671 109.67L323.706 109.663" stroke="black" stroke-width="15" stroke-linecap="round" stroke-linejoin="round"/>
<path d="M302.693 86.1499C301.309 84.6503 299.11 84.3925 297.953 85.7056C291.283 93.1699 287.654 103.219 288.692 113.371C288.706 115.155 290.775 116.512 292.831 116.085L309.965 112.522C308.896 107.382 310.711 102.357 314.395 99.4458C309.272 93.719 305.048 88.8776 302.693 86.1499Z" fill="black" stroke="black" stroke-width="2" stroke-linecap="round" stroke-linejoin="round"/>
<path d="M354.512 103.256C356.568 102.829 357.653 101.173 357.226 99.1171C354.131 89.3935 347.138 81.553 338.117 77.7093C336.532 76.9663 334.205 77.8078 333.876 79.6637C332.461 83.1752 330.517 89.2993 328.031 96.2512C332.642 97.7947 336.309 101.679 337.378 106.819L354.512 103.256Z" fill="black" stroke="black" stroke-width="2" stroke-linecap="round" stroke-linejoin="round"/>
<path d="M313.81 139.605C313.138 141.532 314.251 143.446 316.107 143.775C325.871 146.034 336.151 143.896 344.206 137.931C345.776 136.89 346.034 134.691 344.65 133.192C342.295 130.464 338.071 125.623 333.019 120.238C329.406 123.492 323.923 124.632 319.312 123.089C316.826 130.041 314.882 136.165 313.81 139.605Z" fill="black" stroke="black" stroke-width="2" stroke-linecap="round" stroke-linejoin="round"/>
</g>
<g clip-path="url(#clip4_601_2224)">
<path d="M46.5025 136.17C56.9106 143.631 71.3964 141.242 78.8576 130.834L92.4252 111.908C92.9217 111.216 93.1228 110.354 92.9841 109.513C92.8455 108.673 92.3785 107.921 91.6859 107.425L83.4477 101.519C82.7552 101.023 81.8937 100.821 81.0529 100.96C80.2121 101.099 79.4608 101.566 78.9643 102.258L65.4545 121.104C63.3123 124.092 59.1615 124.834 56.2102 122.75L56.2048 122.747C55.4894 122.243 54.8808 121.602 54.414 120.862C53.9471 120.122 53.6314 119.297 53.4848 118.434C53.3382 117.571 53.3637 116.688 53.5599 115.835C53.7561 114.982 54.119 114.177 54.6279 113.465L68.1955 94.5386C68.692 93.846 68.893 92.9845 68.7544 92.1437C68.6157 91.3029 68.1487 90.5516 67.4561 90.0551L59.218 84.1494C58.5254 83.6529 57.6639 83.4519 56.8231 83.5905C55.9823 83.7292 55.231 84.1962 54.7345 84.8888L41.1669 103.815C33.7057 114.223 36.0945 128.709 46.5025 136.17ZM83.8853 118.136L75.8087 112.346L81.5986 104.269L89.6751 110.059L83.8853 118.136ZM59.6555 100.766L51.5789 94.9761L57.3688 86.8995L65.4454 92.6894L59.6555 100.766Z" fill="#968FF0"/>
</g>
</g>
<defs>
<clipPath id="clip0_601_2224">
<rect width="428" height="122" rx="20" fill="white"/>
</clipPath>
<clipPath id="clip1_601_2224">
<rect width="61" height="61" fill="white" transform="translate(390.15 -1) rotate(19.2887)"/>
</clipPath>
<clipPath id="clip2_601_2224">
<rect width="58.9055" height="58.9055" fill="white" transform="translate(9.01099 -25) rotate(24.0552)"/>
</clipPath>
<clipPath id="clip3_601_2224">
<rect x="274" y="77.1016" width="84" height="84" rx="42" transform="rotate(-11.7476 274 77.1016)" fill="white"/>
</clipPath>
<clipPath id="clip4_601_2224">
<rect width="53" height="53" fill="white" transform="translate(67.0752 152.955) rotate(-144.364)"/>
</clipPath>
</defs>
</svg>
