<svg width="428" height="122" viewBox="0 0 428 122" fill="none" xmlns="http://www.w3.org/2000/svg">
<g clip-path="url(#clip0_295_14)">
<rect width="428" height="122" rx="20" fill="white"/>
<path d="M81.5824 74V47.8182H91.4006C93.4119 47.8182 95.0994 48.1676 96.4631 48.8665C97.8352 49.5653 98.8707 50.5455 99.5696 51.8068C100.277 53.0597 100.631 54.5213 100.631 56.1918C100.631 57.8707 100.273 59.3281 99.5568 60.5639C98.8494 61.7912 97.8054 62.7415 96.4247 63.4148C95.044 64.0795 93.348 64.4119 91.3366 64.4119H84.3438V60.4744H90.6974C91.8736 60.4744 92.8366 60.3125 93.5866 59.9886C94.3366 59.6562 94.8906 59.1747 95.2486 58.544C95.6151 57.9048 95.7983 57.1207 95.7983 56.1918C95.7983 55.2628 95.6151 54.4702 95.2486 53.8139C94.8821 53.1491 94.3239 52.6463 93.5739 52.3054C92.8239 51.956 91.8565 51.7812 90.6719 51.7812H86.3253V74H81.5824ZM95.108 62.1364L101.589 74H96.2969L89.9304 62.1364H95.108ZM117.308 65.7415V54.3636H121.935V74H117.448V70.5099H117.244C116.8 71.6094 116.072 72.5085 115.058 73.2074C114.052 73.9062 112.812 74.2557 111.337 74.2557C110.05 74.2557 108.913 73.9702 107.924 73.3991C106.944 72.8196 106.177 71.9801 105.623 70.8807C105.069 69.7727 104.792 68.4347 104.792 66.8665V54.3636H109.42V66.1506C109.42 67.3949 109.761 68.3835 110.442 69.1165C111.124 69.8494 112.019 70.2159 113.127 70.2159C113.809 70.2159 114.469 70.0497 115.109 69.7173C115.748 69.3849 116.272 68.8906 116.681 68.2344C117.099 67.5696 117.308 66.7386 117.308 65.7415ZM142.214 59.554L137.995 60.0142C137.876 59.5881 137.667 59.1875 137.369 58.8125C137.079 58.4375 136.687 58.1349 136.193 57.9048C135.699 57.6747 135.093 57.5597 134.377 57.5597C133.414 57.5597 132.605 57.7685 131.949 58.1861C131.301 58.6037 130.981 59.1449 130.99 59.8097C130.981 60.3807 131.19 60.8452 131.616 61.2031C132.051 61.5611 132.767 61.8551 133.764 62.0852L137.113 62.8011C138.971 63.2017 140.352 63.8366 141.255 64.706C142.167 65.5753 142.627 66.7131 142.636 68.1193C142.627 69.3551 142.265 70.446 141.549 71.392C140.842 72.3295 139.858 73.0625 138.596 73.5909C137.335 74.1193 135.886 74.3835 134.25 74.3835C131.846 74.3835 129.912 73.8807 128.446 72.875C126.98 71.8608 126.106 70.4503 125.825 68.6435L130.338 68.2088C130.542 69.0952 130.977 69.7642 131.642 70.2159C132.306 70.6676 133.172 70.8935 134.237 70.8935C135.336 70.8935 136.218 70.6676 136.883 70.2159C137.556 69.7642 137.893 69.206 137.893 68.5412C137.893 67.9787 137.676 67.5142 137.241 67.1477C136.815 66.7812 136.15 66.5 135.247 66.304L131.897 65.6009C130.014 65.2088 128.62 64.5483 127.717 63.6193C126.814 62.6818 126.366 61.4972 126.375 60.0653C126.366 58.8551 126.694 57.8068 127.359 56.9205C128.032 56.0256 128.966 55.3352 130.159 54.8494C131.36 54.3551 132.745 54.108 134.314 54.108C136.615 54.108 138.426 54.598 139.747 55.5781C141.076 56.5582 141.899 57.8835 142.214 59.554ZM161.972 59.554L157.753 60.0142C157.634 59.5881 157.425 59.1875 157.127 58.8125C156.837 58.4375 156.445 58.1349 155.951 57.9048C155.456 57.6747 154.851 57.5597 154.135 57.5597C153.172 57.5597 152.363 57.7685 151.706 58.1861C151.059 58.6037 150.739 59.1449 150.748 59.8097C150.739 60.3807 150.948 60.8452 151.374 61.2031C151.809 61.5611 152.525 61.8551 153.522 62.0852L156.871 62.8011C158.729 63.2017 160.11 63.8366 161.013 64.706C161.925 65.5753 162.385 66.7131 162.394 68.1193C162.385 69.3551 162.023 70.446 161.307 71.392C160.6 72.3295 159.615 73.0625 158.354 73.5909C157.093 74.1193 155.644 74.3835 154.007 74.3835C151.604 74.3835 149.669 73.8807 148.203 72.875C146.738 71.8608 145.864 70.4503 145.583 68.6435L150.096 68.2088C150.3 69.0952 150.735 69.7642 151.4 70.2159C152.064 70.6676 152.929 70.8935 153.995 70.8935C155.094 70.8935 155.976 70.6676 156.641 70.2159C157.314 69.7642 157.651 69.206 157.651 68.5412C157.651 67.9787 157.434 67.5142 156.999 67.1477C156.573 66.7812 155.908 66.5 155.005 66.304L151.655 65.6009C149.772 65.2088 148.378 64.5483 147.475 63.6193C146.571 62.6818 146.124 61.4972 146.132 60.0653C146.124 58.8551 146.452 57.8068 147.117 56.9205C147.79 56.0256 148.723 55.3352 149.917 54.8494C151.118 54.3551 152.503 54.108 154.071 54.108C156.373 54.108 158.184 54.598 159.505 55.5781C160.834 56.5582 161.657 57.8835 161.972 59.554ZM166.21 74V54.3636H170.838V74H166.21ZM168.537 51.5767C167.804 51.5767 167.173 51.3338 166.645 50.848C166.116 50.3537 165.852 49.7614 165.852 49.071C165.852 48.3722 166.116 47.7798 166.645 47.294C167.173 46.7997 167.804 46.5526 168.537 46.5526C169.278 46.5526 169.909 46.7997 170.429 47.294C170.957 47.7798 171.221 48.3722 171.221 49.071C171.221 49.7614 170.957 50.3537 170.429 50.848C169.909 51.3338 169.278 51.5767 168.537 51.5767ZM181.247 74.3963C180.003 74.3963 178.882 74.1747 177.885 73.7315C176.896 73.2798 176.112 72.6151 175.533 71.7372C174.962 70.8594 174.676 69.777 174.676 68.4901C174.676 67.3821 174.881 66.4659 175.29 65.7415C175.699 65.017 176.257 64.4375 176.964 64.0028C177.672 63.5682 178.469 63.2401 179.355 63.0185C180.25 62.7884 181.175 62.6222 182.129 62.5199C183.28 62.4006 184.213 62.294 184.929 62.2003C185.645 62.098 186.165 61.9446 186.489 61.7401C186.821 61.527 186.987 61.1989 186.987 60.7557V60.679C186.987 59.7159 186.702 58.9702 186.131 58.4418C185.56 57.9134 184.737 57.6491 183.663 57.6491C182.53 57.6491 181.631 57.8963 180.966 58.3906C180.31 58.8849 179.866 59.4687 179.636 60.142L175.315 59.5284C175.656 58.3352 176.219 57.3381 177.003 56.5369C177.787 55.7273 178.746 55.1222 179.879 54.7216C181.013 54.3125 182.266 54.108 183.638 54.108C184.584 54.108 185.526 54.2188 186.463 54.4403C187.401 54.6619 188.257 55.0284 189.033 55.5398C189.808 56.0426 190.43 56.7287 190.899 57.598C191.376 58.4673 191.615 59.554 191.615 60.858V74H187.166V71.3026H187.013C186.732 71.848 186.335 72.3594 185.824 72.8366C185.321 73.3054 184.686 73.6847 183.919 73.9744C183.161 74.2557 182.27 74.3963 181.247 74.3963ZM182.449 70.9957C183.378 70.9957 184.183 70.8125 184.865 70.446C185.547 70.071 186.071 69.5767 186.438 68.9631C186.812 68.3494 187 67.6804 187 66.956V64.642C186.855 64.7614 186.608 64.8722 186.259 64.9744C185.918 65.0767 185.534 65.1662 185.108 65.2429C184.682 65.3196 184.26 65.3878 183.842 65.4474C183.425 65.5071 183.063 65.5582 182.756 65.6009C182.065 65.6946 181.447 65.848 180.902 66.0611C180.357 66.2741 179.926 66.5724 179.611 66.956C179.295 67.331 179.138 67.8168 179.138 68.4134C179.138 69.2656 179.449 69.9091 180.071 70.3438C180.693 70.7784 181.486 70.9957 182.449 70.9957ZM200.896 62.4943V74H196.268V54.3636H200.692V57.7003H200.922C201.374 56.6009 202.094 55.7273 203.082 55.0795C204.08 54.4318 205.311 54.108 206.777 54.108C208.132 54.108 209.313 54.3977 210.318 54.9773C211.332 55.5568 212.116 56.3963 212.67 57.4957C213.233 58.5952 213.51 59.929 213.501 61.4972V74H208.874V62.2131C208.874 60.9006 208.533 59.8736 207.851 59.1321C207.178 58.3906 206.244 58.0199 205.051 58.0199C204.241 58.0199 203.521 58.1989 202.891 58.5568C202.268 58.9062 201.778 59.4134 201.42 60.0781C201.071 60.7429 200.896 61.5483 200.896 62.4943Z" fill="black"/>
<g clip-path="url(#clip1_295_14)">
<path d="M276 -24.0046V145.995H446V-24.0046H276Z" fill="white"/>
<path d="M276 -24H446V146.002H276V-24Z" fill="#0052B4"/>
<path d="M276 -24H446V32.6653H276V-24Z" fill="white"/>
<path d="M276 89.3312H446V145.997H276V89.3312Z" fill="#D80027"/>
</g>
<g clip-path="url(#clip2_295_14)">
<path d="M111.979 -13.4006C114.127 -14.0575 116.52 -13.8226 118.465 -12.5033C120.409 -11.1838 121.996 -8.75949 122.396 -4.69635C122.822 -0.364846 126.039 2.38111 128.146 5.82776C122.619 10.3127 116.417 12.2085 109.327 11.581C109.147 7.5453 110.278 3.47009 108.209 -0.359126C106.269 -3.95109 106.229 -6.84849 107.103 -9.02963C107.977 -11.2108 109.83 -12.7437 111.979 -13.4006ZM113.083 -9.78708C109.879 -8.8075 108.083 -5.35913 109.068 -2.13691C110.054 1.08532 113.471 2.9401 116.675 1.96052C119.879 0.980975 121.675 -2.46768 120.69 -5.68991C119.705 -8.91213 116.287 -10.7666 113.083 -9.78708ZM97.0237 -0.671845C98.671 -1.17548 100.501 -0.989597 101.994 0.0334389C103.487 1.05673 104.729 2.94072 105.052 6.1619C105.234 7.97647 105.993 9.44493 106.912 10.8084C106.917 11.1489 106.928 11.4893 106.945 11.8294C107.009 13.0616 107.186 14.3456 107.551 15.6656C103.751 17.8581 99.6318 18.9027 95.1224 18.8186C95.0522 15.727 95.8335 12.5409 94.1889 9.4832C92.6553 6.63211 92.632 4.37535 93.2972 2.69233C93.9625 1.00956 95.3764 -0.168212 97.0237 -0.671845ZM97.9306 2.29445C95.4841 3.04241 94.1135 5.68245 94.8641 8.13753C95.6147 10.5926 98.2271 12.0146 100.674 11.2666C103.12 10.5186 104.491 7.87895 103.74 5.42386C102.99 2.96877 100.377 1.5465 97.9306 2.29445ZM84.3625 8.64056C85.6889 8.23505 87.1581 8.38584 88.3568 9.20943C89.5555 10.033 90.5705 11.5533 90.8382 14.2129C91.0161 15.9796 91.8138 17.3557 92.7223 18.6329C92.7278 18.8951 92.7375 19.1571 92.7511 19.419C92.802 20.3651 92.9365 21.3518 93.2037 22.3667C90.047 24.1542 86.6422 25.037 82.9267 25.0327C82.8191 22.3981 83.5732 19.6047 82.1099 16.8815C80.8446 14.5268 80.8358 12.6987 81.369 11.3458C81.9021 9.99289 83.0361 9.04607 84.3625 8.64056ZM84.988 10.6864C83.0832 11.2688 82.0179 13.3299 82.6005 15.2356C83.1832 17.1412 85.2189 18.2543 87.1237 17.6719C89.0284 17.0896 90.0934 15.0284 89.5109 13.1229C88.9283 11.2174 86.8927 10.1041 84.988 10.6864ZM74.102 16.6547C75.1408 16.3371 76.2862 16.4558 77.2216 17.1002C78.1571 17.7447 78.9689 18.9395 79.1872 21.0962C79.323 22.4393 79.867 23.5105 80.5168 24.4794C80.521 24.7589 80.5305 25.0384 80.545 25.3176C80.5925 26.1914 80.7254 27.109 80.9967 28.0551C78.5362 29.329 75.9104 30.0028 73.0761 30.085C72.9712 27.9205 73.6391 25.545 72.3701 23.1804C71.3449 21.2704 71.3499 19.8259 71.765 18.7685C72.1801 17.7112 73.0632 16.9722 74.1019 16.6546L74.102 16.6547ZM74.6953 18.5953C73.3086 19.0193 72.5378 20.5264 72.9589 21.9038C73.38 23.2811 74.8619 24.0996 76.2485 23.6757C77.6351 23.2518 78.4061 21.7444 77.9851 20.3671C77.5639 18.9897 76.0819 18.1714 74.6953 18.5953ZM109.588 13.9927C116.889 14.5105 123.515 12.4847 129.278 7.97321C130.612 11.0211 131.057 14.8437 128.979 20.8439L117.034 24.4961C111.955 20.6837 110.187 17.2658 109.588 13.9927ZM95.3616 21.2008C100.019 21.2237 104.373 20.126 108.363 17.9272C109.038 19.4436 110.004 20.9946 111.369 22.5597C111.216 23.7326 110.91 25.0407 110.412 26.5205L101.13 29.3583C97.2297 26.3761 95.847 23.7388 95.3616 21.2008ZM83.2619 27.4116C87.0989 27.3508 90.7023 26.417 94.0208 24.6273C94.5251 25.7106 95.2125 26.8149 96.1359 27.9271C96.0117 28.8727 95.7699 29.9248 95.3751 31.1178L87.8019 33.4331C84.9541 31.2331 83.762 29.2848 83.2619 27.4116ZM73.5012 32.4556C76.4659 32.3125 79.2728 31.5789 81.8888 30.2702C82.3082 31.0684 82.8456 31.8776 83.5325 32.6902C83.4266 33.3567 83.2505 34.0888 82.9862 34.9054L76.9426 36.7531C74.9372 35.1833 73.971 33.791 73.5012 32.4556Z" fill="#D80027"/>
</g>
<g clip-path="url(#clip3_295_14)">
<path d="M1.34638 105.182L5.06348 94.3865L8.59735 95.6033C10.5948 96.291 11.6571 98.4717 10.9672 100.475C10.2773 102.479 8.09919 103.544 6.10025 102.855L2.56637 101.639M29.8834 110.974L29.8681 111.019C29.5407 111.967 28.8505 112.746 27.9489 113.186C27.0474 113.626 26.0082 113.69 25.0595 113.364C24.1118 113.036 23.3328 112.346 22.8934 111.445C22.454 110.543 22.3902 109.504 22.7158 108.556L23.9702 104.913C24.2975 103.965 24.9874 103.186 25.8886 102.746C26.7898 102.306 27.8286 102.242 28.7772 102.567C29.7253 102.895 30.5048 103.585 30.9445 104.486C31.3842 105.388 31.4482 106.427 31.1224 107.376L31.1076 107.419" stroke="#0052B4" stroke-width="2" stroke-linecap="round" stroke-linejoin="round"/>
<path d="M20.7864 103.798C21.4666 101.822 20.4169 99.6696 18.4418 98.9895C16.4668 98.3095 14.3143 99.3596 13.6341 101.335L12.3797 104.978C11.6995 106.954 12.7492 109.106 14.7242 109.786C16.6993 110.466 18.8518 109.416 19.532 107.441L20.7864 103.798Z" stroke="#0052B4" stroke-width="2" stroke-linecap="round" stroke-linejoin="round"/>
<path d="M38.9821 118.141L42.6992 107.346L31.8299 115.678L35.5469 104.883M48.9768 121.582L52.6939 110.787L41.8246 119.119L45.5417 108.324M42.047 90.5224L49.1993 92.9851M41.9063 102.551L45.6239 91.754" stroke="#0052B4" stroke-width="2" stroke-linecap="round" stroke-linejoin="round"/>
<path d="M27.7187 89.5897C28.3989 87.6142 27.3493 85.4615 25.3742 84.7814C23.3992 84.1013 21.2467 85.1515 20.5665 87.1269L19.3121 90.7699C18.6319 92.7454 19.6816 94.8981 21.6566 95.5782C23.6316 96.2582 25.7841 95.2081 26.4644 93.2326L27.7187 89.5897Z" stroke="#0052B4" stroke-width="2" stroke-linecap="round" stroke-linejoin="round"/>
<path d="M39.2902 89.5747L36.9671 96.3214M36.9671 96.3214L33.5931 95.1596C32.591 94.8141 31.7672 94.0848 31.3028 93.1321C30.8383 92.1793 30.7713 91.0811 31.1163 90.0789L32.1379 87.112M36.9671 96.3214L35.5731 100.37M7.98428 90.8704L11.7019 80.0736L18.8542 82.5363L15.1365 93.3331M52.6037 102.235L47.8207 100.588M45.4034 103.755L52.6979 94.1897L52.5572 106.218" stroke="#0052B4" stroke-width="2" stroke-linecap="round" stroke-linejoin="round"/>
<path d="M17.0809 64.4765L61.6385 79.8189C63.2685 80.3802 64.6088 81.566 65.3645 83.1154C66.1202 84.6648 66.2294 86.451 65.6682 88.081L50.3258 132.639C49.7645 134.269 48.5788 135.609 47.0293 136.365C45.4799 137.12 43.6937 137.23 42.0637 136.668L-2.49386 121.326C-4.12384 120.765 -5.46411 119.579 -6.21982 118.029C-6.97554 116.48 -7.08478 114.694 -6.52353 113.064L8.81887 68.5062C9.38011 66.8762 10.5659 65.536 12.1153 64.7803C13.6648 64.0245 15.4509 63.9153 17.0809 64.4765Z" stroke="#0052B4" stroke-width="2" stroke-linecap="round" stroke-linejoin="round"/>
</g>
<g clip-path="url(#clip4_295_14)">
<path d="M185.351 110.678C185.294 111.141 185.216 111.58 185.116 111.991C183.245 110.189 181.414 108.346 179.624 106.463C180.822 105.534 181.997 104.635 183.009 103.863C183.747 103.298 184.4 102.8 184.911 102.405C184.85 102.649 184.803 102.898 184.771 103.154C184.564 104.84 184.812 105.836 185.059 106.84C185.313 107.863 185.569 108.898 185.351 110.679M205.401 114.482C205.502 114.071 205.579 113.632 205.636 113.168C205.855 111.388 205.597 110.355 205.344 109.331C205.096 108.327 204.849 107.332 205.057 105.645C205.088 105.388 205.133 105.14 205.196 104.896C204.686 105.289 204.036 105.788 203.296 106.349L203.295 106.352C202.282 107.126 201.106 108.025 199.908 108.952C201.698 110.835 203.53 112.679 205.401 114.482Z" fill="#949392"/>
<path d="M187.106 85.9144C180.817 85.1422 176.931 89.2821 174.664 93.7538C172.395 98.2312 171.481 103.474 171.164 106.05L169.384 120.552C169.237 121.745 169.303 123.243 170.074 124.557C170.891 125.948 172.345 126.878 174.443 127.136L180.347 127.86C184.083 128.319 186.882 126.871 188.756 124.815C189.065 124.475 189.35 124.118 189.612 123.751C189.572 124.797 189.734 125.984 190.358 127.048C191.176 128.438 192.63 129.369 194.726 129.626L200.632 130.351C204.368 130.81 207.167 129.362 209.041 127.305C210.866 125.305 211.819 122.738 212.06 120.771C212.205 119.591 212.088 118.289 211.972 117.017L211.913 116.357C211.782 114.809 211.687 113.093 211.937 111.058C212.167 109.185 212.998 107.582 213.971 105.779L214.08 105.576C214.987 103.897 216.025 101.978 216.299 99.7507C216.872 95.0829 213.498 89.1549 207.392 88.4053C201.923 87.7337 198.273 90.7749 195.924 94.5188C195.211 90.5336 192.058 86.5224 187.106 85.9144ZM175.062 101.204C175.202 101.392 175.356 101.599 175.53 101.829C176.393 102.891 177.287 103.927 178.21 104.937C181.057 102.84 183.872 100.699 186.653 98.5154L187.211 98.0808C187.95 96.9803 188.601 95.9193 188.741 94.7793C188.919 93.3361 188.416 92.0906 187.327 91.1874C185.199 89.4227 182.487 89.3293 180.42 90.7951C182.104 89.3001 184.178 88.513 186.748 88.8285C191.012 89.3521 193.503 93.5986 193.098 96.9006C192.893 98.5683 192.092 100.053 191.1 101.892C190.15 103.653 189.043 105.712 188.737 108.208C188.45 110.54 188.564 112.493 188.701 114.112L188.766 114.848C188.881 116.144 188.965 117.077 188.861 117.921C188.684 119.363 187.948 121.34 186.586 122.835C185.272 124.275 183.384 125.272 180.706 124.944L174.801 124.218C173.441 124.051 172.88 123.533 172.607 123.069C172.29 122.527 172.194 121.765 172.299 120.909L173.312 112.659C173.332 114.218 174.427 115.189 175.914 115.371L178.751 115.72C181.59 116.068 183.274 115.409 184.249 114.024C181.963 112.071 179.772 109.815 177.928 107.74C176.497 108.777 175.037 109.772 173.55 110.725L173.867 108.14C174.493 107.672 175.353 107.032 176.55 106.152C175.856 105.332 175.178 104.498 174.518 103.65C174.663 102.888 174.844 102.063 175.062 101.204ZM196.834 108.643C196.14 107.823 195.463 106.989 194.803 106.141C194.948 105.379 195.128 104.553 195.347 103.695C195.486 103.882 195.641 104.089 195.815 104.319C196.678 105.381 197.572 106.418 198.495 107.428C201.533 105.191 204.534 102.906 207.497 100.572C208.236 99.471 208.887 98.4101 209.027 97.2701C209.204 95.8268 208.7 94.5811 207.611 93.6779C205.483 91.9132 202.771 91.8199 200.704 93.2856C202.389 91.7908 204.462 91.0035 207.033 91.3192C211.297 91.8443 213.789 96.0894 213.383 99.3927C213.178 101.06 212.377 102.546 211.385 104.384C210.435 106.146 209.328 108.204 209.022 110.7C208.735 113.032 208.849 114.985 208.986 116.604L209.05 117.34C209.166 118.636 209.25 119.57 209.146 120.414C208.969 121.855 208.234 123.832 206.871 125.327C205.557 126.767 203.669 127.765 200.99 127.436L195.086 126.711C193.724 126.543 193.165 126.025 192.892 125.561C192.574 125.019 192.479 124.257 192.585 123.401L193.597 115.151C193.616 116.71 194.71 117.681 196.199 117.864L199.034 118.212C201.874 118.56 203.559 117.902 204.534 116.516C202.248 114.564 200.057 112.307 198.213 110.233C196.782 111.269 195.322 112.264 193.835 113.217L194.152 110.632C194.777 110.164 195.638 109.524 196.835 108.644" fill="#949392"/>
</g>
</g>
<defs>
<clipPath id="clip0_295_14">
<rect width="428" height="122" rx="20" fill="white"/>
</clipPath>
<clipPath id="clip1_295_14">
<rect x="276" y="-24" width="170" height="170" rx="85" fill="white"/>
</clipPath>
<clipPath id="clip2_295_14">
<rect width="68" height="68" fill="white" transform="matrix(-0.956305 0.292372 0.292372 0.956305 121.029 -32)"/>
</clipPath>
<clipPath id="clip3_295_14">
<rect width="78" height="78" fill="white" transform="translate(5.39429 51) rotate(19)"/>
</clipPath>
<clipPath id="clip4_295_14">
<rect width="47" height="47" fill="white" transform="translate(172.728 81) rotate(7)"/>
</clipPath>
</defs>
</svg>
